<svg class="main_screen_pic course aos-init aos-animate" data-aos="fade-left" data-aos-duration="600" data-aos-offset="600" data-aos-easing="ease-in-out" data-aos-delay="300" width="609" height="416" viewBox="0 0 609 416" fill="none" xmlns="http://www.w3.org/2000/svg">
                <rect width="334.155" height="191.455" rx="23.7833" transform="matrix(0.866025 0.5 -0.866025 0.5 311.489 32.2001)" fill="#3B3B3B"></rect>
                <rect width="334.338" height="252.33" rx="23.7833" transform="matrix(0.866025 0.5 -0.866025 0.5 283.623 48.149)" fill="#46D961"></rect>
                <g filter="url(#filter0_d_12055_1057)">
                    <g clip-path="url(#clip0_12055_1057)">
                        <rect width="334.155" height="219.995" rx="23.7833" transform="matrix(0.866025 0.5 -0.866025 0.5 254.848 64.9022)" fill="white"></rect>
                        <circle r="35.5673" transform="matrix(0.866025 0.5 -0.866025 0.5 411.9 231.088)" fill="white" stroke="#E8E8E8" stroke-width="8.08348"></circle>
                        <path d="M380.8 249.043C379.031 250.064 376.145 250.071 374.548 248.959C371.131 246.579 368.414 243.884 366.515 240.98C364.082 237.259 363.05 233.282 363.486 229.313C363.923 225.343 365.818 221.473 369.047 217.96C372.276 214.447 376.764 211.371 382.212 208.937C387.66 206.503 393.943 204.767 400.644 203.844C407.345 202.921 414.309 202.833 421.073 203.585C427.838 204.337 434.247 205.912 439.875 208.206C444.267 209.996 448.104 212.191 451.237 214.698C452.701 215.869 451.965 217.481 449.809 218.213C447.653 218.945 444.896 218.519 443.389 217.366C440.937 215.49 437.991 213.84 434.651 212.479C430.074 210.614 424.862 209.333 419.36 208.721C413.859 208.109 408.195 208.181 402.746 208.932C397.297 209.682 392.186 211.094 387.756 213.073C383.325 215.053 379.675 217.554 377.049 220.412C374.424 223.269 372.882 226.416 372.527 229.644C372.172 232.872 373.012 236.107 374.99 239.133C376.434 241.341 378.461 243.401 380.991 245.243C382.545 246.374 382.569 248.022 380.8 249.043Z" fill="#21A038"></path>
                        <g filter="url(#filter1_d_12055_1057)">
                            <circle r="8.08348" transform="matrix(0.612372 -0.612372 1.06066 0.353553 444.922 216.355)" fill="white"></circle>
                        </g>
                        <g filter="url(#filter2_d_12055_1057)">
                            <circle r="4.04174" transform="matrix(0.612372 -0.612372 1.06066 0.353553 444.923 216.355)" fill="#21A038"></circle>
                        </g>
                        <path d="M389.778 227.15L395.38 223.916L396.944 224.819L391.342 228.053L389.778 227.15ZM389.742 224.749L391.221 223.895L396.992 227.227L395.513 228.081L389.742 224.749ZM396.2 232.691C395.61 232.351 395.101 231.968 394.672 231.543C394.26 231.119 393.993 230.703 393.872 230.297L396.151 229.877C396.24 230.199 396.426 230.521 396.709 230.843C397 231.17 397.364 231.459 397.8 231.711C398.293 231.996 398.778 232.164 399.255 232.215C399.732 232.267 400.144 232.192 400.492 231.991C400.71 231.865 400.848 231.721 400.904 231.557C400.961 231.394 400.888 231.203 400.686 230.983C400.492 230.769 400.136 230.512 399.619 230.213L397.449 228.96L402.662 226.454L407.839 229.443L406.263 230.353L401.789 227.77L403.705 227.84L399.995 229.632L399.874 228.526L401.668 229.562C402.509 230.048 403.066 230.505 403.341 230.934C403.632 231.364 403.697 231.76 403.535 232.124C403.373 232.488 403.042 232.815 402.541 233.104C402.04 233.394 401.45 233.59 400.771 233.692C400.1 233.79 399.368 233.765 398.576 233.615C397.8 233.466 397.008 233.158 396.2 232.691ZM404.405 237.428C403.71 237.027 403.257 236.57 403.047 236.056C402.845 235.538 402.913 234.999 403.253 234.439C403.592 233.879 404.227 233.331 405.156 232.794C406.086 232.258 407.036 231.891 408.006 231.695C408.976 231.499 409.905 231.462 410.794 231.583C411.691 231.7 412.488 231.959 413.183 232.36C413.886 232.766 414.335 233.226 414.529 233.739C414.739 234.253 414.674 234.789 414.335 235.349C413.995 235.909 413.361 236.458 412.431 236.994C411.502 237.531 410.552 237.897 409.582 238.093C408.612 238.289 407.678 238.329 406.781 238.212C405.9 238.096 405.108 237.834 404.405 237.428ZM406.066 236.469C406.397 236.661 406.777 236.773 407.205 236.805C407.642 236.843 408.131 236.784 408.672 236.63C409.222 236.481 409.816 236.222 410.455 235.853C411.093 235.485 411.542 235.142 411.801 234.824C412.067 234.512 412.168 234.229 412.104 233.977C412.047 233.73 411.853 233.511 411.522 233.319C411.198 233.133 410.819 233.021 410.382 232.983C409.954 232.951 409.465 233.009 408.915 233.158C408.373 233.312 407.783 233.574 407.145 233.942C406.506 234.311 406.054 234.652 405.787 234.964C405.528 235.282 405.427 235.564 405.484 235.811C405.548 236.063 405.742 236.283 406.066 236.469ZM410.609 240.842L424.891 239.288L426.334 240.121L412.052 241.675L410.609 240.842ZM415.253 239.015C414.84 238.777 414.57 238.514 414.44 238.224C414.319 237.93 414.339 237.629 414.501 237.321C414.679 237.013 415.006 236.722 415.483 236.446C415.96 236.171 416.461 235.984 416.986 235.886C417.52 235.793 418.041 235.781 418.55 235.851C419.06 235.921 419.52 236.075 419.933 236.313C420.345 236.551 420.611 236.817 420.733 237.111C420.854 237.405 420.83 237.704 420.66 238.007C420.49 238.311 420.167 238.6 419.69 238.875C419.213 239.151 418.708 239.34 418.174 239.442C417.649 239.54 417.132 239.554 416.623 239.484C416.121 239.41 415.665 239.253 415.253 239.015ZM416.247 238.441C416.513 238.595 416.837 238.656 417.217 238.623C417.605 238.586 418.025 238.437 418.478 238.175C418.93 237.914 419.185 237.674 419.241 237.454C419.306 237.23 419.205 237.041 418.938 236.887C418.68 236.738 418.352 236.68 417.956 236.712C417.576 236.745 417.16 236.892 416.707 237.153C416.263 237.41 416.008 237.65 415.944 237.874C415.887 238.103 415.988 238.292 416.247 238.441ZM417.011 244.65C416.606 244.417 416.336 244.153 416.198 243.859C416.077 243.565 416.101 243.267 416.271 242.963C416.449 242.655 416.776 242.364 417.253 242.088C417.73 241.813 418.231 241.626 418.756 241.528C419.282 241.43 419.799 241.416 420.308 241.486C420.826 241.561 421.286 241.715 421.691 241.948C422.111 242.191 422.382 242.459 422.503 242.753C422.624 243.047 422.6 243.346 422.43 243.649C422.26 243.953 421.937 244.242 421.46 244.517C420.983 244.793 420.478 244.982 419.945 245.084C419.419 245.182 418.902 245.196 418.393 245.126C417.892 245.052 417.431 244.893 417.011 244.65ZM418.005 244.076C418.271 244.23 418.595 244.291 418.975 244.258C419.363 244.221 419.783 244.072 420.236 243.81C420.68 243.554 420.935 243.313 420.999 243.089C421.064 242.865 420.963 242.676 420.696 242.522C420.438 242.373 420.11 242.315 419.714 242.347C419.334 242.38 418.918 242.527 418.465 242.788C418.013 243.05 417.754 243.292 417.69 243.516C417.641 243.74 417.746 243.927 418.005 244.076Z" fill="#3B3B3B"></path>
                        <path d="M159.054 164.887C158.029 164.295 157.17 163.631 156.477 162.895C155.812 162.159 155.41 161.447 155.271 160.759L158.514 160.207C158.611 160.759 158.902 161.327 159.387 161.911C159.885 162.503 160.544 163.035 161.361 163.507C162.317 164.059 163.266 164.375 164.209 164.455C165.165 164.543 165.982 164.391 166.661 163.999C167.118 163.735 167.403 163.435 167.513 163.099C167.638 162.771 167.5 162.387 167.098 161.947C166.71 161.515 166.017 161.011 165.019 160.435L161.507 158.407L170.174 154.267L178.716 159.199L176.451 160.507L168.906 156.151L171.608 156.223L165.123 159.319L164.978 157.771L167.908 159.463C169.349 160.295 170.312 161.075 170.797 161.803C171.31 162.531 171.428 163.207 171.151 163.831C170.901 164.455 170.347 165.015 169.488 165.511C168.643 165.999 167.659 166.327 166.536 166.495C165.414 166.663 164.209 166.623 162.92 166.375C161.645 166.135 160.357 165.639 159.054 164.887ZM172.855 172.855C171.705 172.191 170.956 171.423 170.61 170.551C170.277 169.687 170.402 168.783 170.984 167.839C171.58 166.887 172.675 165.951 174.268 165.031C175.862 164.111 177.476 163.483 179.111 163.147C180.76 162.803 182.332 162.727 183.829 162.919C185.339 163.119 186.67 163.551 187.82 164.215C188.984 164.887 189.732 165.655 190.064 166.519C190.397 167.383 190.265 168.291 189.669 169.243C189.101 170.195 188.021 171.131 186.427 172.051C184.834 172.971 183.205 173.599 181.543 173.935C179.908 174.271 178.342 174.343 176.845 174.151C175.349 173.959 174.019 173.527 172.855 172.855ZM175.203 171.499C175.882 171.891 176.651 172.127 177.51 172.207C178.383 172.279 179.339 172.175 180.379 171.895C181.432 171.623 182.54 171.151 183.704 170.479C184.882 169.799 185.7 169.159 186.157 168.559C186.642 167.959 186.815 167.411 186.676 166.915C186.552 166.411 186.15 165.963 185.471 165.571C184.82 165.195 184.051 164.967 183.164 164.887C182.305 164.807 181.349 164.903 180.296 165.175C179.27 165.447 178.169 165.923 176.991 166.603C175.827 167.275 175.002 167.911 174.517 168.511C174.046 169.119 173.873 169.675 173.998 170.179C174.15 170.683 174.552 171.123 175.203 171.499ZM192.48 178.521L194.641 177.273L200.357 180.573L198.196 181.821L192.48 178.521Z" fill="#3B3B3B"></path>
                        <path d="M202.655 189.82L204.463 188.776L215.729 188.944C216.671 188.96 217.433 188.936 218.015 188.872C218.597 188.808 219.068 188.712 219.428 188.584C219.816 188.456 220.142 188.316 220.405 188.164C221.07 187.78 221.354 187.352 221.257 186.88C221.174 186.4 220.689 185.904 219.802 185.392C219.096 184.984 218.327 184.684 217.495 184.492C216.678 184.308 215.805 184.244 214.876 184.3L214.44 182.368C215.77 182.256 217.121 182.356 218.493 182.668C219.892 182.98 221.188 183.48 222.38 184.168C223.433 184.776 224.174 185.404 224.604 186.052C225.061 186.7 225.186 187.324 224.978 187.924C224.784 188.532 224.257 189.084 223.398 189.58C222.927 189.852 222.394 190.088 221.798 190.288C221.216 190.48 220.495 190.624 219.636 190.72C218.777 190.816 217.696 190.856 216.394 190.84L206.708 190.696L207.165 189.784L215.666 194.692L213.38 196.012L202.655 189.82ZM219.969 200.056C218.944 199.464 218.085 198.8 217.392 198.064C216.727 197.328 216.325 196.616 216.187 195.928L219.429 195.376C219.526 195.928 219.817 196.496 220.302 197.08C220.801 197.672 221.459 198.204 222.276 198.676C223.233 199.228 224.182 199.544 225.124 199.624C226.08 199.712 226.898 199.56 227.577 199.168C228.034 198.904 228.318 198.604 228.429 198.268C228.553 197.94 228.415 197.556 228.013 197.116C227.625 196.684 226.932 196.18 225.935 195.604L222.422 193.576L231.089 189.436L239.632 194.368L237.366 195.676L229.821 191.32L232.523 191.392L226.038 194.488L225.893 192.94L228.824 194.632C230.265 195.464 231.228 196.244 231.713 196.972C232.225 197.7 232.343 198.376 232.066 199C231.817 199.624 231.262 200.184 230.403 200.68C229.558 201.168 228.574 201.496 227.452 201.664C226.329 201.832 225.124 201.792 223.835 201.544C222.561 201.304 221.272 200.808 219.969 200.056Z" fill="#22C9B1"></path>
                        <path d="M137.948 177.232C137.218 176.811 136.664 176.352 136.285 175.856C135.915 175.355 135.726 174.845 135.717 174.328C135.707 173.811 135.874 173.304 136.215 172.808C136.567 172.317 137.098 171.867 137.809 171.456C138.52 171.045 139.301 170.739 140.151 170.536C141.01 170.339 141.887 170.243 142.783 170.248C143.689 170.259 144.571 170.373 145.43 170.592C146.298 170.805 147.097 171.123 147.827 171.544C148.529 171.949 149.07 172.4 149.448 172.896C149.836 173.387 150.007 173.891 149.961 174.408L148.659 174.408C148.668 173.944 148.52 173.523 148.215 173.144C147.92 172.76 147.495 172.408 146.94 172.088C146.358 171.752 145.716 171.499 145.014 171.328C144.321 171.152 143.606 171.064 142.867 171.064C142.137 171.059 141.421 171.136 140.719 171.296C140.035 171.456 139.402 171.704 138.82 172.04C138.239 172.376 137.804 172.744 137.518 173.144C137.25 173.544 137.116 173.957 137.116 174.384C137.125 174.805 137.278 175.219 137.573 175.624C137.878 176.024 138.322 176.392 138.904 176.728C139.458 177.048 140.068 177.293 140.733 177.464C141.398 177.635 142.132 177.717 142.936 177.712L142.936 178.464C142.04 178.491 141.162 178.395 140.303 178.176C139.444 177.957 138.659 177.643 137.948 177.232ZM146.475 182.139C145.717 181.702 145.209 181.227 144.95 180.715C144.701 180.198 144.692 179.686 144.923 179.179C145.163 178.667 145.643 178.203 146.364 177.787C147.084 177.371 147.874 177.091 148.733 176.947C149.601 176.808 150.461 176.803 151.31 176.931C152.179 177.059 152.95 177.318 153.624 177.707C154.308 178.102 154.756 178.542 154.969 179.027C155.199 179.512 155.186 180.006 154.927 180.507C154.678 181.003 154.188 181.462 153.458 181.883C153.412 181.91 153.357 181.936 153.292 181.963C153.246 181.99 153.195 182.019 153.139 182.051L146.807 178.395L147.541 177.971L153.347 181.323L152.668 181.267C153.195 180.963 153.546 180.627 153.721 180.259C153.915 179.891 153.934 179.528 153.777 179.171C153.62 178.814 153.287 178.488 152.779 178.195C152.28 177.907 151.717 177.715 151.089 177.619C150.461 177.523 149.828 177.531 149.19 177.643C148.553 177.755 147.966 177.966 147.431 178.275L147.278 178.363C146.724 178.683 146.354 179.035 146.17 179.419C146.003 179.803 146.017 180.19 146.211 180.579C146.424 180.968 146.812 181.326 147.375 181.651C147.819 181.907 148.308 182.099 148.844 182.227C149.389 182.36 149.962 182.414 150.562 182.387L150.479 183.075C149.768 183.112 149.066 183.048 148.373 182.883C147.689 182.723 147.057 182.475 146.475 182.139ZM155.248 187.204C154.527 186.788 154.038 186.324 153.779 185.812C153.539 185.3 153.534 184.791 153.765 184.284C154.005 183.772 154.486 183.308 155.206 182.892C155.936 182.471 156.74 182.194 157.617 182.06C158.495 181.927 159.373 181.932 160.25 182.076C161.137 182.226 161.941 182.508 162.661 182.924C163.28 183.282 163.719 183.674 163.977 184.1C164.236 184.527 164.268 184.962 164.074 185.404L162.841 185.268C162.961 184.911 162.924 184.575 162.73 184.26C162.536 183.946 162.222 183.663 161.788 183.412C161.271 183.114 160.684 182.914 160.028 182.812C159.382 182.706 158.726 182.706 158.061 182.812C157.396 182.919 156.777 183.138 156.204 183.468C155.631 183.799 155.253 184.156 155.068 184.54C154.883 184.924 154.878 185.306 155.054 185.684C155.239 186.058 155.59 186.394 156.107 186.692C156.541 186.943 157.031 187.124 157.576 187.236C158.121 187.348 158.698 187.372 159.308 187.308L159.543 188.02C158.786 188.127 158.033 188.108 157.285 187.964C156.546 187.815 155.867 187.562 155.248 187.204ZM163.211 191.802C162.49 191.386 162.001 190.922 161.742 190.41C161.502 189.898 161.497 189.388 161.728 188.882C161.969 188.37 162.449 187.906 163.169 187.49C163.899 187.068 164.703 186.791 165.58 186.658C166.458 186.524 167.336 186.53 168.213 186.674C169.1 186.823 169.904 187.106 170.624 187.522C171.243 187.879 171.682 188.271 171.941 188.698C172.199 189.124 172.232 189.559 172.038 190.002L170.804 189.866C170.924 189.508 170.887 189.172 170.693 188.858C170.499 188.543 170.185 188.26 169.751 188.01C169.234 187.711 168.647 187.511 167.991 187.41C167.345 187.303 166.689 187.303 166.024 187.41C165.359 187.516 164.74 187.735 164.167 188.066C163.594 188.396 163.216 188.754 163.031 189.138C162.846 189.522 162.842 189.903 163.017 190.282C163.202 190.655 163.553 190.991 164.07 191.29C164.504 191.54 164.994 191.722 165.539 191.834C166.084 191.946 166.661 191.97 167.271 191.906L167.506 192.618C166.749 192.724 165.996 192.706 165.248 192.562C164.509 192.412 163.83 192.159 163.211 191.802ZM168.317 194.67L175.591 190.47L176.575 191.038L170.797 194.374L181.439 193.846L182.312 194.35L175.037 198.55L174.053 197.982L179.845 194.638L169.204 195.182L168.317 194.67ZM178.134 200.337L185.408 196.137L186.392 196.705L180.614 200.041L191.256 199.513L192.129 200.017L184.854 204.217L183.87 203.649L189.662 200.305L179.021 200.849L178.134 200.337ZM193.725 209.435C194.325 209.782 194.958 210.04 195.623 210.211C196.298 210.387 196.94 210.464 197.549 210.443C198.168 210.416 198.695 210.278 199.129 210.027C199.683 209.707 199.886 209.318 199.739 208.859C199.6 208.406 199.115 207.939 198.284 207.459L197.979 207.587C198.45 207.859 198.944 208.059 199.461 208.187C199.979 208.315 200.482 208.366 200.972 208.339C201.461 208.312 201.886 208.195 202.247 207.987C202.653 207.752 202.861 207.472 202.87 207.147C202.889 206.816 202.741 206.47 202.427 206.107C202.122 205.75 201.669 205.408 201.069 205.083C200.644 204.838 200.159 204.627 199.614 204.451C199.087 204.275 198.501 204.128 197.854 204.011L197.369 204.611C197.942 204.718 198.468 204.856 198.949 205.027C199.438 205.192 199.868 205.376 200.237 205.579C200.635 205.808 200.944 206.04 201.166 206.275C201.387 206.51 201.494 206.731 201.484 206.939C201.484 207.152 201.355 207.334 201.096 207.483C200.856 207.622 200.57 207.696 200.237 207.707C199.914 207.723 199.568 207.678 199.198 207.571C198.829 207.464 198.464 207.307 198.104 207.099L196.926 206.419L196.205 206.835L197.452 207.555C198.062 207.907 198.431 208.248 198.561 208.579C198.699 208.904 198.575 209.179 198.187 209.403C197.919 209.558 197.586 209.643 197.189 209.659C196.792 209.675 196.367 209.622 195.914 209.499C195.462 209.376 195.004 209.187 194.542 208.931C194.09 208.67 193.697 208.368 193.365 208.027C193.041 207.68 192.833 207.331 192.741 206.979L191.688 207.219C191.78 207.624 192.011 208.019 192.381 208.403C192.75 208.787 193.198 209.131 193.725 209.435ZM204.05 215.3L205.658 214.372L205.879 214.196L208.568 212.644C209.186 212.287 209.487 211.911 209.468 211.516C209.459 211.127 209.113 210.735 208.429 210.34C207.958 210.068 207.431 209.855 206.849 209.7C206.267 209.546 205.699 209.458 205.145 209.436L205.436 208.756C206.12 208.788 206.803 208.906 207.487 209.108C208.18 209.306 208.812 209.57 209.385 209.9C210.327 210.444 210.817 210.999 210.854 211.564C210.909 212.13 210.461 212.687 209.51 213.236L204.993 215.844L204.05 215.3ZM201.473 213.892C200.928 213.578 200.54 213.252 200.309 212.916C200.097 212.58 200.041 212.26 200.143 211.956C200.254 211.647 200.517 211.372 200.933 211.132C201.311 210.914 201.741 210.767 202.221 210.692C202.72 210.618 203.265 210.644 203.856 210.772C204.466 210.9 205.117 211.164 205.81 211.564L208.318 213.012L207.584 213.436L205.103 212.004C204.401 211.599 203.787 211.388 203.261 211.372C202.743 211.362 202.3 211.463 201.93 211.676C201.515 211.916 201.344 212.202 201.418 212.532C201.492 212.863 201.82 213.196 202.401 213.532C202.956 213.852 203.556 214.055 204.203 214.14C204.868 214.226 205.533 214.183 206.198 214.012L205.741 214.532C205.076 214.703 204.369 214.738 203.621 214.636C202.882 214.54 202.166 214.292 201.473 213.892ZM207.889 217.516L215.163 213.316L218.378 215.172C219.2 215.647 219.69 216.111 219.847 216.564C220.013 217.023 219.791 217.428 219.182 217.78C218.59 218.122 217.907 218.255 217.131 218.18C216.364 218.1 215.611 217.847 214.872 217.42L215.357 217.364C216.226 217.866 216.701 218.327 216.785 218.748C216.868 219.17 216.604 219.556 215.995 219.908C215.367 220.271 214.646 220.42 213.833 220.356C213.039 220.292 212.161 219.983 211.2 219.428L207.889 217.516ZM209.621 217.62L211.935 218.956C212.554 219.314 213.117 219.527 213.625 219.596C214.152 219.666 214.637 219.572 215.08 219.316C215.524 219.06 215.704 218.791 215.621 218.508C215.537 218.226 215.186 217.906 214.568 217.548L212.156 216.156L209.621 217.62ZM212.891 215.732L215.08 216.996C215.644 217.322 216.179 217.508 216.688 217.556C217.205 217.61 217.667 217.519 218.073 217.284C218.48 217.05 218.632 216.786 218.53 216.492C218.438 216.204 218.11 215.898 217.547 215.572L215.357 214.308L212.891 215.732ZM219.644 224.384C218.887 223.946 218.379 223.472 218.12 222.96C217.871 222.442 217.862 221.93 218.093 221.424C218.333 220.912 218.813 220.448 219.534 220.032C220.254 219.616 221.044 219.336 221.903 219.192C222.771 219.053 223.631 219.048 224.48 219.176C225.349 219.304 226.12 219.562 226.794 219.952C227.478 220.346 227.926 220.786 228.138 221.272C228.369 221.757 228.356 222.25 228.097 222.752C227.847 223.248 227.358 223.706 226.628 224.128C226.582 224.154 226.526 224.181 226.462 224.208C226.416 224.234 226.365 224.264 226.309 224.296L219.977 220.64L220.711 220.216L226.517 223.568L225.838 223.512C226.365 223.208 226.716 222.872 226.891 222.504C227.085 222.136 227.104 221.773 226.947 221.416C226.79 221.058 226.457 220.733 225.949 220.44C225.45 220.152 224.887 219.96 224.259 219.864C223.631 219.768 222.998 219.776 222.36 219.888C221.723 220 221.136 220.21 220.601 220.52L220.448 220.608C219.894 220.928 219.524 221.28 219.34 221.664C219.173 222.048 219.187 222.434 219.381 222.824C219.594 223.213 219.982 223.57 220.545 223.896C220.989 224.152 221.478 224.344 222.014 224.472C222.559 224.605 223.132 224.658 223.732 224.632L223.649 225.32C222.938 225.357 222.236 225.293 221.543 225.128C220.859 224.968 220.226 224.72 219.644 224.384ZM229.125 229.857C228.496 229.494 228.071 229.084 227.85 228.625C227.637 228.161 227.651 227.684 227.891 227.193C228.15 226.702 228.677 226.228 229.471 225.769C230.265 225.31 231.083 225.009 231.924 224.865C232.773 224.716 233.596 224.705 234.39 224.833C235.184 224.961 235.9 225.209 236.538 225.577C237.231 225.977 237.692 226.425 237.923 226.921C238.173 227.417 238.173 227.918 237.923 228.425C237.683 228.926 237.198 229.388 236.468 229.809C235.729 230.236 234.926 230.518 234.057 230.657C233.189 230.796 232.321 230.796 231.452 230.657C230.593 230.524 229.817 230.257 229.125 229.857ZM222.751 229.201L232.713 223.449L233.656 223.993L231.466 225.257L229.914 226.041L228.584 226.969L223.734 229.769L222.751 229.201ZM229.928 229.313C230.446 229.612 231.023 229.812 231.66 229.913C232.307 230.009 232.963 230.004 233.628 229.897C234.302 229.785 234.921 229.566 235.485 229.241C236.048 228.916 236.422 228.561 236.607 228.177C236.792 227.793 236.801 227.414 236.635 227.041C236.468 226.668 236.127 226.332 235.609 226.033C235.092 225.734 234.505 225.534 233.85 225.433C233.203 225.337 232.547 225.342 231.882 225.449C231.226 225.561 230.616 225.78 230.053 226.105C229.489 226.43 229.106 226.785 228.903 227.169C228.718 227.553 228.709 227.932 228.875 228.305C229.06 228.678 229.411 229.014 229.928 229.313ZM240.855 235.557L240.37 235.581L247.048 231.725L248.032 232.293L241.353 236.149L241.353 235.845L245.413 238.189L244.887 238.189L251.566 234.333L252.549 234.901L245.275 239.101L235.215 233.293L242.49 229.093L243.473 229.661L236.795 233.517L236.809 233.221L240.855 235.557ZM251.396 242.715C250.638 242.278 250.13 241.803 249.871 241.291C249.622 240.774 249.613 240.262 249.844 239.755C250.084 239.243 250.564 238.779 251.285 238.363C252.005 237.947 252.795 237.667 253.654 237.523C254.523 237.385 255.382 237.379 256.232 237.507C257.1 237.635 257.871 237.894 258.546 238.283C259.229 238.678 259.677 239.118 259.89 239.603C260.121 240.089 260.107 240.582 259.848 241.083C259.599 241.579 259.109 242.038 258.379 242.459C258.333 242.486 258.278 242.513 258.213 242.539C258.167 242.566 258.116 242.595 258.061 242.627L251.728 238.971L252.463 238.547L258.268 241.899L257.589 241.843C258.116 241.539 258.467 241.203 258.643 240.835C258.837 240.467 258.855 240.105 258.698 239.747C258.541 239.39 258.208 239.065 257.7 238.771C257.202 238.483 256.638 238.291 256.01 238.195C255.382 238.099 254.749 238.107 254.112 238.219C253.474 238.331 252.888 238.542 252.352 238.851L252.199 238.939C251.645 239.259 251.276 239.611 251.091 239.995C250.925 240.379 250.938 240.766 251.132 241.155C251.345 241.545 251.733 241.902 252.296 242.227C252.74 242.483 253.229 242.675 253.765 242.803C254.31 242.937 254.883 242.99 255.483 242.963L255.4 243.651C254.689 243.689 253.987 243.625 253.294 243.459C252.61 243.299 251.978 243.051 251.396 242.715ZM257.19 245.98L264.465 241.78L265.448 242.348L262.234 244.204L266.82 246.852L270.035 244.996L271.019 245.564L263.744 249.764L262.76 249.196L265.975 247.34L261.388 244.692L258.174 246.548L257.19 245.98ZM273.912 255.635L281.187 251.435L282.17 252.003L274.896 256.203L273.912 255.635ZM274.591 250.587C275.496 251.12 275.99 251.64 276.074 252.147C276.157 252.654 275.824 253.123 275.076 253.555C274.3 254.003 273.445 254.198 272.512 254.139C271.579 254.08 270.637 253.771 269.686 253.211L266.817 251.539L274.092 247.339L275.076 247.907L272.54 249.371L274.591 250.587ZM270.365 252.739C271.039 253.139 271.686 253.358 272.305 253.395C272.942 253.432 273.533 253.294 274.078 252.979C274.623 252.664 274.85 252.336 274.757 251.995C274.674 251.648 274.291 251.272 273.607 250.867L271.806 249.795L268.563 251.667L270.365 252.739Z" fill="#3B3B3B"></path>
                        <path d="M217.525 134.584L218.537 135.168L208.837 140.768L207.826 140.184L217.525 134.584ZM201.756 136.68L200.731 136.088L210.431 130.488L211.456 131.08L201.756 136.68ZM212.398 137.656L206.121 134.032L207.022 133.512L213.299 137.136L212.398 137.656ZM215.076 144.451C214.374 144.045 213.899 143.589 213.649 143.083C213.418 142.576 213.418 142.069 213.649 141.563C213.889 141.051 214.37 140.587 215.09 140.171C215.82 139.749 216.624 139.472 217.501 139.339C218.379 139.205 219.252 139.208 220.12 139.347C220.988 139.485 221.778 139.76 222.49 140.171C223.21 140.587 223.69 141.045 223.931 141.547C224.18 142.053 224.185 142.557 223.945 143.059C223.714 143.565 223.233 144.029 222.503 144.451C221.783 144.867 220.979 145.144 220.092 145.283C219.224 145.421 218.347 145.421 217.46 145.283C216.582 145.139 215.788 144.861 215.076 144.451ZM215.949 143.947C216.476 144.251 217.058 144.453 217.695 144.555C218.342 144.651 218.993 144.643 219.649 144.531C220.323 144.419 220.942 144.2 221.506 143.875C222.079 143.544 222.457 143.187 222.642 142.803C222.836 142.424 222.845 142.051 222.67 141.683C222.503 141.309 222.162 140.973 221.644 140.675C221.127 140.376 220.545 140.179 219.898 140.083C219.261 139.981 218.61 139.984 217.945 140.091C217.28 140.197 216.661 140.416 216.088 140.747C215.524 141.072 215.146 141.429 214.952 141.819C214.767 142.203 214.758 142.581 214.924 142.955C215.1 143.323 215.441 143.653 215.949 143.947ZM221.239 147.929L228.514 143.729L231.728 145.585C232.55 146.059 233.04 146.523 233.197 146.977C233.363 147.435 233.142 147.841 232.532 148.193C231.941 148.534 231.257 148.667 230.481 148.593C229.714 148.513 228.962 148.259 228.223 147.833L228.708 147.777C229.576 148.278 230.052 148.739 230.135 149.161C230.218 149.582 229.955 149.969 229.345 150.321C228.717 150.683 227.996 150.833 227.183 150.769C226.389 150.705 225.511 150.395 224.551 149.841L221.239 147.929ZM222.971 148.033L225.285 149.369C225.904 149.726 226.467 149.939 226.976 150.009C227.502 150.078 227.987 149.985 228.43 149.729C228.874 149.473 229.054 149.203 228.971 148.921C228.888 148.638 228.537 148.318 227.918 147.961L225.507 146.569L222.971 148.033ZM226.241 146.145L228.43 147.409C228.994 147.734 229.53 147.921 230.038 147.969C230.555 148.022 231.017 147.931 231.423 147.697C231.83 147.462 231.982 147.198 231.881 146.905C231.788 146.617 231.46 146.31 230.897 145.985L228.708 144.721L226.241 146.145ZM237.041 157.052L244.315 152.852L245.299 153.42L238.025 157.62L237.041 157.052ZM237.72 152.004C238.625 152.537 239.119 153.057 239.202 153.564C239.286 154.07 238.953 154.54 238.205 154.972C237.429 155.42 236.574 155.614 235.641 155.556C234.708 155.497 233.766 155.188 232.815 154.628L229.946 152.956L237.221 148.756L238.205 149.324L235.669 150.788L237.72 152.004ZM233.494 154.156C234.168 154.556 234.815 154.774 235.433 154.812C236.071 154.849 236.662 154.71 237.207 154.396C237.752 154.081 237.978 153.753 237.886 153.412C237.803 153.065 237.42 152.689 236.736 152.284L234.935 151.212L231.692 153.084L233.494 154.156ZM241.103 159.397L248.377 155.197L249.361 155.765L243.583 159.101L254.225 158.573L255.098 159.077L247.823 163.277L246.839 162.709L252.631 159.365L241.99 159.909L241.103 159.397ZM252.728 156.493C252.119 156.141 251.777 155.768 251.703 155.373C251.648 154.978 251.902 154.608 252.465 154.261L253.172 154.669C252.812 154.888 252.65 155.13 252.687 155.397C252.724 155.664 252.941 155.912 253.338 156.141C253.735 156.37 254.165 156.496 254.627 156.517C255.098 156.544 255.523 156.453 255.902 156.245L256.608 156.653C256.017 156.984 255.375 157.13 254.682 157.093C253.999 157.05 253.347 156.85 252.728 156.493ZM260.158 170.399L260.768 166.591L262.07 166.783L261.322 171.071L260.158 170.399ZM254.823 167.319L262.098 163.119L263.082 163.687L255.807 167.887L254.823 167.319ZM258.745 165.839L259.59 165.351L261.932 166.703L261.087 167.191L258.745 165.839ZM261.599 167.151L260.823 166.543L267.322 166.135L268.389 166.751L261.599 167.151ZM260.1 173.549C259.758 173.351 259.485 173.13 259.282 172.885C259.088 172.645 258.991 172.397 258.991 172.141L260.183 171.981C260.192 172.189 260.257 172.381 260.377 172.557C260.497 172.743 260.691 172.914 260.959 173.069C261.282 173.255 261.652 173.362 262.067 173.389C262.483 173.426 263.023 173.375 263.688 173.237L265.227 172.893L265.49 172.869L275.231 170.701L276.201 171.261L264.409 173.861C263.735 174.015 263.134 174.101 262.608 174.117C262.09 174.138 261.633 174.098 261.236 173.997C260.829 173.901 260.451 173.751 260.1 173.549ZM264.589 173.197L268.718 166.941L269.744 167.533L266.03 173.101L264.589 173.197ZM274.422 178.714C273.794 178.351 273.369 177.94 273.147 177.482C272.935 177.018 272.949 176.54 273.189 176.05C273.447 175.559 273.974 175.084 274.768 174.626C275.563 174.167 276.38 173.866 277.221 173.722C278.071 173.572 278.893 173.562 279.687 173.69C280.482 173.818 281.198 174.066 281.835 174.434C282.528 174.834 282.99 175.282 283.221 175.778C283.47 176.274 283.47 176.775 283.221 177.282C282.981 177.783 282.496 178.244 281.766 178.666C281.027 179.092 280.223 179.375 279.355 179.514C278.486 179.652 277.618 179.652 276.75 179.514C275.891 179.38 275.115 179.114 274.422 178.714ZM268.048 178.058L278.011 172.306L278.953 172.85L276.764 174.114L275.212 174.898L273.882 175.826L269.032 178.626L268.048 178.058ZM275.226 178.17C275.743 178.468 276.32 178.668 276.958 178.77C277.604 178.866 278.26 178.86 278.925 178.754C279.6 178.642 280.218 178.423 280.782 178.098C281.345 177.772 281.72 177.418 281.904 177.034C282.089 176.65 282.098 176.271 281.932 175.898C281.766 175.524 281.424 175.188 280.907 174.89C280.389 174.591 279.803 174.391 279.147 174.29C278.5 174.194 277.844 174.199 277.179 174.306C276.523 174.418 275.914 174.636 275.35 174.962C274.787 175.287 274.403 175.642 274.2 176.026C274.015 176.41 274.006 176.788 274.172 177.162C274.357 177.535 274.708 177.871 275.226 178.17ZM283.492 183.95C282.771 183.534 282.281 183.07 282.023 182.558C281.783 182.046 281.778 181.537 282.009 181.03C282.249 180.518 282.729 180.054 283.45 179.638C284.18 179.217 284.983 178.939 285.861 178.806C286.739 178.673 287.616 178.678 288.494 178.822C289.381 178.971 290.184 179.254 290.905 179.67C291.524 180.027 291.962 180.419 292.221 180.846C292.48 181.273 292.512 181.707 292.318 182.15L291.085 182.014C291.205 181.657 291.168 181.321 290.974 181.006C290.78 180.691 290.466 180.409 290.032 180.158C289.514 179.859 288.928 179.659 288.272 179.558C287.625 179.451 286.97 179.451 286.304 179.558C285.639 179.665 285.02 179.883 284.448 180.214C283.875 180.545 283.496 180.902 283.311 181.286C283.127 181.67 283.122 182.051 283.298 182.43C283.482 182.803 283.833 183.139 284.351 183.438C284.785 183.689 285.274 183.87 285.819 183.982C286.364 184.094 286.942 184.118 287.551 184.054L287.787 184.766C287.03 184.873 286.277 184.854 285.528 184.71C284.789 184.561 284.11 184.307 283.492 183.95Z" fill="#3B3B3B"></path>
                        <path d="M228.642 119.554L231.807 117.727L251.521 118.021C253.17 118.049 254.504 118.007 255.522 117.895C256.541 117.783 257.365 117.615 257.995 117.391C258.674 117.167 259.244 116.922 259.705 116.656C260.869 115.984 261.366 115.235 261.196 114.409C261.051 113.569 260.202 112.701 258.65 111.805C257.414 111.091 256.068 110.566 254.613 110.23C253.182 109.908 251.654 109.796 250.03 109.894L249.266 106.513C251.594 106.317 253.958 106.492 256.359 107.038C258.808 107.584 261.075 108.459 263.16 109.663C265.003 110.727 266.301 111.826 267.052 112.96C267.853 114.094 268.071 115.186 267.707 116.236C267.368 117.3 266.446 118.266 264.943 119.134C264.118 119.61 263.185 120.023 262.142 120.373C261.124 120.709 259.863 120.961 258.359 121.129C256.856 121.297 254.964 121.367 252.685 121.339L235.735 121.087L236.535 119.491L251.412 128.08L247.411 130.39L228.642 119.554Z" fill="#3B3B3B"></path>
                    </g>
                </g>
                <defs>
                    <filter id="filter0_d_12055_1057" x="-11.7802" y="-6.44768" width="632.121" height="429.288" filterUnits="userSpaceOnUse" color-interpolation-filters="sRGB">
                        <feFlood flood-opacity="0" result="BackgroundImageFix"></feFlood>
                        <feColorMatrix in="SourceAlpha" type="matrix" values="0 0 0 0 0 0 0 0 0 0 0 0 0 0 0 0 0 0 127 0" result="hardAlpha"></feColorMatrix>
                        <feOffset dy="4.75666"></feOffset>
                        <feGaussianBlur stdDeviation="38.0532"></feGaussianBlur>
                        <feComposite in2="hardAlpha" operator="out"></feComposite>
                        <feColorMatrix type="matrix" values="0 0 0 0 0 0 0 0 0 0 0 0 0 0 0 0 0 0 0.15 0"></feColorMatrix>
                        <feBlend mode="normal" in2="BackgroundImageFix" result="effect1_dropShadow_12055_1057"></feBlend>
                        <feBlend mode="normal" in="SourceGraphic" in2="effect1_dropShadow_12055_1057" result="shape"></feBlend>
                    </filter>
                    <filter id="filter1_d_12055_1057" x="409.961" y="188.813" width="69.9213" height="61.5512" filterUnits="userSpaceOnUse" color-interpolation-filters="sRGB">
                        <feFlood flood-opacity="0" result="BackgroundImageFix"></feFlood>
                        <feColorMatrix in="SourceAlpha" type="matrix" values="0 0 0 0 0 0 0 0 0 0 0 0 0 0 0 0 0 0 127 0" result="hardAlpha"></feColorMatrix>
                        <feOffset dy="3.23339"></feOffset>
                        <feGaussianBlur stdDeviation="12.5294"></feGaussianBlur>
                        <feComposite in2="hardAlpha" operator="out"></feComposite>
                        <feColorMatrix type="matrix" values="0 0 0 0 0 0 0 0 0 0 0 0 0 0 0 0 0 0 0.25 0"></feColorMatrix>
                        <feBlend mode="normal" in2="BackgroundImageFix" result="effect1_dropShadow_12055_1057"></feBlend>
                        <feBlend mode="normal" in="SourceGraphic" in2="effect1_dropShadow_12055_1057" result="shape"></feBlend>
                    </filter>
                    <filter id="filter2_d_12055_1057" x="414.913" y="191.671" width="60.0194" height="55.8344" filterUnits="userSpaceOnUse" color-interpolation-filters="sRGB">
                        <feFlood flood-opacity="0" result="BackgroundImageFix"></feFlood>
                        <feColorMatrix in="SourceAlpha" type="matrix" values="0 0 0 0 0 0 0 0 0 0 0 0 0 0 0 0 0 0 127 0" result="hardAlpha"></feColorMatrix>
                        <feOffset dy="3.23339"></feOffset>
                        <feGaussianBlur stdDeviation="12.5294"></feGaussianBlur>
                        <feComposite in2="hardAlpha" operator="out"></feComposite>
                        <feColorMatrix type="matrix" values="0 0 0 0 0 0 0 0 0 0 0 0 0 0 0 0 0 0 0.25 0"></feColorMatrix>
                        <feBlend mode="normal" in2="BackgroundImageFix" result="effect1_dropShadow_12055_1057"></feBlend>
                        <feBlend mode="normal" in="SourceGraphic" in2="effect1_dropShadow_12055_1057" result="shape"></feBlend>
                    </filter>
                    <clipPath id="clip0_12055_1057">
                        <rect width="334.155" height="219.995" rx="23.7833" transform="matrix(0.866025 0.5 -0.866025 0.5 254.848 64.9022)" fill="white"></rect>
                    </clipPath>
                </defs>
            </svg>