<svg width="100" height="100" viewBox="0 0 100 100" fill="none" xmlns="http://www.w3.org/2000/svg">
<ellipse cx="37.5643" cy="82.1571" rx="6.91891" ry="6.89945" fill="#22C9B1"/>
<path d="M61.2745 54.745C61.2745 53.2814 61.7243 52.1955 62.6239 51.4872C63.5235 50.779 64.5178 50.4249 65.6068 50.4249C66.6958 50.4249 67.6901 50.779 68.5897 51.4872C69.4893 52.1955 69.9391 53.2814 69.9391 54.745V76.4872C71.6437 76.4872 73.2535 76.2275 74.7686 75.7082C76.2837 75.1888 77.7041 74.4806 79.0299 73.5835C80.3556 72.6865 81.5866 71.6241 82.723 70.3966C83.8593 69.169 84.8773 67.847 85.7769 66.4306C86.203 65.7696 86.7002 65.2974 87.2683 65.0141C87.8838 64.6836 88.523 64.5184 89.1859 64.5184C89.8961 64.5184 90.5827 64.6836 91.2455 65.0141C91.9084 65.3446 92.4292 65.7932 92.808 66.3598C93.1868 66.9263 93.3998 67.5873 93.4472 68.3428C93.4945 69.0982 93.2578 69.9244 92.737 70.8215C90.9851 73.7488 88.7361 76.2984 85.99 78.4702C83.2911 80.6421 80.3793 82.2002 77.2543 83.1444C78.5801 85.6468 80.5687 87.7006 83.2201 89.3059C85.9189 90.9112 89.3753 91.7138 93.5892 91.7138C94.9149 91.7138 95.9329 92.1388 96.6431 92.9886C97.3534 93.8385 97.7085 94.7828 97.7085 95.8215C97.7085 96.8602 97.3534 97.8045 96.6431 98.6543C95.9803 99.5042 94.9623 99.9291 93.5892 99.9291C93.6839 99.9291 93.3762 99.9527 92.666 99.9999C91.9557 99.9999 90.9614 99.9291 89.6831 99.7875C88.452 99.6458 87.0079 99.3862 85.3508 99.0084C83.6936 98.5835 81.9654 97.9461 80.1662 97.0963C78.367 96.2464 76.5678 95.1369 74.7686 93.7677C73.0167 92.3512 71.4069 90.5807 69.9391 88.456V95.609C69.9391 97.0254 69.4657 98.1114 68.5187 98.8668C67.6191 99.575 66.6248 99.9291 65.5358 99.9291C64.4468 99.9291 63.4525 99.575 62.5529 98.8668C61.7007 98.1586 61.2745 97.0727 61.2745 95.609V54.745Z" fill="#21A038"/>
<path d="M3.64103 53.2578C2.74143 53.966 2.29163 55.0047 2.29163 56.3739L2.29174 84.4192C2.29174 86.4022 2.64685 88.3144 3.35706 90.1558C4.11462 91.9971 5.17994 93.6496 6.55302 95.1133C7.97345 96.5769 9.7253 97.7573 11.8086 98.6543C13.8919 99.5042 16.2829 99.9291 18.9817 99.9291C20.4022 99.9291 21.4438 99.5042 22.1067 98.6543C22.8169 97.7573 23.172 96.7894 23.172 95.7507C23.172 94.6647 22.8169 93.6732 22.1067 92.7762C21.4438 91.8791 20.4022 91.4305 18.9817 91.4305C16.567 91.4305 14.7915 90.982 13.6551 90.0849C12.5188 89.1879 11.7376 88.0547 11.3114 86.6855C10.9327 85.3163 10.7669 83.8054 10.8143 82.1529C10.909 80.4532 10.9562 73.5835 10.9562 72.0255H15.1465C16.5669 72.0255 17.6086 71.6005 18.2714 70.7507C18.9816 69.8536 19.3367 68.8857 19.3367 67.847C19.3367 66.7611 18.9816 65.7696 18.2714 64.8725C17.5612 63.9754 16.5196 63.5269 15.1465 63.5269H10.9562V56.3739C10.9562 54.9575 10.5064 53.9188 9.60682 53.2578C8.75456 52.5496 7.78394 52.1955 6.69495 52.1955C5.60595 52.1955 4.58798 52.5496 3.64103 53.2578Z" fill="#21A038"/>
<path d="M27.5708 67.702C27.5708 65.3877 29.4345 63.528 31.7553 63.5276L37.8303 63.5269C40.5291 63.5269 43.0385 64.0226 45.3586 65.0141C47.6786 65.9584 49.6909 67.2804 51.3954 68.9801C53.1472 70.6799 54.5203 72.6629 55.5146 74.9292C56.5089 77.1954 57.0061 79.627 57.0061 82.2238C57.0061 82.245 57.0061 90.3217 57.0061 95.5578C57.0061 97.9777 55.0505 99.9291 52.6306 99.9291V99.9291C50.1889 99.9291 48.1994 97.9439 48.1994 95.5022C48.1995 90.2648 48.1994 82.245 48.1994 82.2238C48.1994 80.4296 47.8206 78.8007 47.0631 77.3371C46.3055 75.8262 45.1455 74.575 43.583 73.5835C42.0679 72.5448 40.1503 72.0255 37.8303 72.0255L31.9093 72.0265C29.5283 72.0271 27.5708 70.0763 27.5708 67.702Z" fill="#21A038"/>
<path d="M61.2745 4.32011C61.2745 2.85646 61.7243 1.77053 62.6239 1.06232C63.5235 0.354106 64.5178 0 65.6068 0C66.6958 0 67.6901 0.354106 68.5897 1.06232C69.4893 1.77053 69.9391 2.85646 69.9391 4.32011V26.0623C71.6437 26.0623 73.2535 25.8026 74.7686 25.2833C76.2837 24.7639 77.7041 24.0557 79.0299 23.1586C80.3556 22.2615 81.5866 21.1992 82.723 19.9717C83.8593 18.7441 84.8773 17.4221 85.7769 16.0057C86.203 15.3447 86.7002 14.8725 87.2683 14.5892C87.8838 14.2587 88.523 14.0935 89.1859 14.0935C89.8961 14.0935 90.5827 14.2587 91.2455 14.5892C91.9084 14.9197 92.4292 15.3683 92.808 15.9348C93.1868 16.5014 93.3998 17.1624 93.4472 17.9178C93.4945 18.6733 93.2578 19.4995 92.737 20.3966C90.9851 23.3239 88.7361 25.8734 85.99 28.0453C83.2911 30.2172 80.3793 31.7752 77.2543 32.7195C78.5801 35.2219 80.5687 37.2757 83.2201 38.881C85.9189 40.4863 89.3753 41.2889 93.5892 41.2889C94.9149 41.2889 95.9329 41.7138 96.6431 42.5637C97.3534 43.4136 97.7085 44.3578 97.7085 45.3966C97.7085 46.4353 97.3534 47.3796 96.6431 48.2294C95.9803 49.0793 94.9623 49.5042 93.5892 49.5042C93.6839 49.5042 93.3762 49.5278 92.666 49.575C91.9557 49.575 90.9614 49.5042 89.6831 49.3626C88.452 49.2209 87.0079 48.9612 85.3508 48.5835C83.6936 48.1586 81.9654 47.5212 80.1662 46.6713C78.367 45.8215 76.5678 44.712 74.7686 43.3427C73.0167 41.9263 71.4069 40.1558 69.9391 38.0311V45.1841C69.9391 46.6005 69.4657 47.6865 68.5187 48.4419C67.6191 49.1501 66.6248 49.5042 65.5358 49.5042C64.4468 49.5042 63.4525 49.1501 62.5529 48.4419C61.7007 47.7337 61.2745 46.6477 61.2745 45.1841V4.32011Z" fill="#21A038"/>
<path d="M3.64103 2.83287C2.74143 3.54108 2.29163 4.57979 2.29163 5.94901L2.29174 33.9943C2.29174 35.9773 2.64685 37.8895 3.35706 39.7308C4.11462 41.5722 5.17994 43.2247 6.55302 44.6883C7.97345 46.152 9.7253 47.3323 11.8086 48.2294C13.8919 49.0793 16.2829 49.5042 18.9817 49.5042C20.4022 49.5042 21.4438 49.0793 22.1067 48.2294C22.8169 47.3323 23.172 46.3645 23.172 45.3257C23.172 44.2398 22.8169 43.2483 22.1067 42.3512C21.4438 41.4542 20.4022 41.0056 18.9817 41.0056C16.567 41.0056 14.7915 40.5571 13.6551 39.66C12.5188 38.763 11.7376 37.6298 11.3114 36.2606C10.9327 34.8914 10.7669 33.3805 10.8143 31.728C10.909 30.0283 10.9562 23.1586 10.9562 21.6005H15.1465C16.5669 21.6005 17.6086 21.1756 18.2714 20.3258C18.9816 19.4287 19.3367 18.4608 19.3367 17.4221C19.3367 16.3362 18.9816 15.3447 18.2714 14.4476C17.5612 13.5505 16.5196 13.102 15.1465 13.102H10.9562V5.94901C10.9562 4.53258 10.5064 3.49387 9.60682 2.83287C8.75456 2.12465 7.78394 1.77054 6.69495 1.77054C5.60595 1.77054 4.58798 2.12465 3.64103 2.83287Z" fill="#21A038"/>
<path d="M31.7437 13.1027C29.4293 13.1031 27.5708 14.9629 27.5708 17.2772V17.2772C27.5708 19.6515 29.5226 21.6022 31.8969 21.6016C34.6732 21.6009 37.7715 21.6005 37.8303 21.6005C40.1503 21.6005 42.0679 22.1199 43.583 23.1586C45.1455 24.1501 46.3055 25.4013 47.0631 26.9122C47.8206 28.3758 48.1994 30.0047 48.1994 31.7988C48.1994 33.5458 47.8206 35.1747 47.0631 36.6855C46.3055 38.1492 45.1455 39.4003 43.583 40.4391C42.0679 41.4306 40.1503 41.9263 37.8303 41.9263C37.7715 41.9263 34.6702 41.926 31.8929 41.9254C29.5195 41.9248 27.5708 43.8726 27.5708 46.2459V46.2459C27.5708 48.5623 29.431 50.4238 31.7474 50.4242C34.5609 50.4246 37.7708 50.4249 37.8303 50.4249C40.5291 50.4249 43.0385 49.9291 45.3586 48.9376C47.7259 47.9461 49.7619 46.6005 51.4664 44.9008C53.2182 43.2011 54.5677 41.2417 55.5146 39.0226C56.5089 36.7563 57.0061 34.3484 57.0061 31.7988C57.0061 29.2021 56.5089 26.7705 55.5146 24.5042C54.5203 22.2379 53.1472 20.2549 51.3954 18.5552C49.6909 16.8555 47.6786 15.5335 45.3586 14.5892C43.0385 13.5977 40.5291 13.102 37.8303 13.102C37.7707 13.102 34.5581 13.1022 31.7437 13.1027Z" fill="#21A038"/>
<ellipse cx="37.7177" cy="31.7319" rx="7.68238" ry="7.66076" fill="#22C9B1"/>
</svg>
