<svg width="170" height="44" viewBox="0 0 170 44" fill="none" xmlns="http://www.w3.org/2000/svg">
<path d="M50.6008 3.76966C50.6008 2.49251 50.9866 1.54494 51.7584 0.926964C52.5302 0.308987 53.3832 0 54.3174 0C55.2516 0 56.1046 0.308987 56.8764 0.926964C57.6481 1.54494 58.034 2.49251 58.034 3.76966V22.7416C59.4963 22.7416 60.8773 22.515 62.1771 22.0618C63.477 21.6086 64.6955 20.9906 65.8328 20.2079C66.9702 19.4251 68.0263 18.4981 69.0011 17.427C69.976 16.3558 70.8493 15.2022 71.621 13.9663C71.9866 13.3895 72.4131 12.9775 72.9005 12.7303C73.4286 12.4419 73.9769 12.2978 74.5456 12.2978C75.1549 12.2978 75.7439 12.4419 76.3125 12.7303C76.8812 13.0187 77.328 13.4101 77.6529 13.9045C77.9779 14.3989 78.1607 14.9757 78.2013 15.6348C78.2419 16.294 78.0388 17.015 77.592 17.7978C76.0891 20.3521 74.1597 22.5768 71.8038 24.4719C69.4886 26.367 66.9905 27.7266 64.3096 28.5506C65.447 30.7341 67.153 32.5262 69.4276 33.927C71.7429 35.3277 74.7081 36.0281 78.3232 36.0281C79.4605 36.0281 80.3338 36.3989 80.9431 37.1405C81.5524 37.882 81.857 38.706 81.857 39.6124C81.857 40.5187 81.5524 41.3427 80.9431 42.0843C80.3744 42.8258 79.5011 43.1966 78.3232 43.1966C78.4044 43.1966 78.1404 43.2172 77.5311 43.2584C76.9218 43.2584 76.0688 43.1966 74.9721 43.073C73.916 42.9494 72.6771 42.7228 71.2555 42.3933C69.8338 42.0225 68.3512 41.4663 66.8077 40.7247C65.2642 39.9831 63.7207 39.015 62.1771 37.8202C60.6742 36.5843 59.2932 35.0393 58.034 33.1854V39.427C58.034 40.6629 57.6278 41.6105 56.8154 42.2697C56.0437 42.8876 55.1907 43.1966 54.2565 43.1966C53.3222 43.1966 52.4692 42.8876 51.6975 42.2697C50.9663 41.6517 50.6008 40.7041 50.6008 39.427V3.76966Z" fill="#21A038"/>
<path d="M1.15764 2.47192C0.38588 3.08989 0 3.99626 0 5.19101L0.000100329 29.6629C0.000100329 31.3933 0.304742 33.0618 0.914025 34.6685C1.56393 36.2753 2.47785 37.7172 3.6558 38.9944C4.87437 40.2715 6.37727 41.3015 8.1645 42.0843C9.95173 42.8258 12.003 43.1966 14.3183 43.1966C15.5368 43.1966 16.4304 42.8258 16.9991 42.0843C17.6084 41.3015 17.913 40.4569 17.913 39.5506C17.913 38.603 17.6084 37.7378 16.9991 36.9551C16.4304 36.1723 15.5368 35.7809 14.3183 35.7809C12.2467 35.7809 10.7235 35.3895 9.74863 34.6067C8.77378 33.824 8.10357 32.8352 7.738 31.6404C7.41305 30.4457 7.27088 29.1273 7.3115 27.6854C7.39274 26.2022 7.43326 20.2079 7.43326 18.8483H11.028C12.2466 18.8483 13.1402 18.4775 13.7089 17.736C14.3182 16.9532 14.6228 16.1086 14.6228 15.2023C14.6228 14.2547 14.3182 13.3895 13.7089 12.6067C13.0996 11.824 12.206 11.4326 11.028 11.4326H7.43326V5.19101C7.43326 3.95506 7.04738 3.0487 6.27562 2.47192C5.54448 1.85394 4.71179 1.54495 3.77756 1.54495C2.84332 1.54495 1.97002 1.85394 1.15764 2.47192Z" fill="#21A038"/>
<path d="M25.3265 11.4332C23.3075 11.4336 21.6867 13.0557 21.6867 15.0747C21.6867 17.1468 23.3905 18.8497 25.4627 18.8492C27.8276 18.8486 30.4383 18.8483 30.4882 18.8483C32.4786 18.8483 34.1236 19.3015 35.4234 20.2079C36.7638 21.073 37.759 22.1648 38.4089 23.4831C39.0588 24.7603 39.3838 26.1817 39.3838 27.7472C39.3838 29.2715 39.0588 30.6929 38.4089 32.0112C37.759 33.2884 36.7638 34.3801 35.4234 35.2865C34.1236 36.1517 32.4786 36.5843 30.4882 36.5843C30.4382 36.5843 27.825 36.584 25.4591 36.5835C23.3878 36.583 21.6867 38.2832 21.6867 40.3546C21.6867 42.3754 23.309 43.999 25.3298 43.9994C27.7289 43.9998 30.4376 44 30.4882 44C32.8035 44 34.9563 43.5674 36.9466 42.7022C38.9776 41.8371 40.7242 40.6629 42.1865 39.1798C43.6894 37.6966 44.847 35.9869 45.6594 34.0506C46.5124 32.073 46.9389 29.9719 46.9389 27.7472C46.9389 25.4813 46.5124 23.3596 45.6594 21.382C44.8064 19.4045 43.6284 17.6742 42.1255 16.191C40.6632 14.7079 38.937 13.5543 36.9466 12.7303C34.9563 11.8652 32.8035 11.4326 30.4882 11.4326C30.4375 11.4326 27.7264 11.4328 25.3265 11.4332Z" fill="#21A038"/>
<path d="M138.744 3.76966C138.744 2.49251 139.13 1.54494 139.901 0.926964C140.673 0.308987 141.526 0 142.46 0C143.395 0 144.248 0.308987 145.019 0.926964C145.791 1.54494 146.177 2.49251 146.177 3.76966V22.7416C147.639 22.7416 149.02 22.515 150.32 22.0618C151.62 21.6086 152.839 20.9906 153.976 20.2079C155.113 19.4251 156.169 18.4981 157.144 17.427C158.119 16.3558 158.992 15.2022 159.764 13.9663C160.13 13.3895 160.556 12.9775 161.044 12.7303C161.572 12.4419 162.12 12.2978 162.689 12.2978C163.298 12.2978 163.887 12.4419 164.456 12.7303C165.024 13.0187 165.471 13.4101 165.796 13.9045C166.121 14.3989 166.304 14.9757 166.344 15.6348C166.385 16.294 166.182 17.015 165.735 17.7978C164.232 20.3521 162.303 22.5768 159.947 24.4719C157.632 26.367 155.134 27.7266 152.453 28.5506C153.59 30.7341 155.296 32.5262 157.571 33.927C159.886 35.3277 162.851 36.0281 166.466 36.0281C167.604 36.0281 168.477 36.3989 169.086 37.1404C169.695 37.882 170 38.706 170 39.6124C170 40.5187 169.695 41.3427 169.086 42.0843C168.517 42.8258 167.644 43.1966 166.466 43.1966C166.547 43.1966 166.283 43.2172 165.674 43.2584C165.065 43.2584 164.212 43.1966 163.115 43.073C162.059 42.9494 160.82 42.7228 159.399 42.3933C157.977 42.0225 156.494 41.4663 154.951 40.7247C153.407 39.9831 151.864 39.015 150.32 37.8202C148.817 36.5843 147.436 35.0393 146.177 33.1854V39.427C146.177 40.6629 145.771 41.6105 144.959 42.2697C144.187 42.8876 143.334 43.1966 142.4 43.1966C141.465 43.1966 140.612 42.8876 139.841 42.2697C139.109 41.6517 138.744 40.7041 138.744 39.427V3.76966Z" fill="#21A038"/>
<path d="M89.3007 2.47192C88.5289 3.08989 88.1431 3.99626 88.1431 5.19101L88.1432 29.6629C88.1432 31.3933 88.4478 33.0618 89.0571 34.6685C89.707 36.2753 90.6209 37.7172 91.7989 38.9944C93.0174 40.2715 94.5203 41.3015 96.3076 42.0843C98.0948 42.8258 100.146 43.1966 102.461 43.1966C103.68 43.1966 104.574 42.8258 105.142 42.0843C105.751 41.3015 106.056 40.4569 106.056 39.5506C106.056 38.603 105.751 37.7378 105.142 36.9551C104.574 36.1723 103.68 35.7809 102.461 35.7809C100.39 35.7809 98.8666 35.3895 97.8917 34.6067C96.9168 33.824 96.2466 32.8352 95.8811 31.6404C95.5561 30.4457 95.4139 29.1273 95.4546 27.6854C95.5358 26.2022 95.5763 20.2079 95.5763 18.8483H99.1711C100.39 18.8483 101.283 18.4775 101.852 17.736C102.461 16.9532 102.766 16.1086 102.766 15.2023C102.766 14.2547 102.461 13.3895 101.852 12.6067C101.243 11.824 100.349 11.4326 99.1711 11.4326H95.5763V5.19101C95.5763 3.95506 95.1904 3.0487 94.4187 2.47192C93.6875 1.85394 92.8549 1.54495 91.9206 1.54495C90.9864 1.54495 90.1131 1.85394 89.3007 2.47192Z" fill="#21A038"/>
<path d="M109.83 15.0757C109.83 13.0563 111.429 11.4336 113.42 11.4332L118.631 11.4326C120.947 11.4326 123.099 11.8652 125.09 12.7303C127.08 13.5543 128.806 14.7079 130.269 16.191C131.771 17.6742 132.949 19.4045 133.802 21.382C134.655 23.3596 135.082 25.4813 135.082 27.7472C135.082 27.7658 135.082 34.8788 135.082 39.4456C135.082 41.5218 133.404 43.1966 131.328 43.1966C129.233 43.1966 127.527 41.4935 127.527 39.3989C127.527 34.8305 127.527 27.7658 127.527 27.7472C127.527 26.1816 127.202 24.7603 126.552 23.4831C125.902 22.1648 124.907 21.073 123.566 20.2079C122.267 19.3015 120.622 18.8483 118.631 18.8483L113.552 18.8492C111.509 18.8497 109.83 17.1475 109.83 15.0757Z" fill="#21A038"/>
<ellipse cx="30.4236" cy="27.6908" rx="5.93566" ry="6.02035" fill="#22C9B1"/>
<ellipse cx="118.435" cy="27.6908" rx="5.93566" ry="6.02035" fill="#22C9B1"/>
</svg>
