<svg class="main_screen_pic diagram" width="1053" height="662" viewBox="0 0 1053 662" fill="none" xmlns="http://www.w3.org/2000/svg" style="">
                <g filter="url(#filter0_d_12055_1020)">
                    <g clip-path="url(#clip0_12055_1020)">
                        <path width="710" height="387" transform="matrix(0.866025 0.5 -0.866025 0.5 386.906 51.8986)" fill="white" d="M 23,0 L 687,0 A 23,23,0,0,1,710,23 L 710,364 A 23,23,0,0,1,687,387 L 23,387 A 23,23,0,0,1,0,364 L 0,23 A 23,23,0,0,1,23,0" class="vPPWcXJV_0"></path>
                        <path d="M380.294 109.099L391.31 102.739L385.615 99.4514L382.934 100.879C381.923 101.415 380.939 101.911 379.983 102.367C379.054 102.823 378.154 103.207 377.281 103.519C376.422 103.839 375.618 104.055 374.87 104.167C374.121 104.279 373.47 104.263 372.916 104.119L370.422 102.199C370.921 102.519 371.53 102.663 372.251 102.631C372.985 102.607 373.796 102.451 374.683 102.163C375.569 101.875 376.526 101.491 377.551 101.011C378.59 100.523 379.678 99.9754 380.814 99.3674L385.595 96.7994L396.257 102.955L382.955 110.635L380.294 109.099ZM364.54 105.019L369.944 101.923L386.093 111.247L380.71 114.355L378.216 112.915L381.313 111.127L370.152 104.683L367.055 106.471L364.54 105.019ZM391.074 116.931C389.938 116.275 389.169 115.551 388.767 114.759C388.379 113.959 388.358 113.163 388.705 112.371C389.051 111.579 389.772 110.867 390.866 110.235C391.975 109.595 393.208 109.179 394.566 108.987C395.938 108.787 397.31 108.803 398.681 109.035C400.053 109.267 401.307 109.711 402.443 110.367C403.593 111.031 404.369 111.759 404.771 112.551C405.187 113.351 405.222 114.139 404.875 114.915C404.543 115.699 403.815 116.415 402.693 117.063C401.598 117.695 400.365 118.111 398.993 118.311C397.635 118.519 396.256 118.507 394.857 118.275C393.485 118.043 392.224 117.595 391.074 116.931ZM393.298 115.647C393.936 116.015 394.642 116.263 395.418 116.391C396.194 116.519 396.984 116.511 397.788 116.367C398.605 116.231 399.367 115.959 400.074 115.551C400.794 115.135 401.266 114.695 401.487 114.231C401.737 113.767 401.751 113.311 401.529 112.863C401.307 112.415 400.885 112.011 400.261 111.651C399.624 111.283 398.917 111.035 398.141 110.907C397.379 110.787 396.589 110.795 395.772 110.931C394.968 111.059 394.206 111.331 393.485 111.747C392.779 112.155 392.307 112.595 392.072 113.067C391.836 113.539 391.822 113.995 392.03 114.435C392.252 114.883 392.675 115.287 393.298 115.647ZM398.118 120.83L409.363 119.978L407.929 120.758L409.404 114.53L412.293 116.198L411.192 120.602L410.09 119.966L417.739 119.342L420.545 120.962L409.716 121.79L411.129 120.998L409.633 127.478L406.702 125.786L407.908 121.13L408.843 121.838L400.986 122.486L398.118 120.83ZM416.344 131.52C415.207 130.864 414.438 130.14 414.037 129.348C413.649 128.548 413.628 127.752 413.974 126.96C414.321 126.168 415.041 125.456 416.136 124.824C417.244 124.184 418.478 123.768 419.836 123.576C421.207 123.376 422.579 123.392 423.951 123.624C425.323 123.856 426.577 124.3 427.713 124.956C428.863 125.62 429.639 126.348 430.041 127.14C430.456 127.94 430.491 128.728 430.145 129.504C429.812 130.288 429.085 131.004 427.962 131.652C426.868 132.284 425.634 132.7 424.263 132.9C422.905 133.108 421.526 133.096 420.127 132.864C418.755 132.632 417.494 132.184 416.344 131.52ZM418.568 130.236C419.205 130.604 419.912 130.852 420.688 130.98C421.464 131.108 422.253 131.1 423.057 130.956C423.875 130.82 424.637 130.548 425.343 130.14C426.064 129.724 426.535 129.284 426.757 128.82C427.006 128.356 427.02 127.9 426.798 127.452C426.577 127.004 426.154 126.6 425.531 126.24C424.893 125.872 424.186 125.624 423.41 125.496C422.648 125.376 421.859 125.384 421.041 125.52C420.237 125.648 419.475 125.92 418.755 126.336C418.048 126.744 417.577 127.184 417.341 127.656C417.106 128.128 417.092 128.584 417.3 129.024C417.522 129.472 417.944 129.876 418.568 130.236ZM434.086 140.204L441.776 135.764L437.515 133.304L435.666 134.3C435.001 134.652 434.342 134.984 433.691 135.296C433.054 135.6 432.423 135.86 431.8 136.076C431.19 136.284 430.608 136.412 430.054 136.46C429.5 136.508 428.98 136.448 428.495 136.28L426.313 134.564C426.728 134.804 427.192 134.92 427.705 134.912C428.246 134.904 428.821 134.804 429.43 134.612C430.068 134.42 430.726 134.168 431.405 133.856C432.098 133.536 432.79 133.192 433.483 132.824L437.432 130.712L446.578 135.992L436.684 141.704L434.086 140.204ZM421.241 137.036L425.918 134.336L439.324 142.076L434.647 144.776L432.215 143.372L434.689 141.944L426.125 137L423.652 138.428L421.241 137.036Z" fill="#3B3B3B" class="vPPWcXJV_1"></path>
                        <path d="M615.469 249.549C614.739 249.127 614.185 248.669 613.806 248.173C613.437 247.671 613.247 247.162 613.238 246.645C613.229 246.127 613.395 245.621 613.737 245.125C614.088 244.634 614.619 244.183 615.331 243.773C616.042 243.362 616.822 243.055 617.672 242.853C618.531 242.655 619.409 242.559 620.305 242.565C621.21 242.575 622.092 242.69 622.952 242.909C623.82 243.122 624.619 243.439 625.349 243.861C626.051 244.266 626.591 244.717 626.97 245.213C627.358 245.703 627.529 246.207 627.483 246.725L626.18 246.725C626.189 246.261 626.042 245.839 625.737 245.461C625.441 245.077 625.016 244.725 624.462 244.405C623.88 244.069 623.238 243.815 622.536 243.645C621.843 243.469 621.127 243.381 620.388 243.381C619.658 243.375 618.942 243.453 618.24 243.613C617.557 243.773 616.924 244.021 616.342 244.357C615.76 244.693 615.326 245.061 615.04 245.461C614.772 245.861 614.638 246.274 614.638 246.701C614.647 247.122 614.799 247.535 615.095 247.941C615.4 248.341 615.843 248.709 616.425 249.045C616.979 249.365 617.589 249.61 618.254 249.781C618.919 249.951 619.654 250.034 620.457 250.029L620.457 250.781C619.561 250.807 618.684 250.711 617.825 250.493C616.966 250.274 616.18 249.959 615.469 249.549ZM624.958 255.011C624.33 254.649 623.905 254.238 623.683 253.779C623.471 253.315 623.485 252.838 623.725 252.347C623.984 251.857 624.51 251.382 625.305 250.923C626.099 250.465 626.917 250.163 627.757 250.019C628.607 249.87 629.429 249.859 630.224 249.987C631.018 250.115 631.734 250.363 632.371 250.731C633.064 251.131 633.526 251.579 633.757 252.075C634.006 252.571 634.006 253.073 633.757 253.579C633.517 254.081 633.032 254.542 632.302 254.963C631.563 255.39 630.759 255.673 629.891 255.811C629.023 255.95 628.154 255.95 627.286 255.811C626.427 255.678 625.651 255.411 624.958 255.011ZM618.584 254.355L628.547 248.603L629.489 249.147L627.3 250.411L625.748 251.195L624.418 252.123L619.568 254.923L618.584 254.355ZM625.762 254.467C626.279 254.766 626.857 254.966 627.494 255.067C628.141 255.163 628.796 255.158 629.462 255.051C630.136 254.939 630.755 254.721 631.318 254.395C631.882 254.07 632.256 253.715 632.441 253.331C632.625 252.947 632.635 252.569 632.468 252.195C632.302 251.822 631.96 251.486 631.443 251.187C630.926 250.889 630.339 250.689 629.683 250.587C629.037 250.491 628.381 250.497 627.716 250.603C627.06 250.715 626.45 250.934 625.887 251.259C625.323 251.585 624.94 251.939 624.737 252.323C624.552 252.707 624.543 253.086 624.709 253.459C624.894 253.833 625.245 254.169 625.762 254.467ZM635.525 261.032L637.133 260.104L637.354 259.928L640.043 258.376C640.661 258.019 640.962 257.643 640.943 257.248C640.934 256.859 640.588 256.467 639.904 256.072C639.433 255.8 638.906 255.587 638.324 255.432C637.742 255.277 637.174 255.189 636.62 255.168L636.911 254.488C637.595 254.52 638.278 254.637 638.962 254.84C639.655 255.037 640.287 255.301 640.86 255.632C641.802 256.176 642.292 256.731 642.329 257.296C642.384 257.861 641.936 258.419 640.985 258.968L636.468 261.576L635.525 261.032ZM632.948 259.624C632.403 259.309 632.015 258.984 631.784 258.648C631.572 258.312 631.516 257.992 631.618 257.688C631.729 257.379 631.992 257.104 632.408 256.864C632.786 256.645 633.216 256.499 633.696 256.424C634.195 256.349 634.74 256.376 635.331 256.504C635.941 256.632 636.592 256.896 637.285 257.296L639.793 258.744L639.059 259.168L636.578 257.736C635.876 257.331 635.262 257.12 634.736 257.104C634.218 257.093 633.775 257.195 633.405 257.408C632.99 257.648 632.819 257.933 632.893 258.264C632.967 258.595 633.294 258.928 633.876 259.264C634.431 259.584 635.031 259.787 635.678 259.872C636.343 259.957 637.008 259.915 637.673 259.744L637.216 260.264C636.551 260.435 635.844 260.469 635.096 260.368C634.357 260.272 633.641 260.024 632.948 259.624ZM639.364 263.248L646.638 259.048L649.853 260.904C650.675 261.379 651.165 261.843 651.322 262.296C651.488 262.755 651.266 263.16 650.657 263.512C650.065 263.854 649.382 263.987 648.606 263.912C647.839 263.832 647.086 263.579 646.347 263.152L646.832 263.096C647.701 263.598 648.176 264.059 648.26 264.48C648.343 264.902 648.079 265.288 647.47 265.64C646.842 266.003 646.121 266.152 645.308 266.088C644.514 266.024 643.636 265.715 642.675 265.16L639.364 263.248ZM641.096 263.352L643.41 264.688C644.029 265.046 644.592 265.259 645.1 265.328C645.627 265.398 646.112 265.304 646.555 265.048C646.999 264.792 647.179 264.523 647.096 264.24C647.012 263.958 646.661 263.638 646.042 263.28L643.631 261.888L641.096 263.352ZM644.366 261.464L646.555 262.728C647.119 263.054 647.654 263.24 648.163 263.288C648.68 263.342 649.142 263.251 649.548 263.016C649.955 262.782 650.107 262.518 650.005 262.224C649.913 261.936 649.585 261.63 649.022 261.304L646.832 260.04L644.366 261.464ZM648.071 268.275L655.346 264.075L656.329 264.643L653.115 266.499L657.701 269.147L660.916 267.291L661.9 267.859L654.625 272.059L653.641 271.491L656.856 269.635L652.27 266.987L649.055 268.843L648.071 268.275ZM660.747 275.674C659.989 275.236 659.481 274.762 659.223 274.25C658.973 273.732 658.964 273.22 659.195 272.714C659.435 272.202 659.916 271.738 660.636 271.322C661.357 270.906 662.146 270.626 663.006 270.482C663.874 270.343 664.733 270.338 665.583 270.466C666.451 270.594 667.223 270.852 667.897 271.242C668.58 271.636 669.028 272.076 669.241 272.562C669.472 273.047 669.458 273.54 669.199 274.042C668.95 274.538 668.46 274.996 667.731 275.418C667.684 275.444 667.629 275.471 667.564 275.498C667.518 275.524 667.467 275.554 667.412 275.586L661.079 271.93L661.814 271.506L667.62 274.858L666.941 274.802C667.467 274.498 667.818 274.162 667.994 273.794C668.188 273.426 668.206 273.063 668.049 272.706C667.892 272.348 667.56 272.023 667.052 271.73C666.553 271.442 665.989 271.25 665.361 271.154C664.733 271.058 664.1 271.066 663.463 271.178C662.825 271.29 662.239 271.5 661.703 271.81L661.551 271.898C660.996 272.218 660.627 272.57 660.442 272.954C660.276 273.338 660.29 273.724 660.484 274.114C660.696 274.503 661.084 274.86 661.648 275.186C662.091 275.442 662.581 275.634 663.116 275.762C663.661 275.895 664.234 275.948 664.835 275.922L664.751 276.61C664.04 276.647 663.338 276.583 662.645 276.418C661.962 276.258 661.329 276.01 660.747 275.674ZM666.541 278.939L673.816 274.739L674.8 275.307L671.585 277.163L676.171 279.811L679.386 277.955L680.37 278.523L673.095 282.723L672.111 282.155L675.326 280.299L670.74 277.651L667.525 279.507L666.541 278.939ZM676.169 284.498L683.443 280.298L684.427 280.866L678.649 284.202L689.291 283.674L690.164 284.178L682.889 288.378L681.905 287.81L687.697 284.466L677.055 285.01L676.169 284.498ZM689.034 292.005C688.277 291.568 687.768 291.093 687.51 290.581C687.26 290.064 687.251 289.552 687.482 289.045C687.722 288.533 688.203 288.069 688.923 287.653C689.644 287.237 690.434 286.957 691.293 286.813C692.161 286.675 693.02 286.669 693.87 286.797C694.738 286.925 695.51 287.184 696.184 287.573C696.868 287.968 697.316 288.408 697.528 288.893C697.759 289.379 697.745 289.872 697.486 290.373C697.237 290.869 696.747 291.328 696.018 291.749C695.971 291.776 695.916 291.803 695.851 291.829C695.805 291.856 695.754 291.885 695.699 291.917L689.367 288.261L690.101 287.837L695.907 291.189L695.228 291.133C695.754 290.829 696.105 290.493 696.281 290.125C696.475 289.757 696.493 289.395 696.336 289.037C696.179 288.68 695.847 288.355 695.339 288.061C694.84 287.773 694.276 287.581 693.648 287.485C693.02 287.389 692.387 287.397 691.75 287.509C691.112 287.621 690.526 287.832 689.99 288.141L689.838 288.229C689.283 288.549 688.914 288.901 688.729 289.285C688.563 289.669 688.577 290.056 688.771 290.445C688.983 290.835 689.371 291.192 689.935 291.517C690.378 291.773 690.868 291.965 691.403 292.093C691.948 292.227 692.521 292.28 693.122 292.253L693.039 292.941C692.327 292.979 691.625 292.915 690.932 292.749C690.249 292.589 689.616 292.341 689.034 292.005ZM700.118 298.324L706.796 294.468L706.782 294.764L703.776 293.028L704.635 292.532L711.133 296.284L710.274 296.78L707.267 295.044L707.78 295.036L701.101 298.892L700.118 298.324ZM708.268 303.11C707.511 302.673 707.003 302.198 706.744 301.686C706.495 301.169 706.486 300.657 706.717 300.15C706.957 299.638 707.437 299.174 708.158 298.758C708.878 298.342 709.668 298.062 710.527 297.918C711.395 297.78 712.254 297.774 713.104 297.902C713.973 298.03 714.744 298.289 715.418 298.678C716.102 299.073 716.55 299.513 716.762 299.998C716.993 300.484 716.98 300.977 716.721 301.478C716.471 301.974 715.982 302.433 715.252 302.854C715.206 302.881 715.15 302.908 715.086 302.934C715.04 302.961 714.989 302.99 714.933 303.022L708.601 299.366L709.335 298.942L715.141 302.294L714.462 302.238C714.989 301.934 715.34 301.598 715.515 301.23C715.709 300.862 715.728 300.5 715.571 300.142C715.414 299.785 715.081 299.46 714.573 299.166C714.074 298.878 713.511 298.686 712.883 298.59C712.254 298.494 711.622 298.502 710.984 298.614C710.347 298.726 709.76 298.937 709.225 299.246L709.072 299.334C708.518 299.654 708.148 300.006 707.964 300.39C707.797 300.774 707.811 301.161 708.005 301.55C708.218 301.94 708.606 302.297 709.169 302.622C709.613 302.878 710.102 303.07 710.638 303.198C711.183 303.332 711.756 303.385 712.356 303.358L712.273 304.046C711.562 304.084 710.86 304.02 710.167 303.854C709.483 303.694 708.85 303.446 708.268 303.11ZM719.397 309.456L720.007 305.648L721.31 305.84L720.561 310.128L719.397 309.456ZM714.063 306.376L721.337 302.176L722.321 302.744L715.047 306.944L714.063 306.376ZM717.984 304.896L718.829 304.408L721.171 305.76L720.326 306.248L717.984 304.896ZM720.838 306.208L720.063 305.6L726.561 305.192L727.628 305.808L720.838 306.208ZM719.339 312.606C718.997 312.409 718.725 312.187 718.521 311.942C718.327 311.702 718.23 311.454 718.23 311.198L719.422 311.038C719.431 311.246 719.496 311.438 719.616 311.614C719.736 311.801 719.93 311.971 720.198 312.126C720.521 312.313 720.891 312.419 721.307 312.446C721.722 312.483 722.263 312.433 722.928 312.294L724.466 311.95L724.729 311.926L734.47 309.758L735.44 310.318L723.648 312.918C722.974 313.073 722.374 313.158 721.847 313.174C721.33 313.195 720.872 313.155 720.475 313.054C720.069 312.958 719.69 312.809 719.339 312.606ZM723.828 312.254L727.958 305.998L728.983 306.59L725.27 312.158L723.828 312.254ZM735.615 317.827L735.13 317.851L741.809 313.995L742.793 314.563L736.114 318.419L736.114 318.115L740.174 320.459L739.647 320.459L746.326 316.603L747.31 317.171L740.035 321.371L729.975 315.563L737.25 311.363L738.234 311.931L731.555 315.787L731.569 315.491L735.615 317.827ZM738.636 322.403L740.492 321.331L740.479 321.627L738.996 320.771L739.855 320.275L742.017 321.523L739.564 322.939L738.636 322.403ZM746.156 324.985C745.399 324.547 744.89 324.073 744.632 323.561C744.382 323.043 744.373 322.531 744.604 322.025C744.844 321.513 745.325 321.049 746.045 320.633C746.766 320.217 747.555 319.937 748.415 319.793C749.283 319.654 750.142 319.649 750.992 319.777C751.86 319.905 752.632 320.163 753.306 320.553C753.989 320.947 754.438 321.387 754.65 321.873C754.881 322.358 754.867 322.851 754.608 323.353C754.359 323.849 753.869 324.307 753.14 324.729C753.093 324.755 753.038 324.782 752.973 324.809C752.927 324.835 752.876 324.865 752.821 324.897L746.489 321.241L747.223 320.817L753.029 324.169L752.35 324.113C752.876 323.809 753.227 323.473 753.403 323.105C753.597 322.737 753.615 322.374 753.458 322.017C753.301 321.659 752.969 321.334 752.461 321.041C751.962 320.753 751.398 320.561 750.77 320.465C750.142 320.369 749.509 320.377 748.872 320.489C748.234 320.601 747.648 320.811 747.112 321.121L746.96 321.209C746.405 321.529 746.036 321.881 745.851 322.265C745.685 322.649 745.699 323.035 745.893 323.425C746.105 323.814 746.493 324.171 747.057 324.497C747.5 324.753 747.99 324.945 748.525 325.073C749.07 325.206 749.643 325.259 750.244 325.233L750.16 325.921C749.449 325.958 748.747 325.894 748.054 325.729C747.371 325.569 746.738 325.321 746.156 324.985ZM751.95 328.25L759.225 324.05L760.209 324.618L754.431 327.954L765.072 327.426L765.945 327.93L758.671 332.13L757.687 331.562L763.479 328.218L752.837 328.762L751.95 328.25ZM763.576 325.346C762.966 324.994 762.624 324.621 762.55 324.226C762.495 323.831 762.749 323.461 763.312 323.114L764.019 323.522C763.659 323.741 763.497 323.983 763.534 324.25C763.571 324.517 763.788 324.765 764.185 324.994C764.583 325.223 765.012 325.349 765.474 325.37C765.945 325.397 766.37 325.306 766.749 325.098L767.456 325.506C766.864 325.837 766.222 325.983 765.53 325.946C764.846 325.903 764.195 325.703 763.576 325.346ZM765.671 336.172L772.945 331.972L773.929 332.54L768.151 335.876L778.793 335.348L779.666 335.852L772.391 340.052L771.407 339.484L777.199 336.14L766.558 336.684L765.671 336.172ZM779.391 344.093L786.666 339.893L793.206 343.669L785.932 347.869L784.948 347.301L791.627 343.445L791.613 343.741L786.541 340.813L787.054 340.805L780.375 344.661L779.391 344.093ZM792.691 351.852C792.063 351.489 791.638 351.078 791.416 350.62C791.204 350.156 791.218 349.678 791.458 349.188C791.717 348.697 792.243 348.222 793.038 347.764C793.832 347.305 794.649 347.004 795.49 346.86C796.34 346.71 797.162 346.7 797.957 346.828C798.751 346.956 799.467 347.204 800.104 347.572C800.797 347.972 801.259 348.42 801.49 348.916C801.739 349.412 801.739 349.913 801.49 350.42C801.25 350.921 800.765 351.382 800.035 351.804C799.296 352.23 798.492 352.513 797.624 352.652C796.756 352.79 795.887 352.79 795.019 352.652C794.16 352.518 793.384 352.252 792.691 351.852ZM786.317 351.196L796.28 345.444L797.222 345.988L795.033 347.252L793.481 348.036L792.151 348.964L787.301 351.764L786.317 351.196ZM793.495 351.308C794.012 351.606 794.589 351.806 795.227 351.908C795.873 352.004 796.529 351.998 797.194 351.892C797.869 351.78 798.488 351.561 799.051 351.236C799.615 350.91 799.989 350.556 800.174 350.172C800.358 349.788 800.368 349.409 800.201 349.036C800.035 348.662 799.693 348.326 799.176 348.028C798.659 347.729 798.072 347.529 797.416 347.428C796.77 347.332 796.114 347.337 795.449 347.444C794.793 347.556 794.183 347.774 793.619 348.1C793.056 348.425 792.673 348.78 792.469 349.164C792.285 349.548 792.275 349.926 792.442 350.3C792.626 350.673 792.977 351.009 793.495 351.308ZM801.705 357.056C801.003 356.651 800.528 356.195 800.278 355.688C800.047 355.182 800.047 354.675 800.278 354.168C800.518 353.656 800.999 353.192 801.719 352.776C802.449 352.355 803.253 352.078 804.13 351.944C805.008 351.811 805.881 351.814 806.749 351.952C807.617 352.091 808.407 352.366 809.119 352.776C809.839 353.192 810.319 353.651 810.56 354.152C810.809 354.659 810.814 355.163 810.573 355.664C810.343 356.171 809.862 356.635 809.132 357.056C808.412 357.472 807.608 357.75 806.721 357.888C805.853 358.027 804.975 358.027 804.089 357.888C803.211 357.744 802.417 357.467 801.705 357.056ZM802.578 356.552C803.105 356.856 803.687 357.059 804.324 357.16C804.971 357.256 805.622 357.248 806.278 357.136C806.952 357.024 807.571 356.806 808.135 356.48C808.707 356.15 809.086 355.792 809.271 355.408C809.465 355.03 809.474 354.656 809.299 354.288C809.132 353.915 808.791 353.579 808.273 353.28C807.756 352.982 807.174 352.784 806.527 352.688C805.89 352.587 805.239 352.59 804.574 352.696C803.909 352.803 803.29 353.022 802.717 353.352C802.153 353.678 801.775 354.035 801.581 354.424C801.396 354.808 801.387 355.187 801.553 355.56C801.728 355.928 802.07 356.259 802.578 356.552ZM813.507 362.798L813.022 362.822L819.701 358.966L820.685 359.534L814.006 363.39L814.006 363.086L818.066 365.43L817.54 365.43L824.218 361.574L825.202 362.142L817.928 366.342L807.868 360.534L815.142 356.334L816.126 356.902L809.448 360.758L809.461 360.462L813.507 362.798ZM819.684 367.34L820.598 366.892C820.654 366.935 820.7 366.977 820.737 367.02C820.792 367.063 820.843 367.097 820.889 367.124C821.185 367.295 821.531 367.367 821.928 367.34C822.335 367.319 822.769 367.228 823.231 367.068C823.693 366.908 824.173 366.705 824.672 366.46C825.18 366.209 825.684 365.956 826.182 365.7L828.898 364.276L834.233 367.356L826.958 371.556L825.975 370.988L832.681 367.116L832.639 367.428L828.677 365.14L829.217 365.1L827 366.252C826.344 366.599 825.693 366.916 825.046 367.204C824.409 367.497 823.799 367.727 823.217 367.892C822.644 368.063 822.109 368.148 821.61 368.148C821.12 368.143 820.681 368.028 820.293 367.804C820.183 367.74 820.076 367.668 819.975 367.588C819.882 367.513 819.785 367.431 819.684 367.34ZM832.956 375.099C832.254 374.693 831.778 374.237 831.529 373.731C831.298 373.224 831.298 372.717 831.529 372.211C831.769 371.699 832.249 371.235 832.97 370.819C833.699 370.397 834.503 370.12 835.381 369.987C836.258 369.853 837.131 369.856 838 369.995C838.868 370.133 839.658 370.408 840.369 370.819C841.09 371.235 841.57 371.693 841.81 372.195C842.06 372.701 842.064 373.205 841.824 373.707C841.593 374.213 841.113 374.677 840.383 375.099C839.662 375.515 838.859 375.792 837.972 375.931C837.104 376.069 836.226 376.069 835.339 375.931C834.462 375.787 833.667 375.509 832.956 375.099ZM833.829 374.595C834.355 374.899 834.937 375.101 835.575 375.203C836.221 375.299 836.873 375.291 837.528 375.179C838.203 375.067 838.822 374.848 839.385 374.523C839.958 374.192 840.337 373.835 840.521 373.451C840.715 373.072 840.725 372.699 840.549 372.331C840.383 371.957 840.041 371.621 839.524 371.323C839.007 371.024 838.425 370.827 837.778 370.731C837.141 370.629 836.489 370.632 835.824 370.739C835.159 370.845 834.54 371.064 833.967 371.395C833.404 371.72 833.025 372.077 832.831 372.467C832.646 372.851 832.637 373.229 832.803 373.603C832.979 373.971 833.321 374.301 833.829 374.595ZM839.118 378.577L846.393 374.377L847.377 374.945L841.599 378.281L852.24 377.753L853.113 378.257L845.839 382.457L844.855 381.889L850.647 378.545L840.005 379.089L839.118 378.577ZM850.744 375.673C850.134 375.321 849.792 374.947 849.719 374.553C849.663 374.158 849.917 373.787 850.481 373.441L851.187 373.849C850.827 374.067 850.665 374.31 850.702 374.577C850.739 374.843 850.956 375.091 851.354 375.321C851.751 375.55 852.18 375.675 852.642 375.697C853.113 375.723 853.538 375.633 853.917 375.425L854.624 375.833C854.033 376.163 853.391 376.31 852.698 376.273C852.014 376.23 851.363 376.03 850.744 375.673ZM852.839 386.498L860.114 382.298L861.097 382.866L857.883 384.722L862.469 387.37L865.684 385.514L866.668 386.082L859.393 390.282L858.409 389.714L861.624 387.858L857.037 385.21L853.823 387.066L852.839 386.498ZM865.515 393.897C864.757 393.459 864.249 392.985 863.991 392.473C863.741 391.955 863.732 391.443 863.963 390.937C864.203 390.425 864.683 389.961 865.404 389.545C866.125 389.129 866.914 388.849 867.773 388.705C868.642 388.566 869.501 388.561 870.351 388.689C871.219 388.817 871.99 389.075 872.665 389.465C873.348 389.859 873.796 390.299 874.009 390.785C874.24 391.27 874.226 391.763 873.967 392.265C873.718 392.761 873.228 393.219 872.498 393.641C872.452 393.667 872.397 393.694 872.332 393.721C872.286 393.747 872.235 393.777 872.18 393.809L865.847 390.153L866.582 389.729L872.388 393.081L871.709 393.025C872.235 392.721 872.586 392.385 872.762 392.017C872.956 391.649 872.974 391.286 872.817 390.929C872.66 390.571 872.328 390.246 871.82 389.953C871.321 389.665 870.757 389.473 870.129 389.377C869.501 389.281 868.868 389.289 868.231 389.401C867.593 389.513 867.007 389.723 866.471 390.033L866.319 390.121C865.764 390.441 865.395 390.793 865.21 391.177C865.044 391.561 865.058 391.947 865.252 392.337C865.464 392.726 865.852 393.083 866.416 393.409C866.859 393.665 867.349 393.857 867.884 393.985C868.429 394.118 869.002 394.171 869.602 394.145L869.519 394.833C868.808 394.87 868.106 394.806 867.413 394.641C866.73 394.481 866.097 394.233 865.515 393.897ZM876.62 399.684L882.564 396.252L879.058 394.228L877.354 395.116C876.846 395.388 876.333 395.647 875.816 395.892C875.308 396.143 874.804 396.353 874.306 396.524C873.825 396.695 873.373 396.801 872.948 396.844C872.532 396.881 872.167 396.831 871.853 396.692L871.049 396.02C871.327 396.191 871.664 396.268 872.061 396.252C872.467 396.231 872.911 396.14 873.391 395.98C873.872 395.82 874.375 395.615 874.901 395.364C875.437 395.108 875.973 394.841 876.509 394.564L879.031 393.22L884.407 396.324L877.603 400.252L876.62 399.684ZM868.126 397.356L870.745 395.844L879.128 400.684L876.509 402.196L875.58 401.66L877.34 400.644L870.814 396.876L869.054 397.892L868.126 397.356ZM883.511 404.287C882.754 403.85 882.246 403.375 881.987 402.863C881.738 402.346 881.729 401.834 881.959 401.327C882.2 400.815 882.68 400.351 883.401 399.935C884.121 399.519 884.911 399.239 885.77 399.095C886.638 398.956 887.497 398.951 888.347 399.079C889.216 399.207 889.987 399.466 890.661 399.855C891.345 400.25 891.793 400.69 892.005 401.175C892.236 401.66 892.222 402.154 891.964 402.655C891.714 403.151 891.225 403.61 890.495 404.031C890.449 404.058 890.393 404.084 890.329 404.111C890.283 404.138 890.232 404.167 890.176 404.199L883.844 400.543L884.578 400.119L890.384 403.471L889.705 403.415C890.232 403.111 890.583 402.775 890.758 402.407C890.952 402.039 890.971 401.676 890.814 401.319C890.657 400.962 890.324 400.636 889.816 400.343C889.317 400.055 888.754 399.863 888.126 399.767C887.497 399.671 886.865 399.679 886.227 399.791C885.59 399.903 885.003 400.114 884.468 400.423L884.315 400.511C883.761 400.831 883.391 401.183 883.207 401.567C883.04 401.951 883.054 402.338 883.248 402.727C883.461 403.116 883.849 403.474 884.412 403.799C884.855 404.055 885.345 404.247 885.881 404.375C886.426 404.508 886.999 404.562 887.599 404.535L887.516 405.223C886.805 405.26 886.103 405.196 885.41 405.031C884.726 404.871 884.093 404.623 883.511 404.287ZM887.84 406.69L888.755 406.242C888.81 406.285 888.857 406.328 888.894 406.37C888.949 406.413 889 406.448 889.046 406.474C889.342 406.645 889.688 406.717 890.085 406.69C890.492 406.669 890.926 406.578 891.388 406.418C891.85 406.258 892.33 406.056 892.829 405.81C893.337 405.56 893.84 405.306 894.339 405.05L897.055 403.626L902.39 406.706L895.115 410.906L894.131 410.338L900.838 406.466L900.796 406.778L896.833 404.49L897.374 404.45L895.157 405.602C894.501 405.949 893.85 406.266 893.203 406.554C892.565 406.848 891.956 407.077 891.374 407.242C890.801 407.413 890.265 407.498 889.766 407.498C889.277 407.493 888.838 407.378 888.45 407.154C888.339 407.09 888.233 407.018 888.131 406.938C888.039 406.864 887.942 406.781 887.84 406.69ZM898.189 412.681L905.464 408.481L906.447 409.049L900.669 412.385L911.311 411.857L912.184 412.361L904.909 416.561L903.925 415.993L909.717 412.649L899.076 413.193L898.189 412.681Z" fill="#3B3B3B" class="vPPWcXJV_2"></path>
                        <path d="M315.693 138.309C314.834 137.813 314.298 137.285 314.086 136.725C313.882 136.16 313.989 135.581 314.404 134.989C314.829 134.392 315.55 133.8 316.566 133.213C317.665 132.579 318.769 132.155 319.878 131.941C321.005 131.728 322.09 131.704 323.134 131.869C324.178 132.035 325.138 132.371 326.016 132.877C326.45 133.128 326.824 133.392 327.138 133.669C327.452 133.947 327.67 134.227 327.79 134.509L326.584 134.741C326.501 134.501 326.33 134.269 326.071 134.045C325.822 133.816 325.517 133.597 325.157 133.389C324.113 132.787 322.944 132.496 321.651 132.517C320.367 132.544 319.065 132.939 317.744 133.701C317.54 133.819 317.296 133.971 317.009 134.157C316.741 134.344 316.501 134.547 316.289 134.765L316.206 134.413C316.788 134.195 317.393 134.075 318.021 134.053C318.658 134.027 319.286 134.091 319.905 134.245C320.524 134.4 321.097 134.629 321.624 134.933C322.27 135.307 322.718 135.704 322.968 136.125C323.217 136.547 323.263 136.963 323.106 137.373C322.949 137.784 322.575 138.16 321.984 138.501C321.383 138.848 320.714 139.069 319.975 139.165C319.245 139.256 318.501 139.227 317.744 139.077C317.005 138.928 316.321 138.672 315.693 138.309ZM316.497 137.797C316.959 138.064 317.448 138.251 317.965 138.357C318.501 138.464 319.028 138.485 319.545 138.421C320.072 138.352 320.547 138.195 320.972 137.949C321.61 137.581 321.896 137.16 321.831 136.685C321.776 136.216 321.374 135.765 320.626 135.333C320.127 135.045 319.6 134.848 319.046 134.741C318.492 134.635 317.947 134.613 317.411 134.677C316.885 134.736 316.418 134.883 316.012 135.117C315.661 135.32 315.42 135.571 315.291 135.869C315.171 136.163 315.199 136.477 315.374 136.813C315.568 137.149 315.942 137.477 316.497 137.797ZM324.303 143.28C323.555 142.848 323.084 142.352 322.89 141.792C322.705 141.227 322.811 140.638 323.208 140.024C323.615 139.406 324.335 138.798 325.37 138.2C326.405 137.603 327.453 137.19 328.515 136.96C329.587 136.726 330.608 136.664 331.578 136.776C332.557 136.883 333.421 137.152 334.169 137.584C334.917 138.016 335.383 138.515 335.568 139.08C335.762 139.64 335.656 140.23 335.25 140.848C334.862 141.467 334.15 142.075 333.116 142.672C332.081 143.27 331.023 143.683 329.943 143.912C328.88 144.142 327.859 144.203 326.88 144.096C325.91 143.984 325.051 143.712 324.303 143.28ZM325.218 142.752C325.79 143.083 326.441 143.283 327.171 143.352C327.91 143.416 328.695 143.347 329.527 143.144C330.367 142.936 331.222 142.582 332.09 142.08C332.959 141.579 333.568 141.088 333.919 140.608C334.28 140.123 334.4 139.67 334.28 139.248C334.169 138.822 333.827 138.443 333.254 138.112C332.7 137.792 332.049 137.598 331.3 137.528C330.561 137.454 329.772 137.52 328.931 137.728C328.1 137.931 327.25 138.283 326.381 138.784C325.513 139.286 324.899 139.779 324.539 140.264C324.188 140.744 324.072 141.2 324.192 141.632C324.321 142.059 324.663 142.432 325.218 142.752ZM334.129 146.073L335.334 145.329L347.251 145.233L348.429 145.913L339.657 146.033L338.452 146.057L334.129 146.073ZM330.831 146.953L340.53 141.353L341.556 141.945L331.856 147.545L330.831 146.953ZM337.801 150.977L338.438 145.777L339.879 145.745L339.02 151.681L337.801 150.977Z" fill="#3B3B3B" class="vPPWcXJV_3"></path>
                        <path d="M368.89 164.007L863.216 447.028" stroke="#E8E8E8" stroke-width="2.37833" class="vPPWcXJV_4">
                        </path>
                        <path d="M263.72 163.531L264.44 163.115L276.01 162.371L277.119 163.011L265.59 163.779L265.216 163.371L273.017 167.875L272.131 168.387L263.72 163.531ZM266.643 168.163L269.193 166.691L270.108 166.195L272.352 164.899L273.322 165.459L267.641 168.739L266.643 168.163ZM274.557 172.829C273.809 172.397 273.338 171.901 273.144 171.341C272.959 170.775 273.065 170.186 273.463 169.573C273.869 168.954 274.59 168.346 275.624 167.749C276.659 167.151 277.707 166.738 278.77 166.509C279.841 166.274 280.862 166.213 281.832 166.325C282.811 166.431 283.675 166.701 284.423 167.133C285.171 167.565 285.638 168.063 285.823 168.629C286.017 169.189 285.91 169.778 285.504 170.397C285.116 171.015 284.405 171.623 283.37 172.221C282.335 172.818 281.278 173.231 280.197 173.461C279.135 173.69 278.114 173.751 277.135 173.645C276.165 173.533 275.306 173.261 274.557 172.829ZM275.472 172.301C276.045 172.631 276.696 172.831 277.426 172.901C278.165 172.965 278.95 172.895 279.781 172.693C280.622 172.485 281.476 172.13 282.345 171.629C283.213 171.127 283.823 170.637 284.174 170.157C284.534 169.671 284.654 169.218 284.534 168.797C284.423 168.37 284.081 167.991 283.509 167.661C282.954 167.341 282.303 167.146 281.555 167.077C280.816 167.002 280.026 167.069 279.185 167.277C278.354 167.479 277.504 167.831 276.636 168.333C275.767 168.834 275.153 169.327 274.793 169.813C274.442 170.293 274.326 170.749 274.446 171.181C274.576 171.607 274.918 171.981 275.472 172.301ZM284.383 175.621L285.588 174.877L297.505 174.781L298.683 175.461L289.912 175.581L288.706 175.605L284.383 175.621ZM281.085 176.501L290.785 170.901L291.81 171.493L282.111 177.093L281.085 176.501ZM288.055 180.525L288.692 175.325L290.133 175.293L289.274 181.229L288.055 180.525Z" fill="#3B3B3B" class="vPPWcXJV_5"></path>
                        <path d="M318.428 193.142L812.754 476.163" stroke="#E8E8E8" stroke-width="2.37833" class="vPPWcXJV_6">
                        </path>
                        <path d="M210.694 194.13L211.401 193.722L219.382 193.77C220.112 193.775 220.703 193.754 221.156 193.706C221.618 193.653 222.001 193.575 222.306 193.474C222.611 193.373 222.869 193.261 223.082 193.138C223.645 192.813 223.895 192.445 223.83 192.034C223.775 191.629 223.373 191.21 222.625 190.778C222.052 190.447 221.456 190.205 220.837 190.05C220.227 189.901 219.581 189.842 218.897 189.874L218.8 189.114C219.622 189.077 220.449 189.159 221.281 189.362C222.112 189.565 222.893 189.877 223.622 190.298C224.278 190.677 224.74 191.066 225.008 191.466C225.285 191.861 225.354 192.247 225.216 192.626C225.086 193.01 224.754 193.357 224.218 193.666C223.904 193.847 223.548 193.999 223.151 194.122C222.763 194.25 222.283 194.346 221.71 194.41C221.156 194.474 220.449 194.503 219.59 194.498L212.26 194.458L212.371 194.074L218.385 197.546L217.498 198.058L210.694 194.13ZM222.783 201.205C222.034 200.773 221.563 200.277 221.369 199.717C221.185 199.152 221.291 198.562 221.688 197.949C222.094 197.33 222.815 196.722 223.85 196.125C224.884 195.528 225.933 195.114 226.995 194.885C228.067 194.65 229.087 194.589 230.057 194.701C231.036 194.808 231.9 195.077 232.648 195.509C233.397 195.941 233.863 196.44 234.048 197.005C234.242 197.565 234.136 198.154 233.729 198.773C233.341 199.392 232.63 200 231.595 200.597C230.561 201.194 229.503 201.608 228.422 201.837C227.36 202.066 226.339 202.128 225.36 202.021C224.39 201.909 223.531 201.637 222.783 201.205ZM223.697 200.677C224.27 201.008 224.921 201.208 225.651 201.277C226.39 201.341 227.175 201.272 228.007 201.069C228.847 200.861 229.702 200.506 230.57 200.005C231.438 199.504 232.048 199.013 232.399 198.533C232.759 198.048 232.879 197.594 232.759 197.173C232.648 196.746 232.307 196.368 231.734 196.037C231.18 195.717 230.528 195.522 229.78 195.453C229.041 195.378 228.251 195.445 227.411 195.653C226.579 195.856 225.729 196.208 224.861 196.709C223.993 197.21 223.378 197.704 223.018 198.189C222.667 198.669 222.552 199.125 222.672 199.557C222.801 199.984 223.143 200.357 223.697 200.677ZM232.608 203.998L233.814 203.254L245.73 203.158L246.908 203.838L238.137 203.958L236.932 203.982L232.608 203.998ZM229.311 204.878L239.01 199.278L240.035 199.87L230.336 205.47L229.311 204.878ZM236.28 208.902L236.918 203.702L238.359 203.67L237.5 209.606L236.28 208.902Z" fill="#3B3B3B" class="vPPWcXJV_7"></path>
                        <path d="M267.966 222.277L762.292 505.298" stroke="#E8E8E8" stroke-width="2.37833" class="vPPWcXJV_8">
                        </path>
                        <path d="M175.795 276.346C175.065 275.924 174.506 275.463 174.118 274.962C173.749 274.46 173.555 273.948 173.536 273.426C173.536 272.903 173.703 272.396 174.035 271.906C174.386 271.415 174.917 270.964 175.629 270.554C176.34 270.143 177.116 269.839 177.957 269.642C178.816 269.444 179.693 269.348 180.589 269.354C181.504 269.359 182.391 269.471 183.25 269.69C184.118 269.903 184.922 270.223 185.661 270.65C186.391 271.071 186.94 271.532 187.31 272.034C187.688 272.53 187.882 273.036 187.892 273.554C187.91 274.076 187.744 274.583 187.393 275.074C187.051 275.57 186.524 276.023 185.813 276.434C185.102 276.844 184.317 277.148 183.458 277.346C182.608 277.548 181.73 277.644 180.825 277.634C179.929 277.628 179.047 277.519 178.178 277.306C177.319 277.087 176.525 276.767 175.795 276.346ZM176.71 275.818C177.292 276.154 177.924 276.407 178.608 276.578C179.31 276.748 180.021 276.834 180.742 276.834C181.481 276.834 182.192 276.754 182.876 276.594C183.568 276.428 184.206 276.178 184.788 275.842C185.37 275.506 185.799 275.14 186.076 274.746C186.363 274.346 186.501 273.935 186.492 273.514C186.501 273.092 186.354 272.682 186.049 272.282C185.762 271.882 185.328 271.514 184.746 271.178C184.164 270.842 183.522 270.588 182.82 270.418C182.127 270.242 181.411 270.154 180.672 270.154C179.952 270.154 179.241 270.234 178.539 270.394C177.855 270.554 177.222 270.802 176.64 271.138C176.068 271.468 175.638 271.834 175.352 272.234C175.074 272.639 174.931 273.052 174.922 273.474C174.931 273.895 175.084 274.308 175.379 274.714C175.684 275.114 176.128 275.482 176.71 275.818ZM188.787 283.75L189.396 279.942L190.699 280.134L189.951 284.422L188.787 283.75ZM183.452 280.67L190.726 276.47L191.71 277.038L184.436 281.238L183.452 280.67ZM187.373 279.19L188.218 278.702L190.56 280.054L189.715 280.542L187.373 279.19ZM190.228 280.502L189.452 279.894L195.95 279.486L197.017 280.102L190.228 280.502ZM193.017 286.193L199.696 282.337L199.682 282.633L196.675 280.897L197.534 280.401L204.033 284.153L203.174 284.649L200.167 282.913L200.68 282.905L194.001 286.761L193.017 286.193ZM203.373 292.172L212.657 286.812L212.629 287.34L209.899 285.764L210.786 285.252L214.07 287.148L204.371 292.748L203.373 292.172ZM210.749 296.527C210.001 296.095 209.53 295.599 209.336 295.039C209.151 294.473 209.257 293.884 209.655 293.271C210.061 292.652 210.782 292.044 211.816 291.447C212.851 290.849 213.899 290.436 214.962 290.207C216.033 289.972 217.054 289.911 218.024 290.023C219.003 290.129 219.867 290.399 220.615 290.831C221.363 291.263 221.83 291.761 222.014 292.327C222.208 292.887 222.102 293.476 221.696 294.095C221.308 294.713 220.596 295.321 219.562 295.919C218.527 296.516 217.47 296.929 216.389 297.159C215.326 297.388 214.306 297.449 213.326 297.343C212.357 297.231 211.497 296.959 210.749 296.527ZM211.664 295.999C212.236 296.329 212.888 296.529 213.617 296.599C214.356 296.663 215.142 296.593 215.973 296.391C216.814 296.183 217.668 295.828 218.537 295.327C219.405 294.825 220.015 294.335 220.366 293.855C220.726 293.369 220.846 292.916 220.726 292.495C220.615 292.068 220.273 291.689 219.7 291.359C219.146 291.039 218.495 290.844 217.747 290.775C217.008 290.7 216.218 290.767 215.377 290.975C214.546 291.177 213.696 291.529 212.828 292.031C211.959 292.532 211.345 293.025 210.985 293.511C210.634 293.991 210.518 294.447 210.638 294.879C210.768 295.305 211.109 295.679 211.664 295.999Z" fill="#3B3B3B" class="vPPWcXJV_9"></path>
                        <path d="M266.421 328.669C265.692 328.247 265.133 327.786 264.745 327.285C264.375 326.783 264.181 326.271 264.163 325.749C264.163 325.226 264.329 324.719 264.662 324.229C265.013 323.738 265.544 323.287 266.255 322.877C266.966 322.466 267.742 322.162 268.583 321.965C269.442 321.767 270.32 321.671 271.216 321.677C272.13 321.682 273.017 321.794 273.876 322.013C274.744 322.226 275.548 322.546 276.287 322.973C277.017 323.394 277.567 323.855 277.936 324.357C278.315 324.853 278.509 325.359 278.518 325.877C278.537 326.399 278.37 326.906 278.019 327.397C277.677 327.893 277.151 328.346 276.44 328.757C275.728 329.167 274.943 329.471 274.084 329.669C273.234 329.871 272.357 329.967 271.451 329.957C270.555 329.951 269.673 329.842 268.805 329.629C267.946 329.41 267.151 329.09 266.421 328.669ZM267.336 328.141C267.918 328.477 268.551 328.73 269.234 328.901C269.936 329.071 270.648 329.157 271.368 329.157C272.107 329.157 272.818 329.077 273.502 328.917C274.195 328.751 274.832 328.501 275.414 328.165C275.996 327.829 276.426 327.463 276.703 327.069C276.989 326.669 277.128 326.258 277.119 325.837C277.128 325.415 276.98 325.005 276.675 324.605C276.389 324.205 275.955 323.837 275.373 323.501C274.791 323.165 274.149 322.911 273.447 322.741C272.754 322.565 272.038 322.477 271.299 322.477C270.578 322.477 269.867 322.557 269.165 322.717C268.481 322.877 267.849 323.125 267.267 323.461C266.694 323.791 266.264 324.157 265.978 324.557C265.701 324.962 265.558 325.375 265.548 325.797C265.558 326.218 265.71 326.631 266.006 327.037C266.311 327.437 266.754 327.805 267.336 328.141ZM279.413 336.073L280.023 332.265L281.325 332.457L280.577 336.745L279.413 336.073ZM274.078 332.993L281.353 328.793L282.337 329.361L275.062 333.561L274.078 332.993ZM278 331.513L278.845 331.025L281.187 332.377L280.341 332.865L278 331.513ZM280.854 332.825L280.078 332.217L286.577 331.809L287.644 332.425L280.854 332.825ZM283.644 338.516L290.322 334.66L290.308 334.956L287.302 333.22L288.161 332.724L294.659 336.476L293.8 336.972L290.793 335.236L291.306 335.228L284.627 339.084L283.644 338.516ZM293.999 344.495L303.283 339.135L303.256 339.663L300.526 338.087L301.413 337.575L304.697 339.471L294.997 345.071L293.999 344.495ZM299.283 347.545L308.567 342.185L308.539 342.713L305.81 341.137L306.696 340.625L309.98 342.521L300.281 348.121L299.283 347.545Z" fill="#3B3B3B" class="vPPWcXJV_10"></path>
                        <path d="M353.959 379.208C353.229 378.787 352.67 378.326 352.282 377.824C351.913 377.323 351.719 376.811 351.7 376.288C351.7 375.766 351.866 375.259 352.199 374.768C352.55 374.278 353.081 373.827 353.792 373.416C354.504 373.006 355.28 372.702 356.12 372.504C356.979 372.307 357.857 372.211 358.753 372.216C359.668 372.222 360.554 372.334 361.413 372.552C362.282 372.766 363.085 373.086 363.824 373.512C364.554 373.934 365.104 374.395 365.473 374.896C365.852 375.392 366.046 375.899 366.055 376.416C366.074 376.939 365.908 377.446 365.557 377.936C365.215 378.432 364.688 378.886 363.977 379.296C363.266 379.707 362.48 380.011 361.621 380.208C360.771 380.411 359.894 380.507 358.989 380.496C358.093 380.491 357.21 380.382 356.342 380.168C355.483 379.95 354.688 379.63 353.959 379.208ZM354.873 378.68C355.455 379.016 356.088 379.27 356.772 379.44C357.474 379.611 358.185 379.696 358.905 379.696C359.644 379.696 360.356 379.616 361.039 379.456C361.732 379.291 362.37 379.04 362.952 378.704C363.533 378.368 363.963 378.003 364.24 377.608C364.527 377.208 364.665 376.798 364.656 376.376C364.665 375.955 364.517 375.544 364.212 375.144C363.926 374.744 363.492 374.376 362.91 374.04C362.328 373.704 361.686 373.451 360.984 373.28C360.291 373.104 359.575 373.016 358.836 373.016C358.116 373.016 357.404 373.096 356.702 373.256C356.019 373.416 355.386 373.664 354.804 374C354.231 374.331 353.802 374.696 353.515 375.096C353.238 375.502 353.095 375.915 353.086 376.336C353.095 376.758 353.247 377.171 353.543 377.576C353.848 377.976 354.291 378.344 354.873 378.68ZM366.95 386.613L367.56 382.805L368.862 382.997L368.114 387.285L366.95 386.613ZM361.616 383.533L368.89 379.333L369.874 379.901L362.599 384.101L361.616 383.533ZM365.537 382.053L366.382 381.565L368.724 382.917L367.879 383.405L365.537 382.053ZM368.391 383.365L367.615 382.757L374.114 382.349L375.181 382.965L368.391 383.365ZM371.181 389.056L377.86 385.2L377.846 385.496L374.839 383.76L375.698 383.264L382.197 387.016L381.338 387.512L378.331 385.776L378.843 385.768L372.165 389.624L371.181 389.056ZM381.537 395.035L390.821 389.675L390.793 390.203L388.063 388.627L388.95 388.115L392.234 390.011L382.534 395.611L381.537 395.035ZM384.95 397.005L385.657 396.597L393.638 396.645C394.368 396.651 394.959 396.629 395.412 396.581C395.873 396.528 396.257 396.451 396.562 396.349C396.866 396.248 397.125 396.136 397.338 396.013C397.901 395.688 398.151 395.32 398.086 394.909C398.03 394.504 397.629 394.085 396.88 393.653C396.308 393.323 395.712 393.08 395.093 392.925C394.483 392.776 393.837 392.717 393.153 392.749L393.056 391.989C393.878 391.952 394.705 392.035 395.536 392.237C396.368 392.44 397.148 392.752 397.878 393.173C398.534 393.552 398.996 393.941 399.264 394.341C399.541 394.736 399.61 395.123 399.471 395.501C399.342 395.885 399.01 396.232 398.474 396.541C398.16 396.723 397.804 396.875 397.407 396.997C397.019 397.125 396.539 397.221 395.966 397.285C395.412 397.349 394.705 397.379 393.846 397.373L386.516 397.333L386.627 396.949L392.64 400.421L391.753 400.933L384.95 397.005Z" fill="#3B3B3B" class="vPPWcXJV_11"></path>
                        <path d="M444.585 431.532C443.856 431.11 443.297 430.649 442.909 430.148C442.539 429.646 442.345 429.134 442.327 428.612C442.327 428.089 442.493 427.582 442.826 427.092C443.177 426.601 443.708 426.15 444.419 425.74C445.13 425.329 445.906 425.025 446.747 424.828C447.606 424.63 448.484 424.534 449.38 424.54C450.294 424.545 451.181 424.657 452.04 424.876C452.908 425.089 453.712 425.409 454.451 425.836C455.181 426.257 455.73 426.718 456.1 427.22C456.479 427.716 456.673 428.222 456.682 428.74C456.7 429.262 456.534 429.769 456.183 430.26C455.841 430.756 455.315 431.209 454.603 431.62C453.892 432.03 453.107 432.334 452.248 432.532C451.398 432.734 450.52 432.83 449.615 432.82C448.719 432.814 447.837 432.705 446.969 432.492C446.11 432.273 445.315 431.953 444.585 431.532ZM445.5 431.004C446.082 431.34 446.715 431.593 447.398 431.764C448.1 431.934 448.812 432.02 449.532 432.02C450.271 432.02 450.982 431.94 451.666 431.78C452.359 431.614 452.996 431.364 453.578 431.028C454.16 430.692 454.59 430.326 454.867 429.932C455.153 429.532 455.292 429.121 455.282 428.7C455.292 428.278 455.144 427.868 454.839 427.468C454.553 427.068 454.119 426.7 453.537 426.364C452.955 426.028 452.313 425.774 451.61 425.604C450.918 425.428 450.202 425.34 449.463 425.34C448.742 425.34 448.031 425.42 447.329 425.58C446.645 425.74 446.013 425.988 445.431 426.324C444.858 426.654 444.428 427.02 444.142 427.42C443.865 427.825 443.722 428.238 443.712 428.66C443.722 429.081 443.874 429.494 444.17 429.9C444.474 430.3 444.918 430.668 445.5 431.004ZM457.577 438.936L458.187 435.128L459.489 435.32L458.741 439.608L457.577 438.936ZM452.242 435.856L459.517 431.656L460.501 432.224L453.226 436.424L452.242 435.856ZM456.164 434.376L457.009 433.888L459.35 435.24L458.505 435.728L456.164 434.376ZM459.018 435.688L458.242 435.08L464.741 434.672L465.808 435.288L459.018 435.688ZM461.807 441.379L468.486 437.523L468.472 437.819L465.465 436.083L466.325 435.587L472.823 439.339L471.964 439.835L468.957 438.099L469.47 438.091L462.791 441.947L461.807 441.379ZM472.163 447.358L481.447 441.998L481.419 442.526L478.69 440.95L479.577 440.438L482.86 442.334L473.161 447.934L472.163 447.358ZM478.57 451.152C477.867 450.747 477.313 450.299 476.907 449.808C476.519 449.318 476.325 448.854 476.325 448.416L477.6 448.24C477.59 448.608 477.743 449.006 478.057 449.432C478.38 449.864 478.856 450.262 479.484 450.624C480.288 451.088 481.078 451.342 481.854 451.384C482.639 451.432 483.327 451.286 483.918 450.944C484.509 450.603 484.768 450.208 484.694 449.76C484.629 449.318 484.144 448.835 483.239 448.312L482.546 447.912L483.281 447.488L490.029 447.048L489.779 447.352L484.375 444.232L485.262 443.72L491.498 447.32L490.791 447.728L484.043 448.168L483.877 447.704L484.251 447.92C485.415 448.592 486.024 449.243 486.08 449.872C486.144 450.507 485.77 451.059 484.957 451.528C484.412 451.843 483.793 452.051 483.101 452.152C482.408 452.254 481.673 452.224 480.897 452.064C480.131 451.91 479.355 451.606 478.57 451.152Z" fill="#3B3B3B" class="vPPWcXJV_12"></path>
                        <path d="M535.211 483.854C534.481 483.433 533.923 482.972 533.535 482.47C533.165 481.969 532.971 481.457 532.953 480.934C532.953 480.412 533.119 479.905 533.451 479.414C533.802 478.924 534.334 478.473 535.045 478.062C535.756 477.652 536.532 477.348 537.373 477.15C538.232 476.953 539.109 476.857 540.005 476.862C540.92 476.868 541.807 476.98 542.666 477.198C543.534 477.412 544.338 477.732 545.077 478.158C545.807 478.58 546.356 479.041 546.726 479.542C547.105 480.038 547.299 480.545 547.308 481.062C547.326 481.585 547.16 482.092 546.809 482.582C546.467 483.078 545.941 483.532 545.229 483.942C544.518 484.353 543.733 484.657 542.874 484.854C542.024 485.057 541.146 485.153 540.241 485.142C539.345 485.137 538.463 485.028 537.594 484.814C536.735 484.596 535.941 484.276 535.211 483.854ZM536.126 483.326C536.708 483.662 537.34 483.916 538.024 484.086C538.726 484.257 539.437 484.342 540.158 484.342C540.897 484.342 541.608 484.262 542.292 484.102C542.985 483.937 543.622 483.686 544.204 483.35C544.786 483.014 545.215 482.649 545.493 482.254C545.779 481.854 545.918 481.444 545.908 481.022C545.918 480.601 545.77 480.19 545.465 479.79C545.179 479.39 544.744 479.022 544.162 478.686C543.58 478.35 542.938 478.097 542.236 477.926C541.544 477.75 540.828 477.662 540.089 477.662C539.368 477.662 538.657 477.742 537.955 477.902C537.271 478.062 536.638 478.31 536.056 478.646C535.484 478.977 535.054 479.342 534.768 479.742C534.491 480.148 534.347 480.561 534.338 480.982C534.347 481.404 534.5 481.817 534.795 482.222C535.1 482.622 535.544 482.99 536.126 483.326ZM548.203 491.259L548.812 487.451L550.115 487.643L549.367 491.931L548.203 491.259ZM542.868 488.179L550.143 483.979L551.126 484.547L543.852 488.747L542.868 488.179ZM546.789 486.699L547.635 486.211L549.976 487.563L549.131 488.051L546.789 486.699ZM549.644 488.011L548.868 487.403L555.366 486.995L556.433 487.611L549.644 488.011ZM552.433 493.701L559.112 489.845L559.098 490.141L556.091 488.405L556.95 487.909L563.449 491.661L562.59 492.157L559.583 490.421L560.096 490.413L553.417 494.269L552.433 493.701ZM562.789 499.68L572.073 494.32L572.045 494.848L569.316 493.272L570.202 492.76L573.486 494.656L563.787 500.256L562.789 499.68ZM568.766 500.187L569.486 499.771L581.056 499.027L582.165 499.667L570.636 500.435L570.262 500.027L578.063 504.531L577.177 505.043L568.766 500.187ZM571.69 504.819L574.239 503.347L575.154 502.851L577.398 501.555L578.368 502.115L572.687 505.395L571.69 504.819Z" fill="#3B3B3B" class="vPPWcXJV_13"></path>
                        <path d="M625.839 536.178C625.109 535.757 624.55 535.295 624.162 534.794C623.792 534.293 623.598 533.781 623.58 533.258C623.58 532.735 623.746 532.229 624.079 531.738C624.43 531.247 624.961 530.797 625.672 530.386C626.384 529.975 627.16 529.671 628 529.474C628.859 529.277 629.737 529.181 630.633 529.186C631.547 529.191 632.434 529.303 633.293 529.522C634.162 529.735 634.965 530.055 635.704 530.482C636.434 530.903 636.984 531.365 637.353 531.866C637.732 532.362 637.926 532.869 637.935 533.386C637.954 533.909 637.787 534.415 637.436 534.906C637.095 535.402 636.568 535.855 635.857 536.266C635.145 536.677 634.36 536.981 633.501 537.178C632.651 537.381 631.774 537.477 630.868 537.466C629.972 537.461 629.09 537.351 628.222 537.138C627.363 536.919 626.568 536.599 625.839 536.178ZM626.753 535.65C627.335 535.986 627.968 536.239 628.651 536.41C629.354 536.581 630.065 536.666 630.785 536.666C631.524 536.666 632.236 536.586 632.919 536.426C633.612 536.261 634.249 536.01 634.831 535.674C635.413 535.338 635.843 534.973 636.12 534.578C636.406 534.178 636.545 533.767 636.536 533.346C636.545 532.925 636.397 532.514 636.092 532.114C635.806 531.714 635.372 531.346 634.79 531.01C634.208 530.674 633.566 530.421 632.864 530.25C632.171 530.074 631.455 529.986 630.716 529.986C629.996 529.986 629.284 530.066 628.582 530.226C627.899 530.386 627.266 530.634 626.684 530.97C626.111 531.301 625.682 531.666 625.395 532.066C625.118 532.471 624.975 532.885 624.966 533.306C624.975 533.727 625.127 534.141 625.423 534.546C625.728 534.946 626.171 535.314 626.753 535.65ZM638.83 543.583L639.44 539.775L640.742 539.967L639.994 544.255L638.83 543.583ZM633.495 540.503L640.77 536.303L641.754 536.871L634.479 541.071L633.495 540.503ZM637.417 539.023L638.262 538.535L640.604 539.887L639.759 540.375L637.417 539.023ZM640.271 540.335L639.495 539.727L645.994 539.319L647.061 539.935L640.271 540.335ZM643.061 546.025L649.739 542.169L649.726 542.465L646.719 540.729L647.578 540.233L654.077 543.985L653.217 544.481L650.211 542.745L650.723 542.737L644.045 546.593L643.061 546.025ZM653.417 552.004L662.7 546.644L662.673 547.172L659.943 545.596L660.83 545.084L664.114 546.98L654.414 552.58L653.417 552.004ZM659.989 555.895C659.296 555.495 658.747 555.049 658.34 554.559C657.943 554.063 657.749 553.599 657.758 553.167L659.033 552.991C659.015 553.353 659.162 553.748 659.476 554.175C659.8 554.607 660.271 555.001 660.89 555.359C661.712 555.833 662.516 556.089 663.301 556.127C664.104 556.164 664.802 556.012 665.393 555.671C665.809 555.431 666.063 555.167 666.155 554.879C666.266 554.591 666.169 554.263 665.864 553.895C665.559 553.527 664.996 553.105 664.174 552.631L662.109 551.439L667.472 548.919L672.779 551.983L671.892 552.495L666.987 549.663L667.984 549.679L663.481 551.783L663.467 551.199L665.282 552.247C666.261 552.812 666.927 553.335 667.278 553.815C667.629 554.295 667.716 554.735 667.541 555.135C667.384 555.535 667.019 555.9 666.446 556.231C665.901 556.545 665.273 556.759 664.562 556.871C663.86 556.977 663.121 556.956 662.345 556.807C661.569 556.657 660.784 556.353 659.989 555.895Z" fill="#3B3B3B" class="vPPWcXJV_14"></path>
                        <path d="M183.761 236.946C183.013 236.514 182.542 236.018 182.348 235.458C182.163 234.892 182.27 234.303 182.667 233.69C183.073 233.071 183.794 232.463 184.828 231.866C185.863 231.268 186.911 230.855 187.974 230.626C189.045 230.391 190.066 230.33 191.036 230.442C192.015 230.548 192.879 230.818 193.627 231.25C194.375 231.682 194.842 232.18 195.027 232.746C195.221 233.306 195.114 233.895 194.708 234.514C194.32 235.132 193.609 235.74 192.574 236.338C191.539 236.935 190.482 237.348 189.401 237.578C188.339 237.807 187.318 237.868 186.339 237.762C185.369 237.65 184.51 237.378 183.761 236.946ZM184.676 236.418C185.249 236.748 185.9 236.948 186.63 237.018C187.369 237.082 188.154 237.012 188.985 236.81C189.826 236.602 190.68 236.247 191.549 235.746C192.417 235.244 193.027 234.754 193.378 234.274C193.738 233.788 193.858 233.335 193.738 232.914C193.627 232.487 193.285 232.108 192.713 231.778C192.158 231.458 191.507 231.263 190.759 231.194C190.02 231.119 189.23 231.186 188.389 231.394C187.558 231.596 186.708 231.948 185.84 232.45C184.972 232.951 184.357 233.444 183.997 233.93C183.646 234.41 183.53 234.866 183.651 235.298C183.78 235.724 184.122 236.098 184.676 236.418Z" fill="#3B3B3B" class="vPPWcXJV_15"></path>
                        <path d="M217.503 251.411L711.829 534.432" stroke="#E8E8E8" stroke-width="2.37833" class="vPPWcXJV_16"></path>
                        <path d="M222.652 250.817C247.025 244.673 301.744 236.547 325.637 253.195C355.502 274.005 395.666 329.301 475.994 349.517C556.322 369.733 666.516 364.382 709.769 381.03C744.372 394.349 792.157 447.227 811.724 472.001" stroke="#46D961" stroke-width="5.94582" stroke-linecap="round" class="vPPWcXJV_17"></path>
                        <path d="M316.369 194.331C340.398 188.386 394.637 191.953 419.353 253.79C450.249 331.085 542.935 408.381 601.636 420.867C648.597 430.856 793.531 440.488 860.127 444.056" stroke="#3B3B3B" stroke-width="5.94582" stroke-linecap="round" class="vPPWcXJV_18"></path>
                        <g filter="url(#filter1_d_12055_1020)">
                            <path transform="matrix(0.866025 0.5 -0.866025 0.5 377.13 294.816)" fill="white" d="M-11.8916,0A11.8916,11.8916 0,1,1 11.8916,0A11.8916,11.8916 0,1,1 -11.8916,0" class="vPPWcXJV_19"></path>
                        </g>
                        <g filter="url(#filter2_d_12055_1020)">
                            <path transform="matrix(0.866025 0.5 -0.866025 0.5 377.13 294.816)" fill="#21A038" d="M-5.94582,0A5.94582,5.94582 0,1,1 5.94582,0A5.94582,5.94582 0,1,1 -5.94582,0" class="vPPWcXJV_20"></path>
                        </g>
                        <g filter="url(#filter3_d_12055_1020)">
                            <path transform="matrix(0.866025 0.5 -0.866025 0.5 424.503 261.519)" fill="white" d="M-11.8916,0A11.8916,11.8916 0,1,1 11.8916,0A11.8916,11.8916 0,1,1 -11.8916,0" class="vPPWcXJV_21"></path>
                        </g>
                        <g filter="url(#filter4_d_12055_1020)">
                            <path transform="matrix(0.866025 0.5 -0.866025 0.5 424.503 261.52)" fill="#3B3B3B" d="M-5.94582,0A5.94582,5.94582 0,1,1 5.94582,0A5.94582,5.94582 0,1,1 -5.94582,0" class="vPPWcXJV_22"></path>
                        </g>
                        <g filter="url(#filter5_d_12055_1020)">
                            <path width="170.05" height="68.9715" transform="matrix(0.866025 0.5 -0.866025 0.5 445.099 175.899)" fill="white" d="M 9,0 L 161.05,0 A 9,9,0,0,1,170.05,9 L 170.05,59.971500000000006 A 9,9,0,0,1,161.05,68.9715 L 9,68.9715 A 9,9,0,0,1,0,59.971500000000006 L 0,9 A 9,9,0,0,1,9,0" class="vPPWcXJV_23"></path>
                            <path d="M444.17 260.388C440.921 260.89 437.948 259.174 438.819 257.298L444.042 246.044C444.912 244.168 448.974 243.54 451.352 244.913L465.622 253.152C468 254.525 466.912 256.87 463.663 257.372L444.17 260.388Z" fill="white" class="vPPWcXJV_24"></path>
                            <g filter="url(#filter6_d_12055_1020)">
                                <path transform="matrix(0.866025 0.5 -0.866025 0.5 424.502 210.979)" fill="#21A038" d="M-5.35124,0A5.35124,5.35124 0,1,1 5.35124,0A5.35124,5.35124 0,1,1 -5.35124,0" class="vPPWcXJV_25"></path>
                            </g>
                            <g filter="url(#filter7_d_12055_1020)">
                                <path transform="matrix(0.866025 0.5 -0.866025 0.5 446.129 198.493)" fill="#3B3B3B" d="M-5.35124,0A5.35124,5.35124 0,1,1 5.35124,0A5.35124,5.35124 0,1,1 -5.35124,0" class="vPPWcXJV_26"></path>
                            </g>
                            <path d="M460.491 211.895L464.565 214.247L462.989 215.157L458.915 212.805L460.491 211.895ZM455.969 214.674L454.004 213.54L462.491 208.64L468.905 212.343L467.329 213.253L462.879 210.684L455.969 214.674ZM464.831 219.903C464.088 219.474 463.579 219.012 463.304 218.517C463.037 218.027 463.001 217.549 463.195 217.082C463.397 216.611 463.821 216.189 464.468 215.815C465.122 215.437 465.85 215.19 466.65 215.073C467.466 214.957 468.279 214.968 469.087 215.108C469.903 215.244 470.643 215.503 471.306 215.885C471.944 216.254 472.381 216.665 472.615 217.117C472.866 217.57 472.886 218.03 472.676 218.496C472.474 218.958 472.021 219.392 471.318 219.798C471.245 219.84 471.156 219.887 471.051 219.938C470.954 219.985 470.861 220.029 470.772 220.071L465.474 217.012L466.577 216.375L470.882 218.86L469.827 218.629C470.166 218.433 470.392 218.223 470.506 217.999C470.619 217.775 470.623 217.554 470.518 217.334C470.421 217.11 470.211 216.905 469.887 216.718C469.564 216.532 469.204 216.408 468.808 216.347C468.428 216.287 468.04 216.291 467.644 216.361C467.256 216.427 466.889 216.56 466.541 216.76L466.25 216.928C465.894 217.134 465.656 217.36 465.535 217.607C465.43 217.855 465.446 218.102 465.583 218.349C465.737 218.597 466.008 218.832 466.396 219.056C466.743 219.257 467.099 219.402 467.462 219.49C467.834 219.584 468.234 219.633 468.663 219.637L468.578 220.848C467.939 220.872 467.301 220.806 466.662 220.652C466.032 220.494 465.422 220.244 464.831 219.903ZM473.341 224.816C472.767 224.485 472.395 224.13 472.226 223.752C472.056 223.374 472.108 222.98 472.383 222.569C472.666 222.154 473.187 221.727 473.947 221.288C474.715 220.845 475.459 220.546 476.178 220.392C476.906 220.243 477.597 220.217 478.251 220.315C478.906 220.413 479.508 220.621 480.058 220.938C480.672 221.293 481.084 221.69 481.295 222.128C481.513 222.572 481.513 223.02 481.295 223.472C481.084 223.93 480.636 224.357 479.949 224.753C479.27 225.145 478.534 225.402 477.742 225.523C476.958 225.649 476.178 225.652 475.402 225.53C474.642 225.409 473.955 225.171 473.341 224.816ZM469.583 222.534L478.579 217.34L480.47 218.432L476.675 220.623L474.626 221.666L472.723 222.807L471.389 223.577L469.583 222.534ZM474.566 223.731C474.881 223.913 475.232 224.032 475.62 224.088C476.016 224.149 476.421 224.144 476.833 224.074C477.261 224.004 477.661 223.862 478.033 223.647C478.413 223.428 478.66 223.197 478.773 222.954C478.894 222.716 478.902 222.483 478.797 222.254C478.7 222.03 478.494 221.827 478.179 221.645C477.863 221.463 477.508 221.342 477.112 221.281C476.716 221.221 476.312 221.225 475.899 221.295C475.487 221.365 475.091 221.51 474.711 221.729C474.339 221.944 474.089 222.173 473.959 222.415C473.838 222.653 473.83 222.887 473.935 223.115C474.04 223.344 474.25 223.549 474.566 223.731ZM482.781 230.155L490.541 225.675L490.541 226.655L487.995 225.185L489.571 224.275L493.233 226.389L484.746 231.289L482.781 230.155ZM487.772 233.036L495.531 228.556L495.531 229.536L492.985 228.066L494.562 227.156L498.223 229.27L489.736 234.17L487.772 233.036ZM496.824 233.348C496.501 233.161 496.331 232.937 496.315 232.676C496.315 232.415 496.489 232.184 496.836 231.983C497.184 231.782 497.576 231.687 498.012 231.696C498.465 231.705 498.853 231.803 499.176 231.99C499.507 232.181 499.677 232.405 499.685 232.662C499.701 232.914 499.536 233.14 499.188 233.341C498.841 233.542 498.441 233.642 497.988 233.642C497.543 233.637 497.155 233.539 496.824 233.348ZM492.471 235.861C492.148 235.674 491.978 235.45 491.962 235.189C491.962 234.928 492.136 234.697 492.483 234.496C492.831 234.295 493.223 234.2 493.659 234.209C494.112 234.218 494.5 234.316 494.823 234.503C495.155 234.694 495.325 234.918 495.333 235.175C495.349 235.427 495.183 235.653 494.836 235.854C494.488 236.055 494.088 236.155 493.635 236.155C493.191 236.15 492.803 236.052 492.471 235.861ZM499.975 241.762L511.372 235.182L512.585 235.882L501.188 242.462L499.975 241.762ZM501.721 241.258C501.042 240.866 500.481 240.439 500.036 239.977C499.599 239.51 499.337 239.083 499.248 238.696L501.394 238.227C501.499 238.586 501.713 238.957 502.036 239.34C502.376 239.722 502.8 240.061 503.31 240.355C503.698 240.579 504.045 240.737 504.352 240.831C504.676 240.924 504.962 240.964 505.213 240.95C505.464 240.936 505.678 240.877 505.856 240.775C506.082 240.644 506.171 240.49 506.122 240.313C506.082 240.131 505.957 239.932 505.747 239.718C505.544 239.498 505.302 239.265 505.019 239.018C504.752 238.77 504.498 238.511 504.255 238.241C504.021 237.975 503.847 237.706 503.734 237.436C503.621 237.165 503.617 236.892 503.722 236.617C503.835 236.346 504.118 236.08 504.57 235.819C505.055 235.539 505.625 235.359 506.28 235.28C506.951 235.2 507.666 235.245 508.426 235.413C509.202 235.581 509.99 235.896 510.79 236.358C511.324 236.666 511.784 237.006 512.172 237.38C512.568 237.748 512.839 238.119 512.985 238.493L510.887 239.004C510.718 238.644 510.487 238.32 510.196 238.031C509.913 237.737 509.582 237.48 509.202 237.261C508.822 237.041 508.466 236.887 508.135 236.799C507.804 236.71 507.513 236.677 507.262 236.701C507.02 236.719 506.805 236.782 506.619 236.89C506.401 237.016 506.312 237.17 506.353 237.352C506.401 237.529 506.531 237.725 506.741 237.94C506.951 238.154 507.189 238.385 507.456 238.633C507.731 238.885 507.99 239.141 508.232 239.403C508.483 239.669 508.664 239.937 508.778 240.208C508.891 240.478 508.891 240.749 508.778 241.02C508.673 241.295 508.398 241.561 507.953 241.818C507.476 242.093 506.906 242.268 506.244 242.343C505.581 242.417 504.861 242.371 504.085 242.203C503.318 242.039 502.53 241.724 501.721 241.258ZM509.078 245.505C508.488 245.164 507.979 244.782 507.55 244.357C507.13 243.928 506.863 243.512 506.75 243.111L509.018 242.684C509.106 243.006 509.296 243.33 509.587 243.657C509.878 243.984 510.242 244.273 510.679 244.525C511.172 244.81 511.657 244.978 512.133 245.029C512.61 245.08 513.019 245.008 513.358 244.812C513.681 244.625 513.811 244.406 513.746 244.154C513.681 243.902 513.37 243.615 512.812 243.293L511.915 242.775L513.213 242.026L518.256 241.844L517.771 242.376L513.322 239.807L514.898 238.897L520.839 242.327L519.566 243.062L514.534 243.251L514.11 242.348L514.68 242.677C515.722 243.279 516.276 243.869 516.341 244.448C516.405 245.027 516.07 245.528 515.334 245.953C514.857 246.228 514.284 246.415 513.613 246.513C512.95 246.606 512.23 246.578 511.455 246.429C510.679 246.28 509.886 245.972 509.078 245.505ZM525.504 244.853C526.288 245.305 526.802 245.788 527.044 246.302C527.286 246.815 527.25 247.34 526.935 247.877C526.628 248.409 526.013 248.941 525.092 249.473C524.114 250.037 523.1 250.408 522.049 250.586C521.006 250.768 519.984 250.775 518.981 250.607C517.979 250.439 517.049 250.107 516.193 249.613C515.748 249.356 515.368 249.081 515.053 248.787C514.738 248.493 514.528 248.203 514.423 247.919L516.593 247.506C516.666 247.734 516.803 247.944 517.005 248.136C517.215 248.322 517.466 248.5 517.757 248.668C518.484 249.088 519.284 249.293 520.157 249.284C521.038 249.279 521.915 249.025 522.788 248.521C522.934 248.437 523.091 248.341 523.261 248.234C523.431 248.126 523.589 248.012 523.734 247.891L523.758 248.493C523.306 248.595 522.845 248.637 522.376 248.619C521.915 248.595 521.463 248.521 521.018 248.395C520.582 248.264 520.157 248.08 519.745 247.842C519.204 247.529 518.82 247.181 518.593 246.799C518.375 246.421 518.331 246.04 518.46 245.658C518.597 245.28 518.933 244.937 519.466 244.629C520.048 244.293 520.691 244.085 521.394 244.006C522.105 243.931 522.817 243.968 523.528 244.118C524.255 244.267 524.914 244.512 525.504 244.853ZM524.158 245.77C523.875 245.606 523.576 245.494 523.261 245.434C522.954 245.368 522.643 245.357 522.328 245.399C522.02 245.436 521.738 245.529 521.479 245.679C521.091 245.903 520.909 246.157 520.933 246.442C520.974 246.726 521.212 246.995 521.649 247.247C521.932 247.41 522.235 247.524 522.558 247.59C522.897 247.655 523.225 247.667 523.54 247.625C523.855 247.583 524.134 247.492 524.377 247.352C524.619 247.212 524.773 247.053 524.837 246.876C524.918 246.698 524.902 246.516 524.789 246.33C524.684 246.138 524.474 245.952 524.158 245.77ZM521.731 252.642L523.004 251.907L529.37 252.012C529.863 252.026 530.263 252.015 530.57 251.977C530.877 251.94 531.128 251.889 531.322 251.823C531.524 251.763 531.689 251.695 531.819 251.62C532.158 251.424 532.3 251.207 532.243 250.969C532.203 250.731 531.96 250.484 531.516 250.227C531.16 250.022 530.76 249.87 530.315 249.772C529.879 249.679 529.41 249.656 528.909 249.702L528.4 248.344C529.208 248.251 530.045 248.291 530.909 248.463C531.774 248.636 532.587 248.942 533.346 249.38C533.977 249.744 534.421 250.122 534.68 250.514C534.955 250.906 535.036 251.284 534.923 251.648C534.817 252.017 534.506 252.351 533.989 252.649C533.714 252.808 533.403 252.946 533.055 253.062C532.724 253.179 532.304 253.263 531.794 253.314C531.293 253.37 530.659 253.391 529.891 253.377L524.617 253.286L524.956 252.656L529.745 255.421L528.145 256.345L521.731 252.642ZM531.805 258.626C531.215 258.286 530.705 257.903 530.277 257.478C529.857 257.049 529.59 256.634 529.477 256.232L531.744 255.805C531.833 256.127 532.023 256.452 532.314 256.778C532.605 257.105 532.969 257.394 533.405 257.646C533.898 257.931 534.383 258.099 534.86 258.15C535.337 258.202 535.745 258.129 536.085 257.933C536.408 257.747 536.537 257.527 536.473 257.275C536.408 257.023 536.097 256.736 535.539 256.414L534.642 255.896L535.939 255.147L540.983 254.965L540.498 255.497L536.048 252.928L537.624 252.018L543.565 255.448L542.292 256.183L537.261 256.372L536.836 255.469L537.406 255.798C538.449 256.4 539.003 256.991 539.067 257.569C539.132 258.148 538.796 258.65 538.061 259.074C537.584 259.35 537.01 259.536 536.339 259.634C535.676 259.728 534.957 259.7 534.181 259.55C533.405 259.401 532.613 259.093 531.805 258.626ZM538.301 260.151L539.622 259.388L549.007 258.59L551.068 259.78L541.768 260.627L541.089 259.913L547.77 263.77L546.17 264.694L538.301 260.151ZM541.089 263.819L542.872 262.79L544.533 261.901L546.121 260.984L547.976 262.055L543.005 264.925L541.089 263.819Z" fill="#3B3B3B" class="vPPWcXJV_27"></path>
                            <path d="M438.864 224.381L442.938 226.733L441.362 227.643L437.288 225.291L438.864 224.381ZM434.342 227.16L432.378 226.026L440.865 221.126L447.279 224.829L445.702 225.739L441.253 223.17L434.342 227.16ZM443.205 232.389C442.461 231.96 441.952 231.498 441.677 231.003C441.41 230.513 441.374 230.035 441.568 229.568C441.77 229.097 442.195 228.675 442.841 228.301C443.496 227.923 444.223 227.676 445.024 227.559C445.84 227.443 446.652 227.454 447.461 227.594C448.277 227.73 449.016 227.989 449.679 228.371C450.318 228.74 450.754 229.151 450.989 229.603C451.239 230.056 451.259 230.516 451.049 230.982C450.847 231.444 450.395 231.878 449.691 232.284C449.619 232.326 449.53 232.373 449.425 232.424C449.328 232.471 449.235 232.515 449.146 232.557L443.847 229.498L444.951 228.861L449.255 231.346L448.2 231.115C448.54 230.919 448.766 230.709 448.879 230.485C448.992 230.261 448.996 230.04 448.891 229.82C448.794 229.596 448.584 229.391 448.261 229.204C447.937 229.018 447.578 228.894 447.182 228.833C446.802 228.773 446.414 228.777 446.018 228.847C445.63 228.913 445.262 229.046 444.914 229.246L444.623 229.414C444.268 229.62 444.029 229.846 443.908 230.093C443.803 230.341 443.819 230.588 443.957 230.835C444.11 231.083 444.381 231.318 444.769 231.542C445.116 231.743 445.472 231.888 445.836 231.976C446.208 232.07 446.608 232.119 447.036 232.123L446.951 233.334C446.313 233.358 445.674 233.292 445.036 233.138C444.405 232.98 443.795 232.73 443.205 232.389ZM451.714 237.302C451.141 236.971 450.769 236.616 450.599 236.238C450.429 235.86 450.482 235.466 450.757 235.055C451.04 234.64 451.561 234.213 452.321 233.774C453.089 233.331 453.832 233.032 454.552 232.878C455.279 232.729 455.97 232.703 456.625 232.801C457.28 232.899 457.882 233.107 458.431 233.424C459.046 233.779 459.458 234.176 459.668 234.614C459.886 235.058 459.886 235.506 459.668 235.958C459.458 236.416 459.009 236.843 458.322 237.239C457.643 237.631 456.908 237.888 456.116 238.009C455.332 238.135 454.552 238.138 453.776 238.016C453.016 237.895 452.329 237.657 451.714 237.302ZM447.956 235.02L456.952 229.826L458.844 230.918L455.049 233.109L453 234.152L451.096 235.293L449.762 236.063L447.956 235.02ZM452.939 236.217C453.254 236.399 453.606 236.518 453.994 236.574C454.39 236.635 454.794 236.63 455.206 236.56C455.635 236.49 456.035 236.348 456.407 236.133C456.786 235.914 457.033 235.683 457.146 235.44C457.267 235.202 457.276 234.969 457.17 234.74C457.073 234.516 456.867 234.313 456.552 234.131C456.237 233.949 455.881 233.828 455.485 233.767C455.089 233.707 454.685 233.711 454.273 233.781C453.86 233.851 453.464 233.996 453.085 234.215C452.713 234.43 452.462 234.659 452.333 234.901C452.212 235.139 452.203 235.373 452.309 235.601C452.414 235.83 452.624 236.035 452.939 236.217ZM461.155 242.641L468.914 238.161L468.914 239.141L466.368 237.671L467.945 236.761L471.606 238.875L463.119 243.775L461.155 242.641ZM466.145 245.522L473.905 241.042L473.905 242.022L471.359 240.552L472.935 239.642L476.596 241.756L468.109 246.656L466.145 245.522ZM475.197 245.834C474.874 245.647 474.704 245.423 474.688 245.162C474.688 244.901 474.862 244.67 475.209 244.469C475.557 244.268 475.949 244.173 476.386 244.182C476.838 244.191 477.226 244.289 477.549 244.476C477.881 244.667 478.051 244.891 478.059 245.148C478.075 245.4 477.909 245.626 477.562 245.827C477.214 246.028 476.814 246.128 476.361 246.128C475.917 246.123 475.529 246.025 475.197 245.834ZM470.845 248.347C470.521 248.16 470.352 247.936 470.335 247.675C470.335 247.414 470.509 247.183 470.857 246.982C471.204 246.781 471.596 246.686 472.033 246.695C472.486 246.704 472.874 246.802 473.197 246.989C473.528 247.18 473.698 247.404 473.706 247.661C473.722 247.913 473.557 248.139 473.209 248.34C472.861 248.541 472.461 248.641 472.009 248.641C471.564 248.636 471.176 248.538 470.845 248.347ZM478.349 254.248L489.746 247.668L490.958 248.368L479.561 254.948L478.349 254.248ZM480.095 253.744C479.416 253.352 478.854 252.925 478.409 252.463C477.973 251.996 477.71 251.569 477.621 251.182L479.767 250.713C479.872 251.072 480.087 251.443 480.41 251.826C480.749 252.208 481.174 252.547 481.683 252.841C482.071 253.065 482.418 253.223 482.726 253.317C483.049 253.41 483.336 253.45 483.586 253.436C483.837 253.422 484.051 253.363 484.229 253.261C484.455 253.13 484.544 252.976 484.496 252.799C484.455 252.617 484.33 252.418 484.12 252.204C483.918 251.984 483.675 251.751 483.392 251.504C483.126 251.256 482.871 250.997 482.629 250.727C482.394 250.461 482.22 250.192 482.107 249.922C481.994 249.651 481.99 249.378 482.095 249.103C482.208 248.832 482.491 248.566 482.944 248.305C483.429 248.025 483.999 247.845 484.653 247.766C485.324 247.686 486.04 247.731 486.799 247.899C487.575 248.067 488.363 248.382 489.164 248.844C489.697 249.152 490.158 249.492 490.546 249.866C490.942 250.234 491.213 250.605 491.358 250.979L489.261 251.49C489.091 251.13 488.861 250.806 488.57 250.517C488.287 250.223 487.955 249.966 487.575 249.747C487.195 249.527 486.84 249.373 486.508 249.285C486.177 249.196 485.886 249.163 485.635 249.187C485.393 249.205 485.179 249.268 484.993 249.376C484.775 249.502 484.686 249.656 484.726 249.838C484.775 250.015 484.904 250.211 485.114 250.426C485.324 250.64 485.563 250.871 485.829 251.119C486.104 251.371 486.363 251.627 486.605 251.889C486.856 252.155 487.038 252.423 487.151 252.694C487.264 252.964 487.264 253.235 487.151 253.506C487.046 253.781 486.771 254.047 486.327 254.304C485.85 254.579 485.28 254.754 484.617 254.829C483.954 254.903 483.235 254.857 482.459 254.689C481.691 254.525 480.903 254.21 480.095 253.744ZM486.083 257.033L493.843 252.553L493.843 253.533L491.297 252.063L492.873 251.153L496.534 253.267L488.047 258.167L486.083 257.033ZM501.379 255.896C502.163 256.349 502.677 256.832 502.919 257.345C503.162 257.859 503.125 258.384 502.81 258.92C502.503 259.452 501.889 259.984 500.967 260.516C499.989 261.081 498.975 261.452 497.924 261.629C496.881 261.811 495.859 261.818 494.856 261.65C493.854 261.482 492.925 261.151 492.068 260.656C491.623 260.4 491.243 260.124 490.928 259.83C490.613 259.536 490.403 259.247 490.298 258.962L492.468 258.549C492.541 258.778 492.678 258.988 492.88 259.179C493.09 259.366 493.341 259.543 493.632 259.711C494.359 260.131 495.16 260.337 496.032 260.327C496.914 260.323 497.791 260.068 498.663 259.564C498.809 259.48 498.967 259.385 499.136 259.277C499.306 259.17 499.464 259.056 499.609 258.934L499.633 259.536C499.181 259.639 498.72 259.681 498.251 259.662C497.791 259.639 497.338 259.564 496.893 259.438C496.457 259.308 496.032 259.123 495.62 258.885C495.079 258.573 494.695 258.225 494.468 257.842C494.25 257.464 494.206 257.084 494.335 256.701C494.472 256.323 494.808 255.98 495.341 255.672C495.923 255.336 496.566 255.129 497.269 255.049C497.98 254.975 498.692 255.012 499.403 255.161C500.131 255.311 500.789 255.556 501.379 255.896ZM500.034 256.813C499.751 256.65 499.452 256.538 499.136 256.477C498.829 256.412 498.518 256.4 498.203 256.442C497.896 256.48 497.613 256.573 497.354 256.722C496.966 256.946 496.784 257.201 496.808 257.485C496.849 257.77 497.087 258.038 497.524 258.29C497.807 258.454 498.11 258.568 498.433 258.633C498.773 258.699 499.1 258.71 499.415 258.668C499.73 258.626 500.009 258.535 500.252 258.395C500.494 258.255 500.648 258.097 500.712 257.919C500.793 257.742 500.777 257.56 500.664 257.373C500.559 257.182 500.349 256.995 500.034 256.813ZM501.097 265.869C500.386 265.459 499.868 265.039 499.545 264.609C499.23 264.175 499.117 263.76 499.206 263.363C499.303 262.962 499.614 262.61 500.139 262.306C500.665 262.003 501.255 261.83 501.909 261.788C502.58 261.746 503.275 261.826 503.995 262.026C504.722 262.222 505.446 262.528 506.165 262.943C506.893 263.363 507.426 263.783 507.765 264.203C508.121 264.623 508.259 265.025 508.178 265.407C508.113 265.79 507.818 266.133 507.293 266.436C506.767 266.74 506.157 266.919 505.462 266.975C504.775 267.027 504.051 266.959 503.292 266.772C502.548 266.586 501.816 266.285 501.097 265.869ZM502.54 265.036C503.033 265.321 503.53 265.482 504.031 265.519C504.54 265.561 504.985 265.473 505.365 265.253C505.745 265.034 505.894 264.78 505.813 264.49C505.749 264.201 505.47 263.914 504.977 263.629C504.492 263.349 503.999 263.191 503.498 263.153C503.005 263.111 502.568 263.2 502.188 263.419C501.808 263.639 501.651 263.893 501.715 264.182C501.78 264.472 502.055 264.756 502.54 265.036ZM505.171 263.517C504.516 263.139 504.031 262.757 503.716 262.369C503.409 261.987 503.288 261.618 503.352 261.263C503.433 260.909 503.712 260.594 504.189 260.318C504.69 260.029 505.256 259.861 505.886 259.814C506.525 259.763 507.188 259.824 507.875 259.996C508.57 260.164 509.237 260.433 509.875 260.801C510.53 261.179 510.999 261.567 511.282 261.963C511.581 262.36 511.686 262.743 511.597 263.111C511.524 263.48 511.237 263.809 510.736 264.098C510.259 264.374 509.709 264.532 509.087 264.574C508.481 264.616 507.842 264.546 507.171 264.364C506.5 264.182 505.834 263.9 505.171 263.517ZM506.323 262.852C506.735 263.09 507.151 263.223 507.571 263.251C508 263.284 508.376 263.207 508.699 263.02C509.039 262.824 509.176 262.6 509.111 262.348C509.055 262.101 508.828 261.863 508.432 261.634C508.044 261.41 507.636 261.282 507.208 261.249C506.779 261.217 506.395 261.298 506.056 261.494C505.733 261.681 505.595 261.896 505.644 262.138C505.692 262.381 505.919 262.619 506.323 262.852ZM509.622 270.791C508.846 270.343 508.333 269.86 508.083 269.342C507.84 268.829 507.876 268.304 508.192 267.767C508.507 267.231 509.121 266.699 510.035 266.171C511.013 265.607 512.023 265.233 513.066 265.051C514.116 264.874 515.143 264.869 516.145 265.037C517.156 265.21 518.085 265.541 518.934 266.031C519.387 266.293 519.77 266.57 520.086 266.864C520.401 267.158 520.611 267.448 520.716 267.732L518.546 268.145C518.473 267.917 518.332 267.709 518.122 267.522C517.919 267.331 517.673 267.151 517.382 266.983C516.646 266.559 515.842 266.351 514.969 266.36C514.096 266.37 513.223 266.626 512.35 267.13C512.205 267.214 512.043 267.308 511.865 267.41C511.696 267.518 511.542 267.634 511.405 267.76L511.368 267.151C511.837 267.058 512.298 267.021 512.75 267.039C513.211 267.053 513.66 267.126 514.096 267.256C514.549 267.387 514.977 267.569 515.381 267.802C515.931 268.12 516.315 268.467 516.533 268.845C516.751 269.223 516.792 269.601 516.655 269.979C516.525 270.362 516.194 270.707 515.66 271.015C515.086 271.347 514.44 271.552 513.72 271.631C513.017 271.711 512.306 271.678 511.587 271.533C510.883 271.389 510.229 271.141 509.622 270.791ZM510.98 269.881C511.255 270.04 511.546 270.152 511.853 270.217C512.177 270.283 512.496 270.294 512.811 270.252C513.126 270.21 513.409 270.117 513.66 269.972C514.048 269.748 514.222 269.494 514.181 269.209C514.157 268.925 513.927 268.656 513.49 268.404C513.199 268.236 512.888 268.122 512.556 268.061C512.233 267.996 511.91 267.982 511.587 268.019C511.279 268.057 511.001 268.148 510.75 268.292C510.507 268.432 510.35 268.593 510.277 268.775C510.212 268.953 510.233 269.137 510.338 269.328C510.451 269.515 510.665 269.699 510.98 269.881ZM516.675 274.863C516.085 274.523 515.576 274.14 515.148 273.715C514.735 273.291 514.469 272.875 514.347 272.469L516.627 272.049C516.716 272.371 516.902 272.693 517.185 273.015C517.476 273.342 517.839 273.631 518.276 273.883C518.769 274.168 519.254 274.336 519.731 274.387C520.208 274.439 520.62 274.364 520.967 274.163C521.186 274.037 521.323 273.893 521.38 273.729C521.436 273.566 521.363 273.375 521.161 273.155C520.967 272.941 520.612 272.684 520.094 272.385L517.924 271.132L523.138 268.626L528.315 271.615L526.739 272.525L522.265 269.942L524.18 270.012L520.47 271.804L520.349 270.698L522.143 271.734C522.984 272.22 523.542 272.677 523.817 273.106C524.108 273.536 524.172 273.932 524.011 274.296C523.849 274.66 523.518 274.987 523.016 275.276C522.515 275.566 521.925 275.762 521.246 275.864C520.575 275.962 519.844 275.937 519.052 275.787C518.276 275.638 517.484 275.33 516.675 274.863Z" fill="#3B3B3B" class="vPPWcXJV_28"></path>
                        </g>
                    </g>
                </g>
                <defs>
                    <filter id="filter0_d_12055_1020" x="-11.272" y="-6.37042" width="1076.08" height="674.551" filterUnits="userSpaceOnUse" color-interpolation-filters="sRGB">
                        <feFlood flood-opacity="0" result="BackgroundImageFix"></feFlood>
                        <feColorMatrix in="SourceAlpha" type="matrix" values="0 0 0 0 0 0 0 0 0 0 0 0 0 0 0 0 0 0 127 0" result="hardAlpha"></feColorMatrix>
                        <feOffset dy="4.75666"></feOffset>
                        <feGaussianBlur stdDeviation="31.5128"></feGaussianBlur>
                        <feComposite in2="hardAlpha" operator="out"></feComposite>
                        <feColorMatrix type="matrix" values="0 0 0 0 0 0 0 0 0 0 0 0 0 0 0 0 0 0 0.07 0">
                        </feColorMatrix>
                        <feBlend mode="normal" in2="BackgroundImageFix" result="effect1_dropShadow_12055_1020">
                        </feBlend>
                        <feBlend mode="normal" in="SourceGraphic" in2="effect1_dropShadow_12055_1020" result="shape">
                        </feBlend>
                    </filter>
                    <filter id="filter1_d_12055_1020" x="325.701" y="254.3" width="102.857" height="90.5455" filterUnits="userSpaceOnUse" color-interpolation-filters="sRGB">
                        <feFlood flood-opacity="0" result="BackgroundImageFix"></feFlood>
                        <feColorMatrix in="SourceAlpha" type="matrix" values="0 0 0 0 0 0 0 0 0 0 0 0 0 0 0 0 0 0 127 0" result="hardAlpha"></feColorMatrix>
                        <feOffset dy="4.75666"></feOffset>
                        <feGaussianBlur stdDeviation="18.432"></feGaussianBlur>
                        <feComposite in2="hardAlpha" operator="out"></feComposite>
                        <feColorMatrix type="matrix" values="0 0 0 0 0 0 0 0 0 0 0 0 0 0 0 0 0 0 0.25 0">
                        </feColorMatrix>
                        <feBlend mode="normal" in2="BackgroundImageFix" result="effect1_dropShadow_12055_1020">
                        </feBlend>
                        <feBlend mode="normal" in="SourceGraphic" in2="effect1_dropShadow_12055_1020" result="shape">
                        </feBlend>
                    </filter>
                    <filter id="filter2_d_12055_1020" x="332.984" y="258.505" width="88.2924" height="82.1368" filterUnits="userSpaceOnUse" color-interpolation-filters="sRGB">
                        <feFlood flood-opacity="0" result="BackgroundImageFix"></feFlood>
                        <feColorMatrix in="SourceAlpha" type="matrix" values="0 0 0 0 0 0 0 0 0 0 0 0 0 0 0 0 0 0 127 0" result="hardAlpha"></feColorMatrix>
                        <feOffset dy="4.75666"></feOffset>
                        <feGaussianBlur stdDeviation="18.432"></feGaussianBlur>
                        <feComposite in2="hardAlpha" operator="out"></feComposite>
                        <feColorMatrix type="matrix" values="0 0 0 0 0 0 0 0 0 0 0 0 0 0 0 0 0 0 0.25 0">
                        </feColorMatrix>
                        <feBlend mode="normal" in2="BackgroundImageFix" result="effect1_dropShadow_12055_1020">
                        </feBlend>
                        <feBlend mode="normal" in="SourceGraphic" in2="effect1_dropShadow_12055_1020" result="shape">
                        </feBlend>
                    </filter>
                    <filter id="filter3_d_12055_1020" x="373.074" y="221.003" width="102.857" height="90.5455" filterUnits="userSpaceOnUse" color-interpolation-filters="sRGB">
                        <feFlood flood-opacity="0" result="BackgroundImageFix"></feFlood>
                        <feColorMatrix in="SourceAlpha" type="matrix" values="0 0 0 0 0 0 0 0 0 0 0 0 0 0 0 0 0 0 127 0" result="hardAlpha"></feColorMatrix>
                        <feOffset dy="4.75666"></feOffset>
                        <feGaussianBlur stdDeviation="18.432"></feGaussianBlur>
                        <feComposite in2="hardAlpha" operator="out"></feComposite>
                        <feColorMatrix type="matrix" values="0 0 0 0 0 0 0 0 0 0 0 0 0 0 0 0 0 0 0.25 0">
                        </feColorMatrix>
                        <feBlend mode="normal" in2="BackgroundImageFix" result="effect1_dropShadow_12055_1020">
                        </feBlend>
                        <feBlend mode="normal" in="SourceGraphic" in2="effect1_dropShadow_12055_1020" result="shape">
                        </feBlend>
                    </filter>
                    <filter id="filter4_d_12055_1020" x="380.357" y="225.208" width="88.2924" height="82.1368" filterUnits="userSpaceOnUse" color-interpolation-filters="sRGB">
                        <feFlood flood-opacity="0" result="BackgroundImageFix"></feFlood>
                        <feColorMatrix in="SourceAlpha" type="matrix" values="0 0 0 0 0 0 0 0 0 0 0 0 0 0 0 0 0 0 127 0" result="hardAlpha"></feColorMatrix>
                        <feOffset dy="4.75666"></feOffset>
                        <feGaussianBlur stdDeviation="18.432"></feGaussianBlur>
                        <feComposite in2="hardAlpha" operator="out"></feComposite>
                        <feColorMatrix type="matrix" values="0 0 0 0 0 0 0 0 0 0 0 0 0 0 0 0 0 0 0.25 0">
                        </feColorMatrix>
                        <feBlend mode="normal" in2="BackgroundImageFix" result="effect1_dropShadow_12055_1020">
                        </feBlend>
                        <feBlend mode="normal" in="SourceGraphic" in2="effect1_dropShadow_12055_1020" result="shape">
                        </feBlend>
                    </filter>
                    <filter id="filter5_d_12055_1020" x="372.357" y="165.605" width="233.022" height="149.613" filterUnits="userSpaceOnUse" color-interpolation-filters="sRGB">
                        <feFlood flood-opacity="0" result="BackgroundImageFix"></feFlood>
                        <feColorMatrix in="SourceAlpha" type="matrix" values="0 0 0 0 0 0 0 0 0 0 0 0 0 0 0 0 0 0 127 0" result="hardAlpha"></feColorMatrix>
                        <feOffset dy="4.75666"></feOffset>
                        <feGaussianBlur stdDeviation="8.91873"></feGaussianBlur>
                        <feComposite in2="hardAlpha" operator="out"></feComposite>
                        <feColorMatrix type="matrix" values="0 0 0 0 0 0 0 0 0 0 0 0 0 0 0 0 0 0 0.1 0"></feColorMatrix>
                        <feBlend mode="normal" in2="BackgroundImageFix" result="effect1_dropShadow_12055_1020">
                        </feBlend>
                        <feBlend mode="normal" in="SourceGraphic" in2="effect1_dropShadow_12055_1020" result="shape">
                        </feBlend>
                    </filter>
                    <filter id="filter6_d_12055_1020" x="381.084" y="175.088" width="86.8361" height="81.296" filterUnits="userSpaceOnUse" color-interpolation-filters="sRGB">
                        <feFlood flood-opacity="0" result="BackgroundImageFix"></feFlood>
                        <feColorMatrix in="SourceAlpha" type="matrix" values="0 0 0 0 0 0 0 0 0 0 0 0 0 0 0 0 0 0 127 0" result="hardAlpha"></feColorMatrix>
                        <feOffset dy="4.75666"></feOffset>
                        <feGaussianBlur stdDeviation="18.432"></feGaussianBlur>
                        <feComposite in2="hardAlpha" operator="out"></feComposite>
                        <feColorMatrix type="matrix" values="0 0 0 0 0 0 0 0 0 0 0 0 0 0 0 0 0 0 0.25 0">
                        </feColorMatrix>
                        <feBlend mode="normal" in2="BackgroundImageFix" result="effect1_dropShadow_12055_1020">
                        </feBlend>
                        <feBlend mode="normal" in="SourceGraphic" in2="effect1_dropShadow_12055_1020" result="shape">
                        </feBlend>
                    </filter>
                    <filter id="filter7_d_12055_1020" x="402.711" y="162.602" width="86.8361" height="81.296" filterUnits="userSpaceOnUse" color-interpolation-filters="sRGB">
                        <feFlood flood-opacity="0" result="BackgroundImageFix"></feFlood>
                        <feColorMatrix in="SourceAlpha" type="matrix" values="0 0 0 0 0 0 0 0 0 0 0 0 0 0 0 0 0 0 127 0" result="hardAlpha"></feColorMatrix>
                        <feOffset dy="4.75666"></feOffset>
                        <feGaussianBlur stdDeviation="18.432"></feGaussianBlur>
                        <feComposite in2="hardAlpha" operator="out"></feComposite>
                        <feColorMatrix type="matrix" values="0 0 0 0 0 0 0 0 0 0 0 0 0 0 0 0 0 0 0.25 0">
                        </feColorMatrix>
                        <feBlend mode="normal" in2="BackgroundImageFix" result="effect1_dropShadow_12055_1020">
                        </feBlend>
                        <feBlend mode="normal" in="SourceGraphic" in2="effect1_dropShadow_12055_1020" result="shape">
                        </feBlend>
                    </filter>
                    <clipPath id="clip0_12055_1020">
                        <path width="710" height="387" transform="matrix(0.866025 0.5 -0.866025 0.5 386.906 51.8986)" fill="white" d="M 23,0 L 687,0 A 23,23,0,0,1,710,23 L 710,364 A 23,23,0,0,1,687,387 L 23,387 A 23,23,0,0,1,0,364 L 0,23 A 23,23,0,0,1,23,0" class="vPPWcXJV_29"></path>
                    </clipPath>
                </defs>
            </svg>