<svg width="973" height="77" viewBox="0 0 973 77" fill="none" xmlns="http://www.w3.org/2000/svg">
<path fill-rule="evenodd" clip-rule="evenodd" d="M839.247 27.8537C831.853 31.4281 825.109 35.2578 819.051 39.2999C793.22 56.5348 764.874 77 733.821 77L245.456 77C214.403 77 186.056 56.5348 160.225 39.2999C154.167 35.2578 147.423 31.4281 140.029 27.8537C104.6 10.7252 57.0475 0.805481 7.12201 0.0470138C7.38953 0.0159747 7.66162 1.88759e-05 7.9375 1.88879e-05L971.338 6.09995e-05C971.614 6.10116e-05 971.886 0.0160051 972.154 0.0470216C922.228 0.805575 874.676 10.7253 839.247 27.8537ZM0.937683 6.94884C0.937561 6.96589 0.9375 6.98294 0.9375 7.00001L0.937497 70C0.937497 70.017 0.937558 70.0341 0.93768 70.0512L0.937683 6.94884Z" fill="#21A038"/>
</svg>
