<svg class="main_screen_pic cta aos-init aos-animate" data-aos="fade-left" data-aos-duration="600" data-aos-offset="600" data-aos-easing="ease-in-out" data-aos-delay="500" width="894" height="570" viewBox="0 0 894 570" fill="none" xmlns="http://www.w3.org/2000/svg">
                <g filter="url(#filter0_d_12055_1007)">
                    <g clip-path="url(#clip0_12055_1007)">
                        <rect width="430.477" height="482.801" rx="23.7833" transform="matrix(0.866025 0.5 -0.866025 0.5 469.911 51.5805)" fill="white"></rect>
                        <path d="M537.082 150.414L551.631 142.014L564.496 149.442L549.947 157.842L547.287 156.306L560.215 148.842L560.173 149.586L551.381 144.51L552.67 144.486L539.742 151.95L537.082 150.414ZM560.181 163.919C559.281 163.399 558.664 162.803 558.331 162.131C558.013 161.467 558.047 160.767 558.435 160.031C558.851 159.295 559.703 158.555 560.992 157.811C562.294 157.059 563.569 156.563 564.816 156.323C566.077 156.091 567.276 156.071 568.412 156.263C569.562 156.447 570.608 156.811 571.55 157.355C572.645 157.987 573.372 158.679 573.733 159.431C574.107 160.191 574.114 160.955 573.754 161.723C573.407 162.499 572.659 163.219 571.509 163.883C570.359 164.547 569.105 164.983 567.747 165.191C566.417 165.399 565.093 165.395 563.777 165.179C562.474 164.971 561.276 164.551 560.181 163.919ZM550.142 162.611L565.273 153.875L567.747 155.303L565.128 156.815L562.093 158.471L559.35 160.295L552.74 164.111L550.142 162.611ZM562.114 162.467C562.738 162.827 563.431 163.067 564.193 163.187C564.969 163.315 565.765 163.311 566.583 163.175C567.4 163.039 568.162 162.767 568.869 162.359C569.59 161.943 570.061 161.503 570.283 161.039C570.518 160.567 570.525 160.107 570.303 159.659C570.095 159.219 569.68 158.819 569.056 158.459C568.433 158.099 567.733 157.855 566.957 157.727C566.181 157.599 565.384 157.603 564.567 157.739C563.763 157.867 563.001 158.139 562.28 158.555C561.574 158.963 561.103 159.403 560.867 159.875C560.632 160.347 560.625 160.807 560.846 161.255C561.068 161.703 561.491 162.107 562.114 162.467ZM573.762 171.76C572.626 171.104 571.857 170.38 571.455 169.588C571.067 168.788 571.046 167.992 571.393 167.2C571.739 166.408 572.459 165.696 573.554 165.064C574.663 164.424 575.896 164.008 577.254 163.816C578.626 163.616 579.997 163.632 581.369 163.864C582.741 164.096 583.995 164.54 585.131 165.196C586.281 165.86 587.057 166.588 587.459 167.38C587.875 168.18 587.909 168.968 587.563 169.744C587.23 170.528 586.503 171.244 585.381 171.892C584.286 172.524 583.053 172.94 581.681 173.14C580.323 173.348 578.944 173.336 577.545 173.104C576.173 172.872 574.912 172.424 573.762 171.76ZM575.986 170.476C576.623 170.844 577.33 171.092 578.106 171.22C578.882 171.348 579.672 171.34 580.475 171.196C581.293 171.06 582.055 170.788 582.762 170.38C583.482 169.964 583.953 169.524 584.175 169.06C584.424 168.596 584.438 168.14 584.217 167.692C583.995 167.244 583.572 166.84 582.949 166.48C582.311 166.112 581.605 165.864 580.829 165.736C580.067 165.616 579.277 165.624 578.459 165.76C577.656 165.888 576.894 166.16 576.173 166.576C575.466 166.984 574.995 167.424 574.76 167.896C574.524 168.368 574.51 168.824 574.718 169.264C574.94 169.712 575.362 170.116 575.986 170.476ZM582.813 176.818L593.912 170.41L596.51 171.91L587.615 177.046L592.915 180.106L601.81 174.97L604.409 176.47L593.31 182.878L582.813 176.818ZM590.088 183.874L592.624 182.41L593.164 182.794L590.712 181.378L592.915 180.106L597.196 182.578L592.52 185.278L590.088 183.874ZM602.751 188.497C601.518 187.785 600.68 187.021 600.236 186.205C599.821 185.389 599.786 184.585 600.132 183.793C600.493 183.009 601.22 182.301 602.315 181.669C603.423 181.029 604.643 180.605 605.973 180.397C607.331 180.189 608.682 180.193 610.026 180.409C611.384 180.633 612.617 181.065 613.726 181.705C614.806 182.329 615.534 183.021 615.908 183.781C616.282 184.541 616.282 185.309 615.908 186.085C615.534 186.861 614.765 187.585 613.601 188.257C613.49 188.321 613.358 188.389 613.206 188.461C613.067 188.541 612.929 188.613 612.79 188.677L603.541 183.337L605.266 182.341L613.144 186.889L611.585 186.613C612.236 186.253 612.666 185.853 612.873 185.413C613.081 184.973 613.081 184.533 612.873 184.093C612.679 183.661 612.271 183.265 611.647 182.905C611.01 182.537 610.31 182.293 609.548 182.173C608.8 182.061 608.038 182.069 607.262 182.197C606.513 182.325 605.807 182.581 605.142 182.965L604.726 183.205C604.061 183.589 603.624 184.017 603.416 184.489C603.209 184.961 603.243 185.437 603.52 185.917C603.797 186.397 604.296 186.845 605.017 187.261C605.64 187.621 606.299 187.889 606.991 188.065C607.684 188.241 608.432 188.321 609.236 188.305L609.028 190.033C607.947 190.081 606.867 189.977 605.786 189.721C604.733 189.465 603.721 189.057 602.751 188.497ZM616.276 196.306C615.112 195.634 614.316 194.894 613.886 194.086C613.484 193.278 613.456 192.478 613.803 191.686C614.149 190.894 614.87 190.182 615.964 189.55C617.073 188.91 618.306 188.494 619.664 188.302C621.036 188.102 622.415 188.122 623.8 188.362C625.2 188.61 626.481 189.07 627.645 189.742C628.726 190.366 629.454 191.042 629.828 191.77C630.23 192.498 630.223 193.23 629.807 193.966L626.648 193.486C626.842 192.99 626.821 192.53 626.585 192.106C626.364 191.69 625.976 191.322 625.421 191.002C624.784 190.634 624.07 190.382 623.281 190.246C622.491 190.11 621.687 190.11 620.87 190.246C620.066 190.374 619.304 190.646 618.583 191.062C617.863 191.478 617.385 191.922 617.149 192.394C616.928 192.858 616.934 193.318 617.17 193.774C617.406 194.23 617.842 194.642 618.479 195.01C619.034 195.33 619.671 195.554 620.392 195.682C621.126 195.818 621.923 195.83 622.782 195.718L623.613 197.542C622.352 197.774 621.077 197.782 619.789 197.566C618.528 197.35 617.357 196.93 616.276 196.306ZM628.607 203.424C627.443 202.752 626.646 202.012 626.216 201.204C625.814 200.396 625.787 199.596 626.133 198.804C626.48 198.012 627.2 197.3 628.295 196.668C629.403 196.028 630.637 195.612 631.994 195.42C633.366 195.22 634.745 195.24 636.131 195.48C637.53 195.728 638.812 196.188 639.976 196.86C641.057 197.484 641.784 198.16 642.158 198.888C642.56 199.616 642.553 200.348 642.137 201.084L638.978 200.604C639.172 200.108 639.151 199.648 638.916 199.224C638.694 198.808 638.306 198.44 637.752 198.12C637.114 197.752 636.401 197.5 635.611 197.364C634.821 197.228 634.017 197.228 633.2 197.364C632.396 197.492 631.634 197.764 630.914 198.18C630.193 198.596 629.715 199.04 629.48 199.512C629.258 199.976 629.265 200.436 629.5 200.892C629.736 201.348 630.172 201.76 630.81 202.128C631.364 202.448 632.001 202.672 632.722 202.8C633.456 202.936 634.253 202.948 635.112 202.836L635.944 204.66C634.683 204.892 633.408 204.9 632.119 204.684C630.858 204.468 629.687 204.048 628.607 203.424Z" fill="#3B3B3B"></path>
                        <g filter="url(#filter1_d_12055_1007)">
                            <rect width="354.371" height="66.5932" rx="33.2966" transform="matrix(0.866025 0.5 -0.866025 0.5 175.376 259.685)" fill="#21A038"></rect>
                        </g>
                        <rect width="139" height="66.7291" rx="13.0808" transform="matrix(0.866025 0.5 -0.866025 0.5 403.663 235.829)" fill="#FAFAFA"></rect>
                        <path d="M399.567 282.506C397.918 281.554 396.731 280.596 396.004 279.633C395.298 278.681 395.062 277.763 395.298 276.879C395.572 275.995 396.318 275.201 397.535 274.499C398.713 273.819 400.019 273.416 401.452 273.292C402.924 273.167 404.475 273.314 406.104 273.734C407.753 274.164 409.421 274.867 411.11 275.842C412.778 276.805 413.985 277.763 414.731 278.715C415.477 279.667 415.742 280.568 415.526 281.418C415.35 282.268 414.672 283.033 413.495 283.713C412.278 284.415 410.894 284.84 409.343 284.988C407.812 285.124 406.212 284.982 404.543 284.563C402.875 284.143 401.216 283.458 399.567 282.506ZM401.363 281.469C403.189 282.523 404.985 283.129 406.752 283.288C408.538 283.458 410.069 283.174 411.345 282.438C412.621 281.701 413.102 280.823 412.788 279.803C412.513 278.783 411.463 277.746 409.637 276.692C407.812 275.638 406.016 275.031 404.249 274.873C402.502 274.703 400.99 274.986 399.714 275.723C398.438 276.459 397.938 277.338 398.213 278.358C398.488 279.378 399.538 280.415 401.363 281.469ZM409.902 276.539C408.371 275.655 407.272 274.782 406.605 273.921C405.957 273.071 405.731 272.26 405.927 271.49C406.143 270.708 406.791 270.005 407.871 269.382C409.009 268.724 410.275 268.333 411.669 268.209C413.102 268.084 414.574 268.209 416.086 268.583C417.597 268.957 419.079 269.563 420.532 270.402C421.985 271.24 423.035 272.096 423.683 272.969C424.35 273.853 424.576 274.708 424.36 275.536C424.163 276.352 423.496 277.088 422.358 277.746C421.278 278.369 420.061 278.743 418.706 278.868C417.372 278.981 415.948 278.839 414.437 278.443C412.945 278.057 411.433 277.423 409.902 276.539ZM411.316 275.723C412.925 276.652 414.515 277.185 416.086 277.321C417.656 277.457 419.001 277.202 420.12 276.556C421.297 275.876 421.739 275.077 421.445 274.159C421.19 273.241 420.287 272.334 418.736 271.439C417.185 270.543 415.615 270.022 414.025 269.875C412.454 269.716 411.09 269.971 409.932 270.64C408.793 271.297 408.332 272.073 408.548 272.969C408.783 273.875 409.706 274.793 411.316 275.723ZM438.484 280.767C440.31 281.821 441.439 282.948 441.87 284.15C442.322 285.34 442.106 286.564 441.223 287.822C440.339 289.08 438.808 290.338 436.629 291.596C434.313 292.933 431.957 293.828 429.563 294.282C427.187 294.746 424.891 294.803 422.672 294.452C420.454 294.1 418.413 293.386 416.548 292.31C415.625 291.777 414.83 291.216 414.163 290.627C413.515 290.049 413.054 289.454 412.779 288.842L415.341 288.349C415.517 288.859 415.871 289.357 416.401 289.845C416.97 290.332 417.628 290.791 418.373 291.222C420.592 292.502 423.065 293.114 425.794 293.058C428.542 293.012 431.319 292.179 434.126 290.559C434.578 290.298 435.088 289.969 435.658 289.573C436.247 289.187 436.767 288.762 437.218 288.298L437.395 289.046C436.178 289.522 434.882 289.782 433.508 289.828C432.173 289.873 430.848 289.731 429.533 289.403C428.238 289.085 427.02 288.598 425.882 287.941C424.527 287.159 423.575 286.314 423.026 285.408C422.496 284.512 422.398 283.628 422.731 282.756C423.065 281.883 423.86 281.084 425.116 280.359C426.412 279.611 427.835 279.14 429.386 278.948C430.937 278.755 432.497 278.817 434.068 279.135C435.677 279.452 437.149 279.996 438.484 280.767ZM436.777 281.855C435.795 281.288 434.735 280.891 433.596 280.665C432.497 280.438 431.398 280.393 430.299 280.529C429.199 280.665 428.188 280.999 427.266 281.532C425.911 282.314 425.293 283.203 425.411 284.201C425.548 285.209 426.412 286.173 428.002 287.091C429.062 287.703 430.181 288.122 431.359 288.349C432.556 288.587 433.714 288.632 434.833 288.485C435.972 288.349 436.963 288.037 437.807 287.55C438.573 287.108 439.083 286.575 439.338 285.952C439.593 285.328 439.525 284.665 439.132 283.963C438.759 283.249 437.974 282.546 436.777 281.855ZM432.577 301.36L467.263 297.586L469 298.589L434.314 302.363L432.577 301.36ZM443.737 296.753C442.814 296.22 442.225 295.62 441.97 294.951C441.734 294.271 441.842 293.574 442.294 292.86C442.765 292.157 443.56 291.483 444.679 290.837C445.798 290.191 446.966 289.732 448.183 289.46C449.419 289.199 450.617 289.143 451.775 289.29C452.953 289.426 454.003 289.76 454.926 290.293C455.848 290.826 456.417 291.426 456.633 292.095C456.889 292.764 456.79 293.455 456.339 294.169C455.887 294.883 455.102 295.563 453.983 296.209C452.864 296.855 451.687 297.308 450.45 297.569C449.213 297.83 448.006 297.892 446.828 297.756C445.69 297.62 444.659 297.286 443.737 296.753ZM445.062 295.988C446.023 296.543 447.162 296.77 448.477 296.668C449.832 296.566 451.176 296.13 452.511 295.359C453.846 294.588 454.592 293.818 454.749 293.047C454.945 292.276 454.562 291.613 453.601 291.058C452.619 290.491 451.461 290.265 450.126 290.378C448.811 290.48 447.486 290.916 446.151 291.687C444.816 292.458 444.051 293.228 443.854 293.999C443.678 294.758 444.08 295.421 445.062 295.988ZM446.652 309.656C445.749 309.135 445.17 308.54 444.914 307.871C444.679 307.191 444.787 306.494 445.238 305.78C445.69 305.066 446.475 304.386 447.594 303.74C448.713 303.094 449.891 302.641 451.127 302.38C452.364 302.119 453.561 302.063 454.719 302.21C455.897 302.346 456.938 302.675 457.841 303.196C458.783 303.74 459.362 304.346 459.578 305.015C459.833 305.684 459.725 306.369 459.254 307.072C458.803 307.786 458.017 308.466 456.898 309.112C455.779 309.758 454.602 310.211 453.365 310.472C452.148 310.744 450.951 310.812 449.773 310.676C448.634 310.54 447.594 310.2 446.652 309.656ZM447.977 308.891C448.938 309.446 450.077 309.673 451.392 309.571C452.747 309.469 454.091 309.033 455.426 308.262C456.761 307.491 457.507 306.721 457.664 305.95C457.86 305.179 457.477 304.516 456.516 303.961C455.554 303.406 454.396 303.179 453.041 303.281C451.726 303.383 450.401 303.819 449.066 304.59C447.731 305.361 446.966 306.131 446.769 306.902C446.612 307.673 447.015 308.336 447.977 308.891Z" fill="#3B3B3B"></path>
                        <mask id="path-6-inside-1_12055_1007" fill="white">
                            <path d="M549.754 377.726C568.218 367.066 582.865 354.41 592.857 340.482C602.85 326.553 607.993 311.625 607.993 296.549C607.993 281.473 602.85 266.545 592.857 252.617C582.865 238.688 568.218 226.033 549.754 215.372C531.29 204.712 509.369 196.256 485.245 190.487C461.12 184.717 435.264 181.748 409.151 181.748C383.039 181.748 357.183 184.717 333.058 190.487C308.933 196.256 287.013 204.712 268.549 215.372L289.268 227.335C305.012 218.245 323.702 211.035 344.271 206.116C364.841 201.197 386.887 198.665 409.151 198.665C431.416 198.665 453.462 201.197 474.032 206.116C494.601 211.035 513.291 218.245 529.035 227.335C544.778 236.424 557.266 247.215 565.787 259.09C574.307 270.966 578.692 283.695 578.692 296.549C578.692 309.404 574.307 322.132 565.787 334.008C557.266 345.884 544.778 356.674 529.035 365.764L549.754 377.726Z"></path>
                        </mask>
                        <path d="M549.754 377.726C568.218 367.066 582.865 354.41 592.857 340.482C602.85 326.553 607.993 311.625 607.993 296.549C607.993 281.473 602.85 266.545 592.857 252.617C582.865 238.688 568.218 226.033 549.754 215.372C531.29 204.712 509.369 196.256 485.245 190.487C461.12 184.717 435.264 181.748 409.151 181.748C383.039 181.748 357.183 184.717 333.058 190.487C308.933 196.256 287.013 204.712 268.549 215.372L289.268 227.335C305.012 218.245 323.702 211.035 344.271 206.116C364.841 201.197 386.887 198.665 409.151 198.665C431.416 198.665 453.462 201.197 474.032 206.116C494.601 211.035 513.291 218.245 529.035 227.335C544.778 236.424 557.266 247.215 565.787 259.09C574.307 270.966 578.692 283.695 578.692 296.549C578.692 309.404 574.307 322.132 565.787 334.008C557.266 345.884 544.778 356.674 529.035 365.764L549.754 377.726Z" fill="#D9D9D9" stroke="#E8E8E8" stroke-width="92.7548" mask="url(#path-6-inside-1_12055_1007)"></path>
                        <mask id="path-7-inside-2_12055_1007" fill="white">
                            <path d="M581.353 239.148C566.139 223.935 545.081 210.94 519.801 201.164C494.52 191.389 465.69 185.093 435.532 182.762C405.374 180.432 374.692 182.128 345.848 187.72C317.004 193.313 290.768 202.653 269.159 215.021L289.788 227.035C308.213 216.489 330.583 208.526 355.176 203.757C379.77 198.989 405.931 197.543 431.645 199.53C457.359 201.517 481.94 206.885 503.495 215.22C525.051 223.555 543.006 234.635 555.977 247.607L581.353 239.148Z"></path>
                        </mask>
                        <path d="M581.353 239.148C566.139 223.935 545.081 210.94 519.801 201.164C494.52 191.389 465.69 185.093 435.532 182.762C405.374 180.432 374.692 182.128 345.848 187.72C317.004 193.313 290.768 202.653 269.159 215.021L289.788 227.035C308.213 216.489 330.583 208.526 355.176 203.757C379.77 198.989 405.931 197.543 431.645 199.53C457.359 201.517 481.94 206.885 503.495 215.22C525.051 223.555 543.006 234.635 555.977 247.607L581.353 239.148Z" fill="#46D961" stroke="#46D961" stroke-width="92.7548" mask="url(#path-7-inside-2_12055_1007)"></path>
                        <rect width="3.37066" height="35.718" transform="matrix(0.613497 0.611997 -1.06001 0.354203 586.482 235.681)" fill="#22C9B1"></rect>
                        <path d="M233.476 242.242C232.54 241.702 231.952 241.082 231.709 240.382C231.478 239.675 231.611 238.939 232.107 238.172C232.615 237.399 233.516 236.639 234.809 235.892C236.103 235.145 237.413 234.629 238.741 234.342C240.081 234.049 241.357 233.972 242.569 234.112C243.793 234.245 244.873 234.582 245.808 235.122C246.743 235.662 247.326 236.285 247.557 236.992C247.8 237.692 247.667 238.429 247.159 239.202C246.674 239.975 245.785 240.735 244.492 241.482C243.198 242.229 241.876 242.745 240.525 243.032C239.197 243.319 237.921 243.395 236.697 243.262C235.485 243.122 234.411 242.782 233.476 242.242ZM234.619 241.582C235.335 241.995 236.149 242.245 237.061 242.332C237.985 242.412 238.966 242.325 240.006 242.072C241.056 241.812 242.124 241.369 243.21 240.742C244.295 240.115 245.057 239.502 245.496 238.902C245.946 238.295 246.097 237.729 245.946 237.202C245.808 236.669 245.381 236.195 244.665 235.782C243.972 235.382 243.158 235.139 242.223 235.052C241.299 234.959 240.312 235.042 239.261 235.302C238.222 235.555 237.159 235.995 236.074 236.622C234.988 237.249 234.221 237.865 233.77 238.472C233.331 239.072 233.187 239.642 233.337 240.182C233.499 240.715 233.926 241.182 234.619 241.582ZM242.19 247.153L262.593 244.933L263.615 245.523L243.212 247.743L242.19 247.153ZM248.754 244.443C248.212 244.13 247.865 243.777 247.715 243.383C247.577 242.983 247.64 242.573 247.906 242.153C248.183 241.74 248.65 241.343 249.309 240.963C249.967 240.583 250.654 240.313 251.37 240.153C252.097 240 252.802 239.967 253.483 240.053C254.176 240.133 254.793 240.33 255.336 240.643C255.879 240.957 256.214 241.31 256.341 241.703C256.491 242.097 256.433 242.503 256.167 242.923C255.902 243.343 255.44 243.743 254.782 244.123C254.124 244.503 253.431 244.77 252.703 244.923C251.976 245.077 251.266 245.113 250.573 245.033C249.903 244.953 249.297 244.757 248.754 244.443ZM249.534 243.993C250.1 244.32 250.769 244.453 251.543 244.393C252.34 244.333 253.131 244.077 253.916 243.623C254.701 243.17 255.14 242.717 255.232 242.263C255.348 241.81 255.122 241.42 254.557 241.093C253.979 240.76 253.298 240.627 252.513 240.693C251.739 240.753 250.96 241.01 250.175 241.463C249.389 241.917 248.939 242.37 248.824 242.823C248.72 243.27 248.956 243.66 249.534 243.993ZM250.469 252.033C249.938 251.727 249.597 251.377 249.447 250.983C249.309 250.583 249.372 250.173 249.638 249.753C249.903 249.333 250.365 248.933 251.023 248.553C251.681 248.173 252.374 247.907 253.102 247.753C253.829 247.6 254.534 247.567 255.215 247.653C255.908 247.733 256.52 247.927 257.051 248.233C257.605 248.553 257.946 248.91 258.073 249.303C258.223 249.697 258.159 250.1 257.882 250.513C257.617 250.933 257.155 251.333 256.497 251.713C255.838 252.093 255.146 252.36 254.418 252.513C253.702 252.673 252.998 252.713 252.305 252.633C251.635 252.553 251.023 252.353 250.469 252.033ZM251.248 251.583C251.814 251.91 252.484 252.043 253.258 251.983C254.054 251.923 254.845 251.667 255.631 251.213C256.416 250.76 256.855 250.307 256.947 249.853C257.062 249.4 256.837 249.01 256.271 248.683C255.706 248.357 255.024 248.223 254.228 248.283C253.454 248.343 252.675 248.6 251.889 249.053C251.104 249.507 250.654 249.96 250.538 250.413C250.446 250.867 250.683 251.257 251.248 251.583Z" fill="#3B3B3B"></path>
                        <path d="M478.29 383.466L489.895 376.766L489.86 377.426L486.448 375.456L487.556 374.816L491.661 377.186L479.537 384.186L478.29 383.466ZM487.51 388.909C486.575 388.369 485.986 387.749 485.743 387.049C485.512 386.342 485.645 385.606 486.142 384.839C486.65 384.066 487.55 383.306 488.844 382.559C490.137 381.812 491.448 381.296 492.776 381.009C494.115 380.716 495.391 380.639 496.603 380.779C497.827 380.912 498.907 381.249 499.842 381.789C500.778 382.329 501.361 382.952 501.592 383.659C501.834 384.359 501.701 385.096 501.193 385.869C500.708 386.642 499.819 387.402 498.526 388.149C497.233 388.896 495.911 389.412 494.56 389.699C493.232 389.986 491.956 390.062 490.732 389.929C489.519 389.789 488.445 389.449 487.51 388.909ZM488.653 388.249C489.369 388.662 490.183 388.912 491.095 388.999C492.019 389.079 493.001 388.992 494.04 388.739C495.091 388.479 496.159 388.036 497.244 387.409C498.33 386.782 499.092 386.169 499.531 385.569C499.981 384.962 500.131 384.396 499.981 383.869C499.842 383.336 499.415 382.862 498.699 382.449C498.006 382.049 497.192 381.806 496.257 381.719C495.333 381.626 494.346 381.709 493.295 381.969C492.256 382.222 491.194 382.662 490.108 383.289C489.023 383.916 488.255 384.532 487.805 385.139C487.366 385.739 487.221 386.309 487.372 386.849C487.533 387.382 487.96 387.849 488.653 388.249ZM499.325 395.73C498.389 395.19 497.8 394.57 497.558 393.87C497.327 393.163 497.46 392.427 497.956 391.66C498.464 390.887 499.365 390.127 500.658 389.38C501.952 388.633 503.262 388.117 504.59 387.83C505.929 387.537 507.205 387.46 508.418 387.6C509.642 387.733 510.721 388.07 511.657 388.61C512.592 389.15 513.175 389.773 513.406 390.48C513.649 391.18 513.516 391.917 513.008 392.69C512.523 393.463 511.634 394.223 510.34 394.97C509.047 395.717 507.725 396.233 506.374 396.52C505.046 396.807 503.77 396.883 502.546 396.75C501.334 396.61 500.26 396.27 499.325 395.73ZM500.468 395.07C501.184 395.483 501.998 395.733 502.91 395.82C503.834 395.9 504.815 395.813 505.854 395.56C506.905 395.3 507.973 394.857 509.059 394.23C510.144 393.603 510.906 392.99 511.345 392.39C511.795 391.783 511.945 391.217 511.795 390.69C511.657 390.157 511.23 389.683 510.514 389.27C509.821 388.87 509.007 388.627 508.071 388.54C507.148 388.447 506.16 388.53 505.11 388.79C504.07 389.043 503.008 389.483 501.923 390.11C500.837 390.737 500.069 391.353 499.619 391.96C499.18 392.56 499.036 393.13 499.186 393.67C499.348 394.203 499.775 394.67 500.468 395.07ZM508.039 400.641L528.442 398.421L529.464 399.011L509.061 401.231L508.039 400.641ZM514.603 397.931C514.06 397.618 513.714 397.264 513.564 396.871C513.425 396.471 513.489 396.061 513.754 395.641C514.032 395.228 514.499 394.831 515.157 394.451C515.816 394.071 516.503 393.801 517.219 393.641C517.946 393.488 518.65 393.454 519.332 393.541C520.024 393.621 520.642 393.818 521.185 394.131C521.728 394.444 522.063 394.798 522.19 395.191C522.34 395.584 522.282 395.991 522.016 396.411C521.751 396.831 521.289 397.231 520.631 397.611C519.973 397.991 519.28 398.258 518.552 398.411C517.825 398.564 517.115 398.601 516.422 398.521C515.752 398.441 515.146 398.244 514.603 397.931ZM515.383 397.481C515.948 397.808 516.618 397.941 517.392 397.881C518.188 397.821 518.979 397.564 519.765 397.111C520.55 396.658 520.989 396.204 521.081 395.751C521.196 395.298 520.971 394.908 520.406 394.581C519.828 394.248 519.147 394.114 518.362 394.181C517.588 394.241 516.809 394.498 516.023 394.951C515.238 395.404 514.788 395.858 514.672 396.311C514.569 396.758 514.805 397.148 515.383 397.481ZM516.318 405.521C515.787 405.214 515.446 404.864 515.296 404.471C515.157 404.071 515.221 403.661 515.486 403.241C515.752 402.821 516.214 402.421 516.872 402.041C517.53 401.661 518.223 401.394 518.951 401.241C519.678 401.088 520.382 401.054 521.064 401.141C521.757 401.221 522.369 401.414 522.9 401.721C523.454 402.041 523.795 402.398 523.922 402.791C524.072 403.184 524.008 403.588 523.731 404.001C523.465 404.421 523.004 404.821 522.345 405.201C521.687 405.581 520.994 405.848 520.267 406.001C519.551 406.161 518.847 406.201 518.154 406.121C517.484 406.041 516.872 405.841 516.318 405.521ZM517.097 405.071C517.663 405.398 518.333 405.531 519.106 405.471C519.903 405.411 520.694 405.154 521.479 404.701C522.265 404.248 522.703 403.794 522.796 403.341C522.911 402.888 522.686 402.498 522.12 402.171C521.554 401.844 520.873 401.711 520.076 401.771C519.303 401.831 518.523 402.088 517.738 402.541C516.953 402.994 516.503 403.448 516.387 403.901C516.295 404.354 516.531 404.744 517.097 405.071Z" fill="#3B3B3B"></path>
                        <path d="M257.042 349.371C255.906 348.715 255.047 348.003 254.465 347.235C253.883 346.467 253.571 345.687 253.529 344.895C253.502 344.095 253.744 343.323 254.257 342.579C254.783 341.827 255.587 341.139 256.668 340.515C257.749 339.891 258.933 339.431 260.222 339.135C261.525 338.831 262.862 338.691 264.233 338.715C265.619 338.731 266.977 338.907 268.307 339.243C269.637 339.579 270.864 340.071 271.986 340.719C273.122 341.375 273.975 342.083 274.543 342.843C275.125 343.611 275.429 344.395 275.457 345.195C275.499 345.987 275.256 346.759 274.73 347.511C274.217 348.255 273.42 348.939 272.339 349.563C271.259 350.187 270.067 350.651 268.765 350.955C267.462 351.259 266.125 351.399 264.753 351.375C263.381 351.351 262.03 351.171 260.7 350.835C259.384 350.507 258.164 350.019 257.042 349.371ZM259.391 347.991C260.125 348.415 260.929 348.735 261.802 348.951C262.675 349.167 263.568 349.275 264.483 349.275C265.411 349.267 266.305 349.159 267.164 348.951C268.051 348.743 268.868 348.423 269.617 347.991C270.365 347.559 270.912 347.091 271.259 346.587C271.633 346.083 271.82 345.567 271.82 345.039C271.834 344.503 271.654 343.983 271.279 343.479C270.905 342.975 270.351 342.511 269.617 342.087C268.882 341.663 268.079 341.343 267.206 341.127C266.347 340.919 265.446 340.815 264.504 340.815C263.589 340.815 262.688 340.919 261.802 341.127C260.943 341.335 260.139 341.655 259.391 342.087C258.656 342.511 258.102 342.975 257.728 343.479C257.368 343.991 257.181 344.515 257.167 345.051C257.167 345.579 257.354 346.095 257.728 346.599C258.102 347.103 258.656 347.567 259.391 347.991ZM270.281 356.775L279.8 351.279L279.78 351.987L275.269 349.383L277.472 348.111L287.865 354.111L285.662 355.383L281.172 352.791L282.398 352.779L272.879 358.275L270.281 356.775ZM279.066 361.847L290.165 355.439L292.888 357.011L289.479 364.139L288.398 363.515L300.973 361.679L303.405 363.083L292.327 369.503L289.978 368.147L298.292 363.347L298.437 363.743L287.401 365.315L286.278 364.667L289.167 358.175L289.791 358.391L281.435 363.215L279.066 361.847ZM301.257 374.827C300.024 374.115 299.185 373.351 298.742 372.535C298.326 371.719 298.292 370.915 298.638 370.123C298.998 369.339 299.726 368.631 300.821 367.999C301.929 367.359 303.148 366.935 304.479 366.727C305.837 366.519 307.188 366.523 308.532 366.739C309.89 366.963 311.123 367.395 312.231 368.035C313.312 368.659 314.04 369.351 314.414 370.111C314.788 370.871 314.788 371.639 314.414 372.415C314.04 373.191 313.271 373.915 312.107 374.587C311.996 374.651 311.864 374.719 311.712 374.791C311.573 374.871 311.435 374.943 311.296 375.007L302.047 369.667L303.772 368.671L311.649 373.219L310.09 372.943C310.742 372.583 311.171 372.183 311.379 371.743C311.587 371.303 311.587 370.863 311.379 370.423C311.185 369.991 310.776 369.595 310.153 369.235C309.515 368.867 308.816 368.623 308.054 368.503C307.305 368.391 306.543 368.399 305.767 368.527C305.019 368.655 304.312 368.911 303.647 369.295L303.232 369.535C302.566 369.919 302.13 370.347 301.922 370.819C301.714 371.291 301.749 371.767 302.026 372.247C302.303 372.727 302.802 373.175 303.523 373.591C304.146 373.951 304.804 374.219 305.497 374.395C306.19 374.571 306.938 374.651 307.742 374.635L307.534 376.363C306.453 376.411 305.372 376.307 304.292 376.051C303.238 375.795 302.227 375.387 301.257 374.827ZM309.877 379.636L320.976 373.228L323.574 374.728L319.064 377.332L324.655 380.56L329.165 377.956L331.763 379.456L320.664 385.864L318.066 384.364L322.451 381.832L316.86 378.604L312.475 381.136L309.877 379.636ZM331.296 392.002L333.541 390.706L333.873 390.346L337.801 388.078C338.563 387.638 338.924 387.166 338.882 386.662C338.854 386.15 338.376 385.626 337.448 385.09C336.825 384.73 336.111 384.43 335.307 384.19C334.517 383.958 333.741 383.822 332.979 383.782L333.852 382.102C334.905 382.182 335.952 382.394 336.991 382.738C338.058 383.082 339.035 383.51 339.921 384.022C341.529 384.95 342.381 385.89 342.478 386.842C342.603 387.794 341.861 388.734 340.254 389.662L333.748 393.418L331.296 392.002ZM327.659 390.07C326.827 389.59 326.238 389.09 325.892 388.57C325.559 388.042 325.469 387.534 325.622 387.046C325.802 386.558 326.211 386.13 326.848 385.762C327.471 385.402 328.178 385.162 328.968 385.042C329.772 384.93 330.658 384.986 331.628 385.21C332.598 385.434 333.644 385.87 334.767 386.518L337.988 388.378L336.263 389.374L333.229 387.622C332.342 387.11 331.601 386.85 331.005 386.842C330.423 386.826 329.924 386.938 329.508 387.178C329.037 387.45 328.85 387.774 328.947 388.15C329.044 388.526 329.425 388.906 330.09 389.29C330.728 389.658 331.441 389.902 332.231 390.022C333.035 390.15 333.832 390.114 334.621 389.914L333.499 391.066C332.598 391.298 331.642 391.33 330.631 391.162C329.633 391.002 328.642 390.638 327.659 390.07Z" fill="white"></path>
                    </g>
                </g>
                <defs>
                    <filter id="filter0_d_12055_1007" x="-11.2319" y="-6.68856" width="916.973" height="582.69" filterUnits="userSpaceOnUse" color-interpolation-filters="sRGB">
                        <feFlood flood-opacity="0" result="BackgroundImageFix"></feFlood>
                        <feColorMatrix in="SourceAlpha" type="matrix" values="0 0 0 0 0 0 0 0 0 0 0 0 0 0 0 0 0 0 127 0" result="hardAlpha"></feColorMatrix>
                        <feOffset dy="4.75666"></feOffset>
                        <feGaussianBlur stdDeviation="31.5128"></feGaussianBlur>
                        <feComposite in2="hardAlpha" operator="out"></feComposite>
                        <feColorMatrix type="matrix" values="0 0 0 0 0 0 0 0 0 0 0 0 0 0 0 0 0 0 0.07 0"></feColorMatrix>
                        <feBlend mode="normal" in2="BackgroundImageFix" result="effect1_dropShadow_12055_1007"></feBlend>
                        <feBlend mode="normal" in="SourceGraphic" in2="effect1_dropShadow_12055_1007" result="shape"></feBlend>
                    </filter>
                    <filter id="filter1_d_12055_1007" x="71.5701" y="211.168" width="456.834" height="317.029" filterUnits="userSpaceOnUse" color-interpolation-filters="sRGB">
                        <feFlood flood-opacity="0" result="BackgroundImageFix"></feFlood>
                        <feColorMatrix in="SourceAlpha" type="matrix" values="0 0 0 0 0 0 0 0 0 0 0 0 0 0 0 0 0 0 127 0" result="hardAlpha"></feColorMatrix>
                        <feOffset dy="4.75666"></feOffset>
                        <feGaussianBlur stdDeviation="31.5128"></feGaussianBlur>
                        <feComposite in2="hardAlpha" operator="out"></feComposite>
                        <feColorMatrix type="matrix" values="0 0 0 0 0 0 0 0 0 0 0 0 0 0 0 0 0 0 0.07 0"></feColorMatrix>
                        <feBlend mode="normal" in2="BackgroundImageFix" result="effect1_dropShadow_12055_1007"></feBlend>
                        <feBlend mode="normal" in="SourceGraphic" in2="effect1_dropShadow_12055_1007" result="shape"></feBlend>
                    </filter>
                    <clipPath id="clip0_12055_1007">
                        <rect width="430.477" height="482.801" rx="23.7833" transform="matrix(0.866025 0.5 -0.866025 0.5 469.911 51.5805)" fill="white"></rect>
                    </clipPath>
                </defs>
            </svg>