<svg class="main_screen_pic chart aos-init aos-animate" data-aos="fade-right" data-aos-duration="600" data-aos-offset="600" data-aos-easing="ease-in-out" data-aos-delay="300" width="1000" height="632" viewBox="0 0 1000 632" fill="none" xmlns="http://www.w3.org/2000/svg">
                <g filter="url(#filter0_d_12206_299)">
                    <g clip-path="url(#clip0_12206_299)">
                        <rect width="709.931" height="327.02" rx="23.7833" transform="matrix(0.866025 0.5 -0.866025 0.5 334.208 52)" fill="white"></rect>
                        <path d="M317.213 118.89L331.762 110.49L344.628 117.918L330.079 126.318L327.418 124.782L340.346 117.318L340.305 118.062L331.513 112.986L332.802 112.962L319.873 120.426L317.213 118.89ZM340.313 132.394C339.412 131.874 338.795 131.278 338.463 130.606C338.144 129.942 338.179 129.242 338.567 128.506C338.983 127.77 339.835 127.03 341.123 126.286C342.426 125.534 343.701 125.038 344.948 124.798C346.209 124.566 347.407 124.546 348.543 124.738C349.694 124.922 350.74 125.286 351.682 125.83C352.777 126.462 353.504 127.154 353.864 127.906C354.238 128.666 354.245 129.43 353.885 130.198C353.539 130.974 352.79 131.694 351.64 132.358C350.49 133.022 349.236 133.458 347.878 133.666C346.548 133.874 345.225 133.87 343.908 133.654C342.606 133.446 341.407 133.026 340.313 132.394ZM330.274 131.086L345.405 122.35L347.878 123.778L345.259 125.29L342.225 126.946L339.481 128.77L332.872 132.586L330.274 131.086ZM342.246 130.942C342.869 131.302 343.562 131.542 344.324 131.662C345.1 131.79 345.897 131.786 346.714 131.65C347.532 131.514 348.294 131.242 349.001 130.834C349.721 130.418 350.192 129.978 350.414 129.514C350.65 129.042 350.657 128.582 350.435 128.134C350.227 127.694 349.811 127.294 349.188 126.934C348.564 126.574 347.864 126.33 347.089 126.202C346.313 126.074 345.516 126.078 344.698 126.214C343.895 126.342 343.133 126.614 342.412 127.03C341.705 127.438 341.234 127.878 340.999 128.35C340.763 128.822 340.756 129.282 340.978 129.73C341.2 130.178 341.622 130.582 342.246 130.942ZM349.092 137.295L360.191 130.887L362.789 132.387L355.473 136.611L368.921 135.927L371.29 137.295L360.191 143.703L357.593 142.203L364.909 137.979L351.482 138.675L349.092 137.295ZM369.194 149.141C368.28 148.613 367.601 148.061 367.157 147.485C366.714 146.909 366.513 146.305 366.554 145.673C366.624 145.041 366.963 144.389 367.573 143.717C368.183 143.045 369.097 142.357 370.316 141.653C371.203 141.141 372.09 140.717 372.977 140.381C373.864 140.045 374.75 139.797 375.637 139.637C376.538 139.469 377.446 139.385 378.36 139.385C379.288 139.393 380.217 139.489 381.145 139.673C382.074 139.857 383.016 140.129 383.972 140.489L390.228 142.829L388.274 144.389L382.642 142.241C382.323 142.121 381.921 141.985 381.436 141.833C380.979 141.681 380.452 141.553 379.857 141.449C379.288 141.345 378.651 141.305 377.944 141.329C377.265 141.353 376.531 141.473 375.741 141.689C374.979 141.905 374.169 142.261 373.309 142.757C373.046 142.909 372.852 143.029 372.727 143.117C372.63 143.205 372.513 143.297 372.374 143.393C372.263 143.489 372.069 143.617 371.792 143.777L371.834 142.625C372.818 142.377 373.801 142.249 374.785 142.241C375.797 142.233 376.76 142.341 377.674 142.565C378.616 142.789 379.476 143.125 380.251 143.573C381.291 144.173 381.997 144.829 382.372 145.541C382.746 146.253 382.773 146.965 382.455 147.677C382.136 148.389 381.485 149.029 380.501 149.597C379.476 150.189 378.319 150.569 377.03 150.737C375.741 150.905 374.411 150.857 373.039 150.593C371.695 150.329 370.413 149.845 369.194 149.141ZM371.501 148.049C372.125 148.409 372.804 148.649 373.538 148.769C374.3 148.889 375.048 148.889 375.783 148.769C376.531 148.657 377.196 148.433 377.778 148.097C378.36 147.761 378.727 147.389 378.88 146.981C379.06 146.573 379.039 146.153 378.817 145.721C378.61 145.297 378.18 144.897 377.529 144.521C376.905 144.161 376.219 143.909 375.471 143.765C374.737 143.629 374.009 143.609 373.289 143.705C372.596 143.801 371.965 144.013 371.397 144.341C370.815 144.677 370.42 145.065 370.213 145.505C370.005 145.945 370.005 146.385 370.213 146.825C370.434 147.273 370.864 147.681 371.501 148.049ZM389.584 160.673L400.683 154.265L403.281 155.765L392.182 162.173L389.584 160.673ZM391.226 153.029C392.653 153.853 393.415 154.661 393.512 155.453C393.623 156.253 393.096 156.989 391.932 157.661C390.727 158.357 389.369 158.661 387.858 158.573C386.376 158.485 384.886 158.001 383.39 157.121L378.381 154.205L389.48 147.797L392.078 149.297L388.44 151.397L391.226 153.029ZM385.073 155.885C385.822 156.333 386.563 156.577 387.297 156.617C388.032 156.657 388.718 156.493 389.355 156.125C389.992 155.757 390.249 155.377 390.124 154.985C390.027 154.593 389.597 154.169 388.835 153.713L386.653 152.429L382.891 154.601L385.073 155.885ZM394.489 163.481L396.797 162.293C396.88 162.357 396.956 162.417 397.025 162.473C397.094 162.529 397.164 162.577 397.233 162.617C397.663 162.865 398.127 162.981 398.626 162.965C399.124 162.949 399.651 162.845 400.205 162.653C400.787 162.461 401.376 162.217 401.972 161.921C402.595 161.625 403.205 161.321 403.801 161.009L408.27 158.645L417.249 163.829L406.15 170.237L403.552 168.737L413.154 163.193L413.05 163.949L407.771 160.901L409.059 160.805L405.983 162.413C404.958 162.957 403.96 163.437 402.99 163.853C402.048 164.269 401.141 164.585 400.268 164.801C399.408 165.025 398.591 165.113 397.815 165.065C397.053 165.025 396.346 164.817 395.695 164.441C395.487 164.321 395.279 164.177 395.071 164.009C394.877 163.849 394.683 163.673 394.489 163.481ZM423.075 171.417C424.503 172.241 425.272 173.053 425.383 173.853C425.493 174.653 424.967 175.389 423.803 176.061C422.597 176.757 421.239 177.061 419.729 176.973C418.233 176.877 416.736 176.389 415.24 175.509L410.064 172.497L421.163 166.089L423.761 167.589L420.124 169.689L423.075 171.417ZM416.923 174.273C417.671 174.721 418.413 174.965 419.147 175.005C419.882 175.045 420.567 174.881 421.205 174.513C421.842 174.145 422.099 173.765 421.974 173.373C421.877 172.981 421.447 172.557 420.685 172.101L418.337 170.721L414.575 172.893L416.923 174.273Z" fill="#3B3B3B"></path>
                        <path d="M289.551 139.285C288.821 138.863 288.262 138.402 287.874 137.901C287.504 137.399 287.31 136.887 287.292 136.365C287.292 135.842 287.458 135.335 287.791 134.845C288.142 134.354 288.673 133.903 289.384 133.493C290.096 133.082 290.871 132.778 291.712 132.581C292.571 132.383 293.449 132.287 294.345 132.293C295.259 132.298 296.146 132.41 297.005 132.629C297.874 132.842 298.677 133.162 299.416 133.589C300.146 134.01 300.696 134.471 301.065 134.973C301.444 135.469 301.638 135.975 301.647 136.493C301.666 137.015 301.499 137.522 301.148 138.013C300.807 138.509 300.28 138.962 299.569 139.373C298.857 139.783 298.072 140.087 297.213 140.285C296.363 140.487 295.486 140.583 294.58 140.573C293.684 140.567 292.802 140.458 291.934 140.245C291.075 140.026 290.28 139.706 289.551 139.285ZM290.465 138.757C291.047 139.093 291.68 139.346 292.363 139.517C293.065 139.687 293.777 139.773 294.497 139.773C295.236 139.773 295.948 139.693 296.631 139.533C297.324 139.367 297.961 139.117 298.543 138.781C299.125 138.445 299.555 138.079 299.832 137.685C300.118 137.285 300.257 136.874 300.248 136.453C300.257 136.031 300.109 135.621 299.804 135.221C299.518 134.821 299.084 134.453 298.502 134.117C297.92 133.781 297.278 133.527 296.576 133.357C295.883 133.181 295.167 133.093 294.428 133.093C293.707 133.093 292.996 133.173 292.294 133.333C291.61 133.493 290.978 133.741 290.396 134.077C289.823 134.407 289.393 134.773 289.107 135.173C288.83 135.578 288.687 135.991 288.678 136.413C288.687 136.834 288.839 137.247 289.135 137.653C289.44 138.053 289.883 138.421 290.465 138.757ZM300.394 145.545C299.803 145.204 299.374 144.844 299.106 144.465C298.847 144.092 298.755 143.697 298.829 143.281C298.902 142.865 299.147 142.441 299.563 142.009C299.988 141.572 300.588 141.129 301.364 140.681C302.057 140.281 302.727 139.969 303.373 139.745C304.029 139.516 304.662 139.359 305.272 139.273C305.881 139.188 306.468 139.159 307.032 139.185C307.614 139.212 308.163 139.284 308.68 139.401C309.216 139.519 309.72 139.665 310.191 139.841L314.223 141.289L313.475 141.913L309.706 140.537C309.466 140.452 309.165 140.353 308.805 140.241C308.454 140.135 308.052 140.047 307.6 139.977C307.156 139.913 306.667 139.897 306.131 139.929C305.595 139.961 305.018 140.071 304.399 140.257C303.798 140.444 303.152 140.737 302.459 141.137C302.311 141.223 302.196 141.295 302.113 141.353C302.039 141.407 301.955 141.465 301.863 141.529C301.789 141.593 301.665 141.681 301.489 141.793L301.42 141.337C302.085 141.071 302.782 140.908 303.512 140.849C304.251 140.785 304.972 140.823 305.674 140.961C306.394 141.1 307.045 141.337 307.627 141.673C308.302 142.063 308.754 142.495 308.985 142.969C309.225 143.439 309.235 143.908 309.013 144.377C308.801 144.852 308.353 145.287 307.669 145.681C306.995 146.071 306.233 146.329 305.383 146.457C304.542 146.591 303.688 146.583 302.819 146.433C301.96 146.279 301.152 145.983 300.394 145.545ZM301.323 145.137C301.84 145.436 302.413 145.633 303.041 145.729C303.678 145.82 304.311 145.812 304.939 145.705C305.577 145.604 306.149 145.407 306.657 145.113C307.156 144.825 307.484 144.503 307.641 144.145C307.808 143.793 307.803 143.439 307.627 143.081C307.461 142.719 307.115 142.385 306.588 142.081C306.071 141.783 305.503 141.583 304.884 141.481C304.274 141.375 303.66 141.367 303.041 141.457C302.431 141.553 301.872 141.748 301.364 142.041C300.856 142.335 300.51 142.663 300.325 143.025C300.15 143.393 300.14 143.761 300.297 144.129C300.464 144.503 300.805 144.839 301.323 145.137ZM312.258 151.307L311.773 151.331L318.452 147.475L319.436 148.043L312.757 151.899L312.757 151.595L316.817 153.939L316.29 153.939L322.969 150.083L323.953 150.651L316.678 154.851L306.618 149.043L313.893 144.843L314.877 145.411L308.198 149.267L308.212 148.971L312.258 151.307ZM315.279 155.883L317.135 154.811L317.122 155.107L315.639 154.251L316.498 153.755L318.66 155.003L316.207 156.419L315.279 155.883ZM319.751 156.625L327.025 152.425L328.009 152.993L322.231 156.329L332.873 155.801L333.746 156.305L326.471 160.505L325.487 159.937L331.279 156.593L320.637 157.137L319.751 156.625ZM332.616 164.132C331.858 163.695 331.35 163.22 331.092 162.708C330.842 162.191 330.833 161.679 331.064 161.172C331.304 160.66 331.785 160.196 332.505 159.78C333.226 159.364 334.015 159.084 334.874 158.94C335.743 158.802 336.602 158.796 337.452 158.924C338.32 159.052 339.091 159.311 339.766 159.7C340.449 160.095 340.897 160.535 341.11 161.02C341.341 161.506 341.327 161.999 341.068 162.5C340.819 162.996 340.329 163.455 339.6 163.876C339.553 163.903 339.498 163.93 339.433 163.956C339.387 163.983 339.336 164.012 339.281 164.044L332.948 160.388L333.683 159.964L339.489 163.316L338.81 163.26C339.336 162.956 339.687 162.62 339.863 162.252C340.057 161.884 340.075 161.522 339.918 161.164C339.761 160.807 339.429 160.482 338.921 160.188C338.422 159.9 337.858 159.708 337.23 159.612C336.602 159.516 335.969 159.524 335.332 159.636C334.694 159.748 334.108 159.959 333.572 160.268L333.42 160.356C332.865 160.676 332.496 161.028 332.311 161.412C332.145 161.796 332.159 162.183 332.353 162.572C332.565 162.962 332.953 163.319 333.517 163.644C333.96 163.9 334.45 164.092 334.985 164.22C335.53 164.354 336.103 164.407 336.704 164.38L336.62 165.068C335.909 165.106 335.207 165.042 334.514 164.876C333.831 164.716 333.198 164.468 332.616 164.132ZM347.773 172.259L353.718 168.827L350.212 166.803L348.508 167.691C347.999 167.963 347.487 168.222 346.97 168.467C346.461 168.718 345.958 168.929 345.459 169.099C344.979 169.27 344.526 169.377 344.101 169.419C343.686 169.457 343.321 169.406 343.007 169.267L342.203 168.595C342.48 168.766 342.817 168.843 343.214 168.827C343.621 168.806 344.064 168.715 344.545 168.555C345.025 168.395 345.528 168.19 346.055 167.939C346.591 167.683 347.127 167.417 347.662 167.139L350.184 165.795L355.56 168.899L348.757 172.827L347.773 172.259ZM339.279 169.931L341.898 168.419L350.281 173.259L347.662 174.771L346.734 174.235L348.494 173.219L341.967 169.451L340.208 170.467L339.279 169.931ZM354.54 176.79C353.838 176.385 353.362 175.929 353.113 175.422C352.882 174.916 352.882 174.409 353.113 173.902C353.353 173.39 353.834 172.926 354.554 172.51C355.284 172.089 356.087 171.812 356.965 171.678C357.843 171.545 358.716 171.548 359.584 171.686C360.452 171.825 361.242 172.1 361.953 172.51C362.674 172.926 363.154 173.385 363.394 173.886C363.644 174.393 363.648 174.897 363.408 175.398C363.177 175.905 362.697 176.369 361.967 176.79C361.247 177.206 360.443 177.484 359.556 177.622C358.688 177.761 357.81 177.761 356.923 177.622C356.046 177.478 355.251 177.201 354.54 176.79ZM355.413 176.286C355.94 176.59 356.522 176.793 357.159 176.894C357.806 176.99 358.457 176.982 359.113 176.87C359.787 176.758 360.406 176.54 360.97 176.214C361.542 175.884 361.921 175.526 362.106 175.142C362.3 174.764 362.309 174.39 362.134 174.022C361.967 173.649 361.625 173.313 361.108 173.014C360.591 172.716 360.009 172.518 359.362 172.422C358.725 172.321 358.074 172.324 357.408 172.43C356.743 172.537 356.124 172.756 355.552 173.086C354.988 173.412 354.609 173.769 354.415 174.158C354.231 174.542 354.221 174.921 354.388 175.294C354.563 175.662 354.905 175.993 355.413 176.286ZM359.254 179.432L366.321 178.904L365.822 179.176L366.667 175.312L367.776 175.952L367.055 179.136L366.653 178.888L372.154 178.48L373.235 179.104L366.473 179.6L367.014 179.304L366.127 183.4L365.004 182.752L365.794 179.368L366.127 179.624L360.362 180.072L359.254 179.432ZM370.683 186.11C369.981 185.705 369.505 185.249 369.256 184.742C369.025 184.236 369.025 183.729 369.256 183.222C369.496 182.71 369.976 182.246 370.697 181.83C371.427 181.409 372.23 181.132 373.108 180.998C373.985 180.865 374.858 180.868 375.727 181.006C376.595 181.145 377.385 181.42 378.096 181.83C378.817 182.246 379.297 182.705 379.537 183.206C379.787 183.713 379.791 184.217 379.551 184.718C379.32 185.225 378.84 185.689 378.11 186.11C377.389 186.526 376.586 186.804 375.699 186.942C374.831 187.081 373.953 187.081 373.066 186.942C372.189 186.798 371.394 186.521 370.683 186.11ZM371.556 185.606C372.082 185.91 372.664 186.113 373.302 186.214C373.948 186.31 374.6 186.302 375.256 186.19C375.93 186.078 376.549 185.86 377.112 185.534C377.685 185.204 378.064 184.846 378.249 184.462C378.442 184.084 378.452 183.71 378.276 183.342C378.11 182.969 377.768 182.633 377.251 182.334C376.734 182.036 376.152 181.838 375.505 181.742C374.868 181.641 374.216 181.644 373.551 181.75C372.886 181.857 372.267 182.076 371.694 182.406C371.131 182.732 370.752 183.089 370.558 183.478C370.373 183.862 370.364 184.241 370.53 184.614C370.706 184.982 371.048 185.313 371.556 185.606ZM382.264 192.173L388.209 188.741L384.703 186.717L382.999 187.605C382.491 187.877 381.978 188.136 381.461 188.381C380.953 188.632 380.449 188.842 379.95 189.013C379.47 189.184 379.017 189.29 378.592 189.333C378.177 189.37 377.812 189.32 377.498 189.181L376.694 188.509C376.971 188.68 377.308 188.757 377.706 188.741C378.112 188.72 378.555 188.629 379.036 188.469C379.516 188.309 380.02 188.104 380.546 187.853C381.082 187.597 381.618 187.33 382.153 187.053L384.675 185.709L390.052 188.813L383.248 192.741L382.264 192.173ZM373.77 189.845L376.389 188.333L384.772 193.173L382.153 194.685L381.225 194.149L382.985 193.133L376.458 189.365L374.699 190.381L373.77 189.845ZM393.202 199.032L400.477 194.832L401.46 195.4L394.186 199.6L393.202 199.032ZM393.881 193.984C394.786 194.517 395.281 195.037 395.364 195.544C395.447 196.051 395.114 196.52 394.366 196.952C393.59 197.4 392.736 197.595 391.803 197.536C390.87 197.477 389.927 197.168 388.976 196.608L386.108 194.936L393.382 190.736L394.366 191.304L391.83 192.768L393.881 193.984ZM389.655 196.136C390.329 196.536 390.976 196.755 391.595 196.792C392.232 196.829 392.823 196.691 393.368 196.376C393.913 196.061 394.14 195.733 394.047 195.392C393.964 195.045 393.581 194.669 392.897 194.264L391.096 193.192L387.853 195.064L389.655 196.136Z" fill="#3B3B3B"></path>
                        <path d="M228.917 171.235L242.427 163.435L242.386 164.827L238.125 162.367L240.39 161.059L246.168 164.395L231.619 172.795L228.917 171.235ZM240.554 178.194C239.348 177.498 238.482 176.79 237.956 176.07C237.429 175.35 237.249 174.662 237.415 174.006C237.595 173.342 238.129 172.754 239.016 172.242C239.902 171.73 240.886 171.434 241.967 171.354C243.048 171.274 244.191 171.398 245.397 171.726C246.602 172.054 247.821 172.574 249.055 173.286C250.288 173.998 251.189 174.702 251.757 175.398C252.339 176.102 252.553 176.77 252.401 177.402C252.276 178.034 251.777 178.602 250.904 179.106C250.018 179.618 248.992 179.922 247.828 180.018C246.692 180.114 245.494 180.006 244.233 179.694C242.986 179.39 241.759 178.89 240.554 178.194ZM242.674 176.97C243.671 177.546 244.669 177.882 245.667 177.978C246.664 178.074 247.53 177.91 248.265 177.486C248.985 177.07 249.262 176.574 249.096 175.998C248.93 175.422 248.348 174.846 247.35 174.27C246.353 173.694 245.362 173.362 244.378 173.274C243.394 173.186 242.542 173.35 241.822 173.766C241.087 174.19 240.796 174.686 240.949 175.254C241.101 175.822 241.676 176.394 242.674 176.97ZM247.641 174.102C246.519 173.454 245.701 172.814 245.189 172.182C244.69 171.542 244.503 170.93 244.627 170.346C244.78 169.762 245.258 169.238 246.062 168.774C246.893 168.294 247.828 168.01 248.868 167.922C249.935 167.834 251.043 167.93 252.193 168.21C253.343 168.49 254.452 168.938 255.519 169.554C256.599 170.178 257.382 170.822 257.867 171.486C258.352 172.15 258.519 172.79 258.366 173.406C258.228 174.014 257.743 174.558 256.911 175.038C256.108 175.502 255.193 175.774 254.168 175.854C253.17 175.934 252.11 175.826 250.988 175.53C249.879 175.226 248.764 174.75 247.641 174.102ZM249.304 173.142C250.163 173.638 251.022 173.926 251.881 174.006C252.754 174.078 253.503 173.934 254.126 173.574C254.777 173.198 255.027 172.758 254.874 172.254C254.722 171.75 254.23 171.258 253.399 170.778C252.567 170.298 251.722 170.018 250.863 169.938C250.004 169.858 249.249 170.006 248.597 170.382C247.974 170.742 247.717 171.17 247.828 171.666C247.967 172.162 248.459 172.654 249.304 173.142ZM261.145 190.082C259.829 189.322 258.977 188.51 258.589 187.646C258.215 186.774 258.312 185.886 258.88 184.982C259.448 184.078 260.515 183.174 262.081 182.27C263.743 181.31 265.448 180.67 267.194 180.35C268.953 180.038 270.665 180.018 272.327 180.29C274.004 180.57 275.542 181.114 276.942 181.922C277.676 182.346 278.299 182.794 278.812 183.266C279.339 183.746 279.678 184.214 279.831 184.67L276.796 185.27C276.658 184.886 276.401 184.53 276.027 184.202C275.681 183.874 275.251 183.562 274.738 183.266C273.367 182.474 271.856 182.09 270.207 182.114C268.558 182.138 266.91 182.626 265.261 183.578C264.997 183.73 264.692 183.914 264.346 184.13C264.014 184.338 263.709 184.57 263.432 184.826L263.515 183.818C264.332 183.634 265.143 183.558 265.946 183.59C266.778 183.622 267.588 183.754 268.378 183.986C269.182 184.226 269.937 184.55 270.644 184.958C271.6 185.51 272.265 186.11 272.639 186.758C273.027 187.398 273.103 188.042 272.868 188.69C272.646 189.33 272.085 189.91 271.184 190.43C270.228 190.982 269.161 191.326 267.983 191.462C266.806 191.598 265.621 191.546 264.429 191.306C263.238 191.066 262.143 190.658 261.145 190.082ZM263.12 188.774C263.674 189.094 264.263 189.322 264.886 189.458C265.524 189.586 266.147 189.61 266.757 189.53C267.381 189.458 267.942 189.278 268.441 188.99C269.203 188.55 269.542 188.05 269.459 187.49C269.376 186.93 268.891 186.394 268.004 185.882C267.422 185.546 266.799 185.314 266.134 185.186C265.496 185.058 264.859 185.026 264.221 185.09C263.598 185.162 263.044 185.338 262.559 185.618C262.115 185.874 261.824 186.178 261.686 186.53C261.547 186.882 261.589 187.25 261.81 187.634C262.046 188.026 262.482 188.406 263.12 188.774ZM272.867 196.85C271.841 196.258 270.982 195.594 270.29 194.858C269.624 194.122 269.223 193.41 269.084 192.722L272.347 192.182C272.444 192.734 272.735 193.302 273.22 193.886C273.705 194.47 274.356 194.998 275.174 195.47C276.144 196.03 277.093 196.354 278.021 196.442C278.964 196.522 279.774 196.366 280.453 195.974C281.118 195.59 281.395 195.142 281.285 194.63C281.174 194.118 280.564 193.542 279.456 192.902L278.125 192.134L279.975 191.066L289.079 190.61L288.414 191.402L280.599 186.89L282.864 185.582L292.778 191.306L290.97 192.35L281.867 192.806L281.285 191.51L282.095 191.978C283.883 193.01 284.818 194.014 284.901 194.99C285.012 195.966 284.444 196.814 283.197 197.534C282.379 198.006 281.416 198.322 280.308 198.482C279.199 198.642 278.001 198.598 276.712 198.35C275.451 198.102 274.169 197.602 272.867 196.85ZM280.726 201.147L282.535 200.103L293.8 200.271C294.742 200.287 295.504 200.263 296.086 200.199C296.668 200.135 297.139 200.039 297.5 199.911C297.888 199.783 298.213 199.643 298.477 199.491C299.142 199.107 299.426 198.679 299.329 198.207C299.246 197.727 298.761 197.231 297.874 196.719C297.167 196.311 296.398 196.011 295.567 195.819C294.749 195.635 293.876 195.571 292.948 195.627L292.511 193.695C293.842 193.583 295.193 193.683 296.564 193.995C297.964 194.307 299.259 194.807 300.451 195.495C301.504 196.103 302.245 196.731 302.675 197.379C303.132 198.027 303.257 198.651 303.049 199.251C302.855 199.859 302.329 200.411 301.47 200.907C300.998 201.179 300.465 201.415 299.869 201.615C299.287 201.807 298.567 201.951 297.707 202.047C296.848 202.143 295.768 202.183 294.465 202.167L284.779 202.023L285.237 201.111L293.738 206.019L291.451 207.339L280.726 201.147ZM305.448 215.66C304.298 214.996 303.549 214.228 303.203 213.356C302.87 212.492 302.995 211.588 303.577 210.644C304.173 209.692 305.268 208.756 306.861 207.836C308.454 206.916 310.069 206.288 311.704 205.952C313.353 205.608 314.925 205.532 316.422 205.724C317.932 205.924 319.262 206.356 320.413 207.02C321.577 207.692 322.325 208.46 322.657 209.324C322.99 210.188 322.858 211.096 322.262 212.048C321.694 213 320.613 213.936 319.02 214.856C317.427 215.776 315.798 216.404 314.136 216.74C312.501 217.076 310.935 217.148 309.438 216.956C307.942 216.764 306.612 216.332 305.448 215.66ZM307.796 214.304C308.475 214.696 309.244 214.932 310.103 215.012C310.976 215.084 311.932 214.98 312.972 214.7C314.025 214.428 315.133 213.956 316.297 213.284C317.475 212.604 318.293 211.964 318.75 211.364C319.235 210.764 319.408 210.216 319.269 209.72C319.145 209.216 318.743 208.768 318.064 208.376C317.413 208 316.644 207.772 315.757 207.692C314.898 207.612 313.942 207.708 312.889 207.98C311.863 208.252 310.762 208.728 309.584 209.408C308.42 210.08 307.595 210.716 307.11 211.316C306.639 211.924 306.466 212.48 306.591 212.984C306.743 213.488 307.145 213.928 307.796 214.304ZM333.649 214.662C334.979 215.43 335.825 216.246 336.185 217.11C336.573 217.974 336.483 218.858 335.915 219.762C335.347 220.666 334.28 221.57 332.714 222.474C331.051 223.434 329.34 224.07 327.58 224.382C325.834 224.702 324.13 224.726 322.467 224.454C320.804 224.182 319.266 223.638 317.853 222.822C317.119 222.398 316.495 221.95 315.982 221.478C315.47 221.006 315.13 220.538 314.964 220.074L317.998 219.474C318.137 219.858 318.386 220.218 318.747 220.554C319.121 220.882 319.557 221.19 320.056 221.478C321.428 222.27 322.938 222.654 324.587 222.63C326.236 222.606 327.885 222.118 329.534 221.166C329.797 221.014 330.095 220.834 330.428 220.626C330.774 220.41 331.086 220.174 331.363 219.918L331.28 220.926C330.476 221.118 329.659 221.198 328.827 221.166C328.01 221.126 327.206 220.99 326.416 220.758C325.626 220.526 324.871 220.202 324.151 219.786C323.208 219.242 322.536 218.646 322.135 217.998C321.76 217.35 321.684 216.706 321.906 216.066C322.142 215.418 322.71 214.834 323.61 214.314C324.58 213.754 325.647 213.41 326.811 213.282C327.989 213.146 329.174 213.198 330.365 213.438C331.571 213.686 332.665 214.094 333.649 214.662ZM331.675 215.97C331.12 215.65 330.525 215.426 329.887 215.298C329.264 215.162 328.64 215.13 328.017 215.202C327.421 215.274 326.867 215.458 326.354 215.754C325.592 216.194 325.252 216.694 325.335 217.254C325.419 217.814 325.904 218.35 326.79 218.862C327.372 219.198 327.989 219.434 328.64 219.57C329.305 219.698 329.95 219.726 330.573 219.654C331.211 219.574 331.765 219.398 332.236 219.126C332.693 218.862 332.984 218.558 333.109 218.214C333.247 217.862 333.206 217.494 332.984 217.11C332.762 216.726 332.326 216.346 331.675 215.97ZM329.741 229.446L343.251 221.646L343.21 223.038L338.949 220.578L341.214 219.27L346.993 222.606L332.443 231.006L329.741 229.446ZM343.692 237.501L358.242 229.101L364.228 232.557C366.14 233.661 367.228 234.769 367.491 235.881C367.782 236.993 367.124 238.013 365.516 238.941C363.923 239.861 362.156 240.241 360.216 240.081C358.304 239.921 356.392 239.289 354.48 238.185L349.99 235.593L352.443 235.569L346.394 239.061L343.692 237.501ZM352.152 235.737L352.173 234.333L356.641 236.913C357.75 237.553 358.831 237.913 359.884 237.993C360.964 238.073 361.927 237.869 362.773 237.381C363.618 236.893 363.957 236.345 363.791 235.737C363.653 235.129 363.029 234.505 361.921 233.865L357.452 231.285L359.988 231.213L352.152 235.737ZM343.776 235.053L345.231 234.213L354.584 239.613L353.129 240.453L343.776 235.053Z" fill="#22C9B1"></path>
                        <path d="M195.899 188.442L205.599 182.842L213.76 187.554L204.061 193.154L203.049 192.57L212.139 187.322L212.125 187.634L205.46 183.786L206.001 183.778L196.911 189.026L195.899 188.442ZM211.061 197.276C210.433 196.913 210.008 196.502 209.786 196.044C209.574 195.58 209.587 195.102 209.828 194.612C210.086 194.121 210.613 193.646 211.407 193.188C212.202 192.729 213.019 192.428 213.86 192.284C214.71 192.134 215.532 192.124 216.326 192.252C217.121 192.38 217.837 192.628 218.474 192.996C219.167 193.396 219.629 193.844 219.86 194.34C220.109 194.836 220.109 195.337 219.86 195.844C219.619 196.345 219.134 196.806 218.405 197.228C217.666 197.654 216.862 197.937 215.994 198.076C215.125 198.214 214.257 198.214 213.389 198.076C212.53 197.942 211.754 197.676 211.061 197.276ZM204.687 196.62L214.65 190.868L215.592 191.412L213.403 192.676L211.851 193.46L210.52 194.388L205.671 197.188L204.687 196.62ZM211.864 196.732C212.382 197.03 212.959 197.23 213.597 197.332C214.243 197.428 214.899 197.422 215.564 197.316C216.238 197.204 216.857 196.985 217.421 196.66C217.984 196.334 218.359 195.98 218.543 195.596C218.728 195.212 218.737 194.833 218.571 194.46C218.405 194.086 218.063 193.75 217.546 193.452C217.028 193.153 216.442 192.953 215.786 192.852C215.139 192.756 214.483 192.761 213.818 192.868C213.162 192.98 212.553 193.198 211.989 193.524C211.426 193.849 211.042 194.204 210.839 194.588C210.654 194.972 210.645 195.35 210.811 195.724C210.996 196.097 211.347 196.433 211.864 196.732ZM217.151 200.712L224.426 196.512L225.41 197.08L219.632 200.416L230.273 199.888L231.146 200.392L223.872 204.592L222.888 204.024L228.68 200.68L218.038 201.224L217.151 200.712ZM230.155 208.316C229.564 207.975 229.135 207.615 228.867 207.236C228.608 206.863 228.516 206.468 228.589 206.052C228.663 205.636 228.908 205.212 229.324 204.78C229.749 204.343 230.349 203.9 231.125 203.452C231.818 203.052 232.488 202.74 233.134 202.516C233.79 202.287 234.423 202.129 235.033 202.044C235.642 201.959 236.229 201.929 236.792 201.956C237.374 201.983 237.924 202.055 238.441 202.172C238.977 202.289 239.481 202.436 239.952 202.612L243.984 204.06L243.236 204.684L239.467 203.308C239.227 203.223 238.926 203.124 238.566 203.012C238.215 202.905 237.813 202.817 237.361 202.748C236.917 202.684 236.428 202.668 235.892 202.7C235.356 202.732 234.779 202.841 234.16 203.028C233.559 203.215 232.913 203.508 232.22 203.908C232.072 203.993 231.957 204.065 231.873 204.124C231.8 204.177 231.716 204.236 231.624 204.3C231.55 204.364 231.425 204.452 231.25 204.564L231.181 204.108C231.846 203.841 232.543 203.679 233.273 203.62C234.012 203.556 234.732 203.593 235.435 203.732C236.155 203.871 236.806 204.108 237.388 204.444C238.063 204.833 238.515 205.265 238.746 205.74C238.986 206.209 238.996 206.679 238.774 207.148C238.561 207.623 238.113 208.057 237.43 208.452C236.756 208.841 235.993 209.1 235.144 209.228C234.303 209.361 233.448 209.353 232.58 209.204C231.721 209.049 230.913 208.753 230.155 208.316ZM231.084 207.908C231.601 208.207 232.174 208.404 232.802 208.5C233.439 208.591 234.072 208.583 234.7 208.476C235.338 208.375 235.91 208.177 236.418 207.884C236.917 207.596 237.245 207.273 237.402 206.916C237.568 206.564 237.564 206.209 237.388 205.852C237.222 205.489 236.876 205.156 236.349 204.852C235.832 204.553 235.264 204.353 234.645 204.252C234.035 204.145 233.421 204.137 232.802 204.228C232.192 204.324 231.633 204.519 231.125 204.812C230.617 205.105 230.271 205.433 230.086 205.796C229.91 206.164 229.901 206.532 230.058 206.9C230.225 207.273 230.566 207.609 231.084 207.908ZM243.474 215.909L250.748 211.709L251.732 212.277L244.458 216.477L243.474 215.909ZM244.153 210.861C245.058 211.395 245.552 211.915 245.635 212.421C245.718 212.928 245.386 213.397 244.638 213.829C243.862 214.277 243.007 214.472 242.074 214.413C241.141 214.355 240.199 214.045 239.248 213.485L236.379 211.813L243.654 207.613L244.638 208.181L242.102 209.645L244.153 210.861ZM239.927 213.013C240.601 213.413 241.247 213.632 241.866 213.669C242.504 213.707 243.095 213.568 243.64 213.253C244.185 212.939 244.411 212.611 244.319 212.269C244.236 211.923 243.853 211.547 243.169 211.141L241.368 210.069L238.125 211.941L239.927 213.013ZM246.219 217.479L247.134 217.031C247.189 217.073 247.236 217.116 247.273 217.159C247.328 217.201 247.379 217.236 247.425 217.263C247.721 217.433 248.067 217.505 248.464 217.479C248.871 217.457 249.305 217.367 249.767 217.207C250.229 217.047 250.709 216.844 251.208 216.599C251.716 216.348 252.219 216.095 252.718 215.839L255.434 214.415L260.769 217.495L253.494 221.695L252.51 221.127L259.217 217.255L259.175 217.567L255.212 215.279L255.753 215.239L253.536 216.391C252.88 216.737 252.229 217.055 251.582 217.343C250.945 217.636 250.335 217.865 249.753 218.031C249.18 218.201 248.644 218.287 248.146 218.287C247.656 218.281 247.217 218.167 246.829 217.943C246.718 217.879 246.612 217.807 246.51 217.727C246.418 217.652 246.321 217.569 246.219 217.479ZM264.411 222.557C265.316 223.091 265.806 223.608 265.879 224.109C265.963 224.616 265.63 225.085 264.882 225.517C264.106 225.965 263.251 226.16 262.318 226.101C261.395 226.048 260.452 225.739 259.492 225.173L256.568 223.469L263.843 219.269L264.826 219.837L262.291 221.301L264.411 222.557ZM260.184 224.709C260.85 225.104 261.492 225.32 262.111 225.357C262.748 225.395 263.339 225.256 263.884 224.941C264.429 224.627 264.655 224.299 264.563 223.957C264.48 223.611 264.101 223.237 263.427 222.837L261.556 221.725L258.314 223.597L260.184 224.709ZM268.556 230.391L275.831 226.191L276.815 226.759L273.6 228.615L278.187 231.263L281.401 229.407L282.385 229.975L275.111 234.175L274.127 233.607L277.341 231.751L272.755 229.103L269.54 230.959L268.556 230.391ZM282.701 238.557L284.308 237.629L284.53 237.453L287.218 235.901C287.837 235.544 288.137 235.168 288.119 234.773C288.11 234.384 287.763 233.992 287.08 233.597C286.609 233.325 286.082 233.112 285.5 232.957C284.918 232.803 284.35 232.715 283.796 232.693L284.087 232.013C284.77 232.045 285.454 232.163 286.138 232.365C286.83 232.563 287.463 232.827 288.036 233.157C288.978 233.701 289.468 234.256 289.505 234.821C289.56 235.387 289.112 235.944 288.161 236.493L283.643 239.101L282.701 238.557ZM280.124 237.149C279.579 236.835 279.191 236.509 278.96 236.173C278.747 235.837 278.692 235.517 278.794 235.213C278.904 234.904 279.168 234.629 279.583 234.389C279.962 234.171 280.392 234.024 280.872 233.949C281.371 233.875 281.916 233.901 282.507 234.029C283.117 234.157 283.768 234.421 284.461 234.821L286.969 236.269L286.235 236.693L283.754 235.261C283.052 234.856 282.438 234.645 281.911 234.629C281.394 234.619 280.951 234.72 280.581 234.933C280.165 235.173 279.995 235.459 280.068 235.789C280.142 236.12 280.47 236.453 281.052 236.789C281.606 237.109 282.207 237.312 282.854 237.397C283.519 237.483 284.184 237.44 284.849 237.269L284.392 237.789C283.727 237.96 283.02 237.995 282.272 237.893C281.533 237.797 280.817 237.549 280.124 237.149ZM293.658 244.979C292.799 244.483 292.263 243.955 292.05 243.395C291.847 242.83 291.953 242.251 292.369 241.659C292.794 241.062 293.515 240.47 294.531 239.883C295.63 239.249 296.734 238.825 297.842 238.611C298.969 238.398 300.055 238.374 301.099 238.539C302.143 238.705 303.103 239.041 303.981 239.547C304.415 239.798 304.789 240.062 305.103 240.339C305.417 240.617 305.634 240.897 305.754 241.179L304.549 241.411C304.466 241.171 304.295 240.939 304.036 240.715C303.787 240.486 303.482 240.267 303.122 240.059C302.078 239.457 300.909 239.166 299.616 239.187C298.332 239.214 297.029 239.609 295.709 240.371C295.505 240.489 295.26 240.641 294.974 240.827C294.706 241.014 294.466 241.217 294.254 241.435L294.17 241.083C294.752 240.865 295.357 240.745 295.986 240.723C296.623 240.697 297.251 240.761 297.87 240.915C298.489 241.07 299.062 241.299 299.588 241.603C300.235 241.977 300.683 242.374 300.932 242.795C301.182 243.217 301.228 243.633 301.071 244.043C300.914 244.454 300.54 244.83 299.949 245.171C299.348 245.518 298.678 245.739 297.939 245.835C297.21 245.926 296.466 245.897 295.709 245.747C294.97 245.598 294.286 245.342 293.658 244.979ZM294.461 244.467C294.923 244.734 295.413 244.921 295.93 245.027C296.466 245.134 296.993 245.155 297.51 245.091C298.036 245.022 298.512 244.865 298.937 244.619C299.574 244.251 299.861 243.83 299.796 243.355C299.741 242.886 299.339 242.435 298.591 242.003C298.092 241.715 297.565 241.518 297.011 241.411C296.457 241.305 295.912 241.283 295.376 241.347C294.849 241.406 294.383 241.553 293.976 241.787C293.625 241.99 293.385 242.241 293.256 242.539C293.136 242.833 293.164 243.147 293.339 243.483C293.533 243.819 293.907 244.147 294.461 244.467ZM302.088 249.846C301.312 249.398 300.753 248.948 300.411 248.494C300.078 248.046 299.968 247.614 300.078 247.198C300.208 246.782 300.559 246.409 301.132 246.078C301.686 245.758 302.3 245.569 302.974 245.51C303.667 245.452 304.397 245.521 305.164 245.718C305.94 245.921 306.725 246.252 307.519 246.71C308.305 247.164 308.873 247.614 309.224 248.062C309.575 248.51 309.699 248.934 309.598 249.334C309.515 249.734 309.196 250.094 308.642 250.414C308.069 250.745 307.418 250.945 306.688 251.014C305.967 251.078 305.215 251.012 304.429 250.814C303.644 250.617 302.864 250.294 302.088 249.846ZM302.933 249.358C303.792 249.854 304.637 250.14 305.469 250.214C306.309 250.294 307.03 250.161 307.63 249.814C308.231 249.468 308.457 249.054 308.309 248.574C308.18 248.094 307.686 247.606 306.827 247.11C305.967 246.614 305.122 246.329 304.291 246.254C303.469 246.174 302.757 246.308 302.157 246.654C301.556 247.001 301.321 247.414 301.45 247.894C301.58 248.374 302.074 248.862 302.933 249.358ZM306.951 247.038C306.231 246.622 305.713 246.212 305.399 245.806C305.094 245.406 304.988 245.025 305.081 244.662C305.182 244.294 305.487 243.964 305.995 243.67C306.531 243.361 307.127 243.177 307.783 243.118C308.457 243.06 309.15 243.118 309.861 243.294C310.572 243.47 311.27 243.756 311.953 244.15C312.637 244.545 313.131 244.948 313.436 245.358C313.75 245.774 313.856 246.177 313.755 246.566C313.662 246.95 313.348 247.297 312.813 247.606C312.304 247.9 311.732 248.076 311.094 248.134C310.466 248.188 309.796 248.121 309.085 247.934C308.383 247.753 307.672 247.454 306.951 247.038ZM307.616 246.654C308.374 247.092 309.122 247.342 309.861 247.406C310.6 247.47 311.233 247.35 311.759 247.046C312.314 246.726 312.522 246.35 312.383 245.918C312.263 245.486 311.838 245.06 311.108 244.638C310.378 244.217 309.639 243.972 308.891 243.902C308.152 243.828 307.51 243.948 306.965 244.262C306.429 244.572 306.212 244.937 306.314 245.358C306.425 245.785 306.859 246.217 307.616 246.654ZM308.765 253.606L325.088 251.83L325.906 252.302L309.583 254.078L308.765 253.606ZM314.017 251.438C313.583 251.187 313.306 250.904 313.186 250.59C313.075 250.27 313.126 249.942 313.338 249.606C313.56 249.275 313.934 248.958 314.46 248.654C314.987 248.35 315.537 248.134 316.109 248.006C316.691 247.883 317.255 247.856 317.8 247.926C318.354 247.99 318.848 248.147 319.282 248.398C319.717 248.648 319.985 248.931 320.086 249.246C320.206 249.56 320.16 249.886 319.948 250.222C319.735 250.558 319.366 250.878 318.839 251.182C318.313 251.486 317.758 251.699 317.176 251.822C316.594 251.944 316.026 251.974 315.472 251.91C314.936 251.846 314.451 251.688 314.017 251.438ZM314.641 251.078C315.093 251.339 315.629 251.446 316.248 251.398C316.885 251.35 317.518 251.144 318.146 250.782C318.774 250.419 319.125 250.056 319.199 249.694C319.292 249.331 319.112 249.019 318.659 248.758C318.197 248.491 317.652 248.384 317.024 248.438C316.405 248.486 315.781 248.691 315.153 249.054C314.525 249.416 314.165 249.779 314.072 250.142C313.989 250.499 314.179 250.811 314.641 251.078ZM315.389 257.51C314.964 257.264 314.691 256.984 314.571 256.67C314.46 256.35 314.511 256.022 314.724 255.686C314.936 255.35 315.306 255.03 315.832 254.726C316.359 254.422 316.913 254.208 317.495 254.086C318.077 253.963 318.64 253.936 319.185 254.006C319.74 254.07 320.229 254.224 320.654 254.47C321.098 254.726 321.37 255.011 321.472 255.326C321.592 255.64 321.541 255.963 321.319 256.294C321.107 256.63 320.737 256.95 320.211 257.254C319.684 257.558 319.13 257.771 318.548 257.894C317.975 258.022 317.412 258.054 316.858 257.99C316.322 257.926 315.832 257.766 315.389 257.51ZM316.012 257.15C316.465 257.411 317.001 257.518 317.62 257.47C318.257 257.422 318.89 257.216 319.518 256.854C320.146 256.491 320.497 256.128 320.571 255.766C320.664 255.403 320.483 255.091 320.031 254.83C319.578 254.568 319.033 254.462 318.396 254.51C317.777 254.558 317.153 254.763 316.525 255.126C315.897 255.488 315.537 255.851 315.444 256.214C315.37 256.576 315.56 256.888 316.012 257.15ZM326.998 264.228C326.407 263.887 325.977 263.527 325.709 263.148C325.451 262.775 325.358 262.38 325.432 261.964C325.506 261.548 325.751 261.124 326.167 260.692C326.592 260.255 327.192 259.812 327.968 259.364C328.661 258.964 329.331 258.652 329.977 258.428C330.633 258.199 331.266 258.042 331.875 257.956C332.485 257.871 333.072 257.842 333.635 257.868C334.217 257.895 334.767 257.967 335.284 258.084C335.82 258.202 336.323 258.348 336.794 258.524L340.827 259.972L340.078 260.596L336.31 259.22C336.069 259.135 335.769 259.036 335.409 258.924C335.058 258.818 334.656 258.73 334.203 258.66C333.76 258.596 333.27 258.58 332.735 258.612C332.199 258.644 331.621 258.754 331.003 258.94C330.402 259.127 329.755 259.42 329.063 259.82C328.915 259.906 328.799 259.978 328.716 260.036C328.642 260.09 328.559 260.148 328.467 260.212C328.393 260.276 328.268 260.364 328.093 260.476L328.023 260.02C328.688 259.754 329.386 259.591 330.116 259.532C330.855 259.468 331.575 259.506 332.277 259.644C332.998 259.783 333.649 260.02 334.231 260.356C334.905 260.746 335.358 261.178 335.589 261.652C335.829 262.122 335.838 262.591 335.617 263.06C335.404 263.535 334.956 263.97 334.273 264.364C333.598 264.754 332.836 265.012 331.986 265.14C331.146 265.274 330.291 265.266 329.423 265.116C328.564 264.962 327.755 264.666 326.998 264.228ZM327.926 263.82C328.444 264.119 329.016 264.316 329.645 264.412C330.282 264.503 330.915 264.495 331.543 264.388C332.18 264.287 332.753 264.09 333.261 263.796C333.76 263.508 334.088 263.186 334.245 262.828C334.411 262.476 334.407 262.122 334.231 261.764C334.065 261.402 333.718 261.068 333.192 260.764C332.675 260.466 332.106 260.266 331.487 260.164C330.878 260.058 330.264 260.05 329.645 260.14C329.035 260.236 328.476 260.431 327.968 260.724C327.46 261.018 327.113 261.346 326.929 261.708C326.753 262.076 326.744 262.444 326.901 262.812C327.067 263.186 327.409 263.522 327.926 263.82ZM336.146 269.494C335.444 269.088 334.968 268.632 334.719 268.126C334.488 267.619 334.488 267.112 334.719 266.606C334.959 266.094 335.439 265.63 336.16 265.214C336.889 264.792 337.693 264.515 338.571 264.382C339.448 264.248 340.321 264.251 341.189 264.39C342.058 264.528 342.848 264.803 343.559 265.214C344.279 265.63 344.76 266.088 345 266.59C345.249 267.096 345.254 267.6 345.014 268.102C344.783 268.608 344.303 269.072 343.573 269.494C342.852 269.91 342.049 270.187 341.162 270.326C340.293 270.464 339.416 270.464 338.529 270.326C337.651 270.182 336.857 269.904 336.146 269.494ZM337.019 268.99C337.545 269.294 338.127 269.496 338.765 269.598C339.411 269.694 340.062 269.686 340.718 269.574C341.393 269.462 342.012 269.243 342.575 268.918C343.148 268.587 343.527 268.23 343.711 267.846C343.905 267.467 343.915 267.094 343.739 266.726C343.573 266.352 343.231 266.016 342.714 265.718C342.196 265.419 341.614 265.222 340.968 265.126C340.33 265.024 339.679 265.027 339.014 265.134C338.349 265.24 337.73 265.459 337.157 265.79C336.594 266.115 336.215 266.472 336.021 266.862C335.836 267.246 335.827 267.624 335.993 267.998C336.169 268.366 336.511 268.696 337.019 268.99ZM340.951 272.172L341.866 271.724C341.921 271.767 341.967 271.809 342.004 271.852C342.06 271.895 342.111 271.929 342.157 271.956C342.452 272.127 342.799 272.199 343.196 272.172C343.603 272.151 344.037 272.06 344.499 271.9C344.96 271.74 345.441 271.537 345.94 271.292C346.448 271.041 346.951 270.788 347.45 270.532L350.166 269.108L355.501 272.188L348.226 276.388L347.242 275.82L353.949 271.948L353.907 272.26L349.944 269.972L350.485 269.932L348.267 271.084C347.612 271.431 346.96 271.748 346.314 272.036C345.676 272.329 345.067 272.559 344.485 272.724C343.912 272.895 343.376 272.98 342.877 272.98C342.388 272.975 341.949 272.86 341.561 272.636C341.45 272.572 341.344 272.5 341.242 272.42C341.15 272.345 341.053 272.263 340.951 272.172ZM359.142 277.251C360.048 277.784 360.537 278.301 360.611 278.803C360.694 279.309 360.362 279.779 359.614 280.211C358.838 280.659 357.983 280.853 357.05 280.795C356.126 280.741 355.184 280.432 354.223 279.867L351.3 278.163L358.574 273.963L359.558 274.531L357.022 275.995L359.142 277.251ZM354.916 279.403C355.581 279.797 356.223 280.013 356.842 280.051C357.48 280.088 358.071 279.949 358.616 279.635C359.161 279.32 359.387 278.992 359.295 278.651C359.212 278.304 358.833 277.931 358.159 277.531L356.288 276.419L353.046 278.291L354.916 279.403ZM365.024 285.095L364.539 285.119L371.218 281.263L372.202 281.831L365.523 285.687L365.523 285.383L369.583 287.727L369.056 287.727L375.735 283.871L376.719 284.439L369.444 288.639L359.385 282.831L366.659 278.631L367.643 279.199L360.964 283.055L360.978 282.759L365.024 285.095ZM375.565 292.252C374.808 291.815 374.3 291.34 374.041 290.828C373.792 290.311 373.782 289.799 374.013 289.292C374.254 288.78 374.734 288.316 375.454 287.9C376.175 287.484 376.965 287.204 377.824 287.06C378.692 286.922 379.551 286.916 380.401 287.044C381.269 287.172 382.041 287.431 382.715 287.82C383.399 288.215 383.847 288.655 384.059 289.14C384.29 289.626 384.276 290.119 384.018 290.62C383.768 291.116 383.279 291.575 382.549 291.996C382.503 292.023 382.447 292.05 382.383 292.076C382.336 292.103 382.286 292.132 382.23 292.164L375.898 288.508L376.632 288.084L382.438 291.436L381.759 291.38C382.286 291.076 382.637 290.74 382.812 290.372C383.006 290.004 383.025 289.642 382.868 289.284C382.711 288.927 382.378 288.602 381.87 288.308C381.371 288.02 380.808 287.828 380.179 287.732C379.551 287.636 378.919 287.644 378.281 287.756C377.644 287.868 377.057 288.079 376.521 288.388L376.369 288.476C375.815 288.796 375.445 289.148 375.26 289.532C375.094 289.916 375.108 290.303 375.302 290.692C375.514 291.082 375.902 291.439 376.466 291.764C376.909 292.02 377.399 292.212 377.935 292.34C378.48 292.474 379.052 292.527 379.653 292.5L379.57 293.188C378.858 293.226 378.156 293.162 377.464 292.996C376.78 292.836 376.147 292.588 375.565 292.252ZM378.713 296.326L381.886 295.198L381.401 295.606C381.189 295.483 381.078 295.339 381.069 295.174C381.069 295.014 381.179 294.87 381.401 294.742C381.623 294.614 381.872 294.55 382.149 294.55C382.436 294.555 382.68 294.616 382.884 294.734C383.096 294.856 383.193 294.998 383.175 295.158C383.165 295.323 383.059 295.464 382.856 295.582C382.782 295.624 382.704 295.664 382.62 295.702C382.537 295.739 382.436 295.776 382.316 295.814C382.196 295.851 382.048 295.894 381.872 295.942L379.378 296.71L378.713 296.326ZM181.689 201.686C181.08 201.548 180.502 201.385 179.957 201.198C179.431 201.012 178.955 200.796 178.53 200.55C177.671 200.054 177.186 199.55 177.075 199.038C176.974 198.521 177.334 198.025 178.156 197.55L180.539 196.174L181.509 196.734L179.181 198.078C178.627 198.398 178.392 198.742 178.475 199.11C178.558 199.478 178.904 199.838 179.514 200.19C179.884 200.404 180.318 200.601 180.816 200.782C181.325 200.958 181.879 201.113 182.479 201.246L181.689 201.686ZM178.53 203.414L185.805 199.214L186.789 199.782L179.514 203.982L178.53 203.414ZM185.633 207.595C184.876 207.158 184.368 206.683 184.109 206.171C183.86 205.654 183.851 205.142 184.082 204.635C184.322 204.123 184.802 203.659 185.523 203.243C186.243 202.827 187.033 202.547 187.892 202.403C188.76 202.265 189.619 202.259 190.469 202.387C191.338 202.515 192.109 202.774 192.783 203.163C193.467 203.558 193.915 203.998 194.127 204.483C194.358 204.969 194.345 205.462 194.086 205.963C193.836 206.459 193.347 206.918 192.617 207.339C192.571 207.366 192.515 207.393 192.451 207.419C192.405 207.446 192.354 207.475 192.298 207.507L185.966 203.851L186.7 203.427L192.506 206.779L191.827 206.723C192.354 206.419 192.705 206.083 192.88 205.715C193.074 205.347 193.093 204.985 192.936 204.627C192.779 204.27 192.446 203.945 191.938 203.651C191.439 203.363 190.876 203.171 190.248 203.075C189.619 202.979 188.987 202.987 188.349 203.099C187.712 203.211 187.125 203.422 186.59 203.731L186.437 203.819C185.883 204.139 185.513 204.491 185.329 204.875C185.162 205.259 185.176 205.646 185.37 206.035C185.583 206.425 185.971 206.782 186.534 207.107C186.978 207.363 187.467 207.555 188.003 207.683C188.548 207.817 189.121 207.87 189.721 207.843L189.638 208.531C188.927 208.569 188.225 208.505 187.532 208.339C186.848 208.179 186.215 207.931 185.633 207.595ZM191.428 210.861L198.702 206.661L199.7 207.237L197.414 212.365L196.998 212.125L205.935 210.837L206.85 211.365L199.575 215.565L198.675 215.045L204.827 211.493L204.924 211.645L196.61 212.829L196.167 212.573L198.245 207.725L198.494 207.821L192.328 211.381L191.428 210.861ZM206.556 219.595L213.83 215.395L217.045 217.251C217.867 217.725 218.357 218.189 218.514 218.643C218.68 219.101 218.458 219.507 217.849 219.859C217.257 220.2 216.574 220.333 215.798 220.259C215.031 220.179 214.278 219.925 213.539 219.499L214.024 219.443C214.892 219.944 215.368 220.405 215.451 220.827C215.534 221.248 215.271 221.635 214.662 221.987C214.033 222.349 213.313 222.499 212.5 222.435C211.705 222.371 210.828 222.061 209.867 221.507L206.556 219.595ZM208.288 219.699L210.602 221.035C211.221 221.392 211.784 221.605 212.292 221.675C212.819 221.744 213.304 221.651 213.747 221.395C214.19 221.139 214.371 220.869 214.287 220.587C214.204 220.304 213.853 219.984 213.234 219.627L210.823 218.235L208.288 219.699ZM211.558 217.811L213.747 219.075C214.31 219.4 214.846 219.587 215.354 219.635C215.872 219.688 216.334 219.597 216.74 219.363C217.146 219.128 217.299 218.864 217.197 218.571C217.105 218.283 216.777 217.976 216.213 217.651L214.024 216.387L211.558 217.811ZM219.166 226.876L226.441 222.676L232.981 226.452L225.707 230.652L224.723 230.084L231.402 226.228L231.388 226.524L226.316 223.596L226.829 223.588L220.15 227.444L219.166 226.876ZM232.466 234.634C231.838 234.272 231.413 233.861 231.191 233.402C230.979 232.938 230.993 232.461 231.233 231.97C231.492 231.48 232.018 231.005 232.813 230.546C233.607 230.088 234.425 229.786 235.265 229.642C236.115 229.493 236.937 229.482 237.732 229.61C238.526 229.738 239.242 229.986 239.879 230.354C240.572 230.754 241.034 231.202 241.265 231.698C241.514 232.194 241.514 232.696 241.265 233.202C241.025 233.704 240.54 234.165 239.81 234.586C239.071 235.013 238.267 235.296 237.399 235.434C236.531 235.573 235.662 235.573 234.794 235.434C233.935 235.301 233.159 235.034 232.466 234.634ZM226.092 233.978L236.055 228.226L236.997 228.77L234.808 230.034L233.256 230.818L231.926 231.746L227.076 234.546L226.092 233.978ZM233.27 234.09C233.787 234.389 234.365 234.589 235.002 234.69C235.649 234.786 236.304 234.781 236.97 234.674C237.644 234.562 238.263 234.344 238.826 234.018C239.39 233.693 239.764 233.338 239.949 232.954C240.133 232.57 240.143 232.192 239.976 231.818C239.81 231.445 239.468 231.109 238.951 230.81C238.434 230.512 237.847 230.312 237.191 230.21C236.545 230.114 235.889 230.12 235.224 230.226C234.568 230.338 233.958 230.557 233.395 230.882C232.831 231.208 232.448 231.562 232.245 231.946C232.06 232.33 232.051 232.709 232.217 233.082C232.402 233.456 232.753 233.792 233.27 234.09ZM241.48 239.839C240.778 239.433 240.303 238.977 240.053 238.471C239.822 237.964 239.822 237.457 240.053 236.951C240.293 236.439 240.774 235.975 241.494 235.559C242.224 235.137 243.028 234.86 243.905 234.727C244.783 234.593 245.656 234.596 246.524 234.735C247.393 234.873 248.182 235.148 248.894 235.559C249.614 235.975 250.095 236.433 250.335 236.935C250.584 237.441 250.589 237.945 250.349 238.447C250.118 238.953 249.637 239.417 248.908 239.839C248.187 240.255 247.383 240.532 246.497 240.671C245.628 240.809 244.751 240.809 243.864 240.671C242.986 240.527 242.192 240.249 241.48 239.839ZM242.353 239.335C242.88 239.639 243.462 239.841 244.099 239.943C244.746 240.039 245.397 240.031 246.053 239.919C246.727 239.807 247.346 239.588 247.91 239.263C248.483 238.932 248.861 238.575 249.046 238.191C249.24 237.812 249.249 237.439 249.074 237.071C248.908 236.697 248.566 236.361 248.048 236.063C247.531 235.764 246.949 235.567 246.303 235.471C245.665 235.369 245.014 235.372 244.349 235.479C243.684 235.585 243.065 235.804 242.492 236.135C241.929 236.46 241.55 236.817 241.356 237.207C241.171 237.591 241.162 237.969 241.328 238.343C241.504 238.711 241.845 239.041 242.353 239.335ZM253.283 245.581L252.798 245.605L259.476 241.749L260.46 242.317L253.781 246.173L253.781 245.869L257.841 248.213L257.315 248.213L263.994 244.357L264.977 244.925L257.703 249.125L247.643 243.317L254.918 239.117L255.901 239.685L249.223 243.541L249.237 243.245L253.283 245.581ZM259.459 250.122L260.373 249.674C260.429 249.717 260.475 249.76 260.512 249.802C260.567 249.845 260.618 249.88 260.664 249.906C260.96 250.077 261.306 250.149 261.704 250.122C262.11 250.101 262.544 250.01 263.006 249.85C263.468 249.69 263.948 249.488 264.447 249.242C264.955 248.992 265.459 248.738 265.958 248.482L268.673 247.058L274.008 250.138L266.733 254.338L265.75 253.77L272.456 249.898L272.415 250.21L268.452 247.922L268.992 247.882L266.775 249.034C266.119 249.381 265.468 249.698 264.821 249.986C264.184 250.28 263.574 250.509 262.992 250.674C262.42 250.845 261.884 250.93 261.385 250.93C260.895 250.925 260.457 250.81 260.069 250.586C259.958 250.522 259.851 250.45 259.75 250.37C259.657 250.296 259.56 250.213 259.459 250.122ZM272.731 257.881C272.029 257.476 271.553 257.02 271.304 256.513C271.073 256.006 271.073 255.5 271.304 254.993C271.544 254.481 272.024 254.017 272.745 253.601C273.475 253.18 274.278 252.902 275.156 252.769C276.033 252.636 276.906 252.638 277.775 252.777C278.643 252.916 279.433 253.19 280.144 253.601C280.865 254.017 281.345 254.476 281.585 254.977C281.835 255.484 281.839 255.988 281.599 256.489C281.368 256.996 280.888 257.46 280.158 257.881C279.438 258.297 278.634 258.574 277.747 258.713C276.879 258.852 276.001 258.852 275.114 258.713C274.237 258.569 273.442 258.292 272.731 257.881ZM273.604 257.377C274.131 257.681 274.712 257.884 275.35 257.985C275.997 258.081 276.648 258.073 277.304 257.961C277.978 257.849 278.597 257.63 279.16 257.305C279.733 256.974 280.112 256.617 280.297 256.233C280.491 255.854 280.5 255.481 280.324 255.113C280.158 254.74 279.816 254.404 279.299 254.105C278.782 253.806 278.2 253.609 277.553 253.513C276.916 253.412 276.264 253.414 275.599 253.521C274.934 253.628 274.315 253.846 273.743 254.177C273.179 254.502 272.8 254.86 272.606 255.249C272.422 255.633 272.412 256.012 272.579 256.385C272.754 256.753 273.096 257.084 273.604 257.377ZM278.894 261.359L286.168 257.159L287.166 257.735L284.88 262.863L284.464 262.623L293.401 261.335L294.316 261.863L287.041 266.063L286.14 265.543L292.293 261.991L292.39 262.143L284.076 263.327L283.632 263.071L285.711 258.223L285.96 258.319L279.794 261.879L278.894 261.359ZM294.021 270.093L301.296 265.893L302.294 266.469L300.007 271.597L299.592 271.357L308.529 270.069L309.444 270.597L302.169 274.797L301.268 274.277L307.421 270.725L307.518 270.877L299.204 272.061L298.76 271.805L300.839 266.957L301.088 267.053L294.922 270.613L294.021 270.093ZM308.294 278.413C307.537 277.976 307.028 277.501 306.77 276.989C306.52 276.472 306.511 275.96 306.742 275.453C306.982 274.941 307.463 274.477 308.183 274.061C308.904 273.645 309.694 273.365 310.553 273.221C311.421 273.083 312.28 273.077 313.13 273.205C313.998 273.333 314.77 273.592 315.444 273.981C316.128 274.376 316.576 274.816 316.788 275.301C317.019 275.787 317.005 276.28 316.746 276.781C316.497 277.277 316.007 277.736 315.278 278.157C315.231 278.184 315.176 278.211 315.111 278.237C315.065 278.264 315.014 278.293 314.959 278.325L308.627 274.669L309.361 274.245L315.167 277.597L314.488 277.541C315.014 277.237 315.365 276.901 315.541 276.533C315.735 276.165 315.753 275.803 315.596 275.445C315.439 275.088 315.107 274.763 314.599 274.469C314.1 274.181 313.536 273.989 312.908 273.893C312.28 273.797 311.647 273.805 311.01 273.917C310.372 274.029 309.786 274.24 309.25 274.549L309.098 274.637C308.543 274.957 308.174 275.309 307.989 275.693C307.823 276.077 307.837 276.464 308.031 276.853C308.243 277.243 308.631 277.6 309.195 277.925C309.638 278.181 310.128 278.373 310.663 278.501C311.208 278.635 311.781 278.688 312.382 278.661L312.299 279.349C311.587 279.387 310.885 279.323 310.192 279.157C309.509 278.997 308.876 278.749 308.294 278.413ZM317.067 283.479C316.347 283.063 315.857 282.599 315.599 282.087C315.358 281.575 315.354 281.065 315.585 280.559C315.825 280.047 316.305 279.583 317.026 279.167C317.756 278.745 318.559 278.468 319.437 278.335C320.314 278.201 321.192 278.207 322.07 278.351C322.956 278.5 323.76 278.783 324.481 279.199C325.1 279.556 325.538 279.948 325.797 280.375C326.056 280.801 326.088 281.236 325.894 281.679L324.661 281.543C324.781 281.185 324.744 280.849 324.55 280.535C324.356 280.22 324.042 279.937 323.608 279.687C323.09 279.388 322.504 279.188 321.848 279.087C321.201 278.98 320.545 278.98 319.88 279.087C319.215 279.193 318.596 279.412 318.023 279.743C317.451 280.073 317.072 280.431 316.887 280.815C316.703 281.199 316.698 281.58 316.873 281.959C317.058 282.332 317.409 282.668 317.926 282.967C318.361 283.217 318.85 283.399 319.395 283.511C319.94 283.623 320.518 283.647 321.127 283.583L321.363 284.295C320.605 284.401 319.853 284.383 319.104 284.239C318.365 284.089 317.686 283.836 317.067 283.479ZM326.627 288.918L329.246 287.406L329.218 287.63L326.752 286.206C325.819 285.667 325.292 285.129 325.172 284.59C325.052 284.051 325.38 283.558 326.156 283.11C326.987 282.63 327.888 282.435 328.858 282.526C329.837 282.611 330.798 282.926 331.74 283.47L334.802 285.238L327.528 289.438L326.627 288.918ZM321.306 285.846L326.1 285.382L327.126 285.974L322.373 286.462L321.306 285.846ZM329.537 287.238L333.333 285.046L333.223 285.318L330.909 283.982C330.234 283.593 329.578 283.363 328.941 283.294C328.313 283.23 327.708 283.366 327.126 283.702C326.045 284.326 326.193 285.035 327.569 285.83L329.952 287.206L329.537 287.238ZM330.61 291.217L337.884 287.017L338.868 287.585L332.453 291.289L336.901 293.857L343.316 290.153L344.3 290.721L337.025 294.921L330.61 291.217ZM335.515 296.081L337.358 295.017L337.524 295.209L336.042 294.353L336.901 293.857L339.062 295.105L336.443 296.617L335.515 296.081ZM343.408 298.686C342.65 298.249 342.142 297.774 341.883 297.262C341.634 296.745 341.625 296.233 341.856 295.726C342.096 295.214 342.576 294.75 343.297 294.334C344.017 293.918 344.807 293.638 345.666 293.494C346.535 293.356 347.394 293.35 348.243 293.478C349.112 293.606 349.883 293.865 350.557 294.254C351.241 294.649 351.689 295.089 351.902 295.574C352.132 296.06 352.119 296.553 351.86 297.054C351.611 297.55 351.121 298.009 350.391 298.43C350.345 298.457 350.29 298.484 350.225 298.51C350.179 298.537 350.128 298.566 350.073 298.598L343.74 294.942L344.475 294.518L350.28 297.87L349.601 297.814C350.128 297.51 350.479 297.174 350.654 296.806C350.848 296.438 350.867 296.076 350.71 295.718C350.553 295.361 350.22 295.036 349.712 294.742C349.213 294.454 348.65 294.262 348.022 294.166C347.394 294.07 346.761 294.078 346.123 294.19C345.486 294.302 344.899 294.513 344.364 294.822L344.211 294.91C343.657 295.23 343.287 295.582 343.103 295.966C342.936 296.35 342.95 296.737 343.144 297.126C343.357 297.516 343.745 297.873 344.308 298.198C344.752 298.454 345.241 298.646 345.777 298.774C346.322 298.908 346.895 298.961 347.495 298.934L347.412 299.622C346.701 299.66 345.999 299.596 345.306 299.43C344.622 299.27 343.99 299.022 343.408 298.686Z" fill="#3B3B3B"></path>
                        <g filter="url(#filter1_d_12206_299)">
                            <circle r="131.403" transform="matrix(1.22442 0.016225 -0.0281026 0.706921 645.222 397.13)" fill="white"></circle>
                        </g>
                        <path d="M719.139 437.973C675.717 463.042 605.316 463.042 561.894 437.973C518.472 412.903 518.472 372.257 561.894 347.187C605.316 322.117 675.717 322.117 719.139 347.187C762.561 372.257 762.561 412.903 719.139 437.973ZM590.785 363.867C563.319 379.725 563.319 405.435 590.785 421.292C618.251 437.15 662.782 437.15 690.248 421.292C717.714 405.435 717.714 379.725 690.248 363.867C662.782 348.01 618.251 348.01 590.785 363.867Z" fill="#FAFAFA"></path>
                        <path opacity="0.3" d="M731.512 340.568C745.931 348.959 756.655 359.224 762.786 370.501C768.916 381.779 770.274 393.741 766.746 405.384C763.217 417.027 754.905 428.012 742.506 437.418C730.107 446.824 713.982 454.376 695.485 459.442C676.987 464.508 656.656 466.939 636.195 466.532C615.734 466.125 595.74 462.892 577.89 457.103C560.04 451.315 544.854 443.14 533.606 433.264C522.357 423.388 515.373 412.099 513.241 400.343L570.927 396.854C572.094 403.286 575.914 409.462 582.068 414.864C588.222 420.267 596.53 424.74 606.295 427.906C616.06 431.073 626.998 432.842 638.191 433.064C649.385 433.287 660.508 431.957 670.627 429.186C680.747 426.414 689.568 422.283 696.351 417.137C703.134 411.992 707.681 405.982 709.612 399.612C711.542 393.243 710.799 386.699 707.445 380.529C704.092 374.359 698.225 368.744 690.336 364.153L731.512 340.568Z" fill="#46D961"></path>
                        <path opacity="0.6" d="M749.635 456.179C724.106 470.802 690.575 479.854 654.769 481.788C618.964 483.722 583.106 478.419 553.322 466.784L600.447 426.573C614.096 431.905 630.528 434.335 646.936 433.449C663.343 432.562 678.709 428.414 690.408 421.713L749.635 456.179Z" fill="url(#paint0_linear_12206_299)"></path>
                    </g>
                </g>
                <defs>
                    <filter id="filter0_d_12206_299" x="-12.0257" y="-6.26904" width="1024.08" height="644.527" filterUnits="userSpaceOnUse" color-interpolation-filters="sRGB">
                        <feFlood flood-opacity="0" result="BackgroundImageFix"></feFlood>
                        <feColorMatrix in="SourceAlpha" type="matrix" values="0 0 0 0 0 0 0 0 0 0 0 0 0 0 0 0 0 0 127 0" result="hardAlpha"></feColorMatrix>
                        <feOffset dy="4.75666"></feOffset>
                        <feGaussianBlur stdDeviation="31.5128"></feGaussianBlur>
                        <feComposite in2="hardAlpha" operator="out"></feComposite>
                        <feColorMatrix type="matrix" values="0 0 0 0 0 0 0 0 0 0 0 0 0 0 0 0 0 0 0.1 0"></feColorMatrix>
                        <feBlend mode="normal" in2="BackgroundImageFix" result="effect1_dropShadow_12206_299"></feBlend>
                        <feBlend mode="normal" in="SourceGraphic" in2="effect1_dropShadow_12206_299" result="shape"></feBlend>
                    </filter>
                    <filter id="filter1_d_12206_299" x="421.26" y="245.945" width="447.923" height="311.884" filterUnits="userSpaceOnUse" color-interpolation-filters="sRGB">
                        <feFlood flood-opacity="0" result="BackgroundImageFix"></feFlood>
                        <feColorMatrix in="SourceAlpha" type="matrix" values="0 0 0 0 0 0 0 0 0 0 0 0 0 0 0 0 0 0 127 0" result="hardAlpha"></feColorMatrix>
                        <feOffset dy="4.75666"></feOffset>
                        <feGaussianBlur stdDeviation="31.5128"></feGaussianBlur>
                        <feComposite in2="hardAlpha" operator="out"></feComposite>
                        <feColorMatrix type="matrix" values="0 0 0 0 0 0 0 0 0 0 0 0 0 0 0 0 0 0 0.07 0"></feColorMatrix>
                        <feBlend mode="normal" in2="BackgroundImageFix" result="effect1_dropShadow_12206_299"></feBlend>
                        <feBlend mode="normal" in="SourceGraphic" in2="effect1_dropShadow_12206_299" result="shape"></feBlend>
                    </filter>
                    <linearGradient id="paint0_linear_12206_299" x1="639.436" y1="519.299" x2="692.639" y2="361.496" gradientUnits="userSpaceOnUse">
                        <stop stop-color="#21A038"></stop>
                        <stop offset="1" stop-color="#46D961"></stop>
                    </linearGradient>
                    <clipPath id="clip0_12206_299">
                        <rect width="709.931" height="327.02" rx="23.7833" transform="matrix(0.866025 0.5 -0.866025 0.5 334.208 52)" fill="white"></rect>
                    </clipPath>
                </defs>
            </svg>