<svg class="main_screen_pic followers aos-init aos-animate" data-aos="fade-left" data-aos-duration="600" data-aos-offset="600" data-aos-easing="ease-in-out" data-aos-delay="600" width="532" height="429" viewBox="0 0 532 429" fill="none" xmlns="http://www.w3.org/2000/svg">
                <g filter="url(#filter0_d_12055_1090)">
                    <g clip-path="url(#clip0_12055_1090)">
                        <rect width="334.155" height="283.021" rx="23.7833" transform="matrix(0.866025 0.5 -0.866025 0.5 309.065 52.2597)" fill="white"></rect>
                        <path opacity="0.9" d="M226.851 149.077C218.612 131.001 167.12 139.167 142.404 145.509L131.59 139.266L42.5087 190.697L359.701 373.829L444.664 324.776C415.313 331.415 356.921 332.862 358.157 285.533C359.701 226.372 308.724 223.697 295.336 221.913C281.948 220.129 216.553 225.778 210.889 200.508C205.224 175.238 237.15 171.671 226.851 149.077Z" fill="#46D961" stroke="#21A038" stroke-width="2.37833" stroke-linecap="round"></path>
                        <path d="M299.818 98.0291L314.367 89.6291L327.233 97.0571L312.683 105.457L310.023 103.921L322.951 96.4571L322.909 97.2011L314.118 92.1251L315.406 92.1011L302.478 99.5651L299.818 98.0291ZM321.712 110.838C320.576 110.182 319.807 109.458 319.405 108.666C319.017 107.866 318.996 107.07 319.342 106.278C319.689 105.486 320.409 104.774 321.504 104.142C322.613 103.502 323.846 103.086 325.204 102.894C326.575 102.694 327.947 102.71 329.319 102.942C330.691 103.174 331.945 103.618 333.081 104.274C334.231 104.938 335.007 105.666 335.409 106.458C335.825 107.258 335.859 108.046 335.513 108.822C335.18 109.606 334.453 110.322 333.33 110.97C332.236 111.602 331.003 112.018 329.631 112.218C328.273 112.426 326.894 112.414 325.495 112.182C324.123 111.95 322.862 111.502 321.712 110.838ZM323.936 109.554C324.573 109.922 325.28 110.17 326.056 110.298C326.832 110.426 327.622 110.418 328.425 110.274C329.243 110.138 330.005 109.866 330.712 109.458C331.432 109.042 331.903 108.602 332.125 108.138C332.374 107.674 332.388 107.218 332.167 106.77C331.945 106.322 331.522 105.918 330.899 105.558C330.261 105.19 329.555 104.942 328.779 104.814C328.017 104.694 327.227 104.702 326.409 104.838C325.606 104.966 324.843 105.238 324.123 105.654C323.416 106.062 322.945 106.502 322.71 106.974C322.474 107.446 322.46 107.902 322.668 108.342C322.89 108.79 323.312 109.194 323.936 109.554ZM339.454 119.521L347.144 115.081L342.884 112.621L341.034 113.617C340.369 113.969 339.71 114.301 339.059 114.613C338.422 114.917 337.791 115.177 337.168 115.393C336.558 115.601 335.976 115.729 335.422 115.777C334.868 115.825 334.348 115.765 333.863 115.597L331.681 113.881C332.096 114.121 332.561 114.237 333.073 114.229C333.614 114.221 334.189 114.121 334.798 113.929C335.436 113.737 336.094 113.485 336.773 113.173C337.466 112.853 338.159 112.509 338.851 112.141L342.8 110.029L351.946 115.309L342.052 121.021L339.454 119.521ZM326.609 116.353L331.286 113.653L344.692 121.393L340.015 124.093L337.584 122.689L340.057 121.261L331.494 116.317L329.02 117.745L326.609 116.353ZM345.225 124.245L356.324 117.837L366.966 123.981L355.867 130.389L353.289 128.901L362.788 123.417L362.788 124.113L356.116 120.261L357.321 120.261L347.823 125.745L345.225 124.245ZM359.788 132.653L370.887 126.245L373.485 127.745L366.169 131.969L379.616 131.285L381.986 132.653L370.887 139.061L368.289 137.561L375.605 133.337L362.178 134.033L359.788 132.653ZM379.703 144.319C378.539 143.647 377.742 142.907 377.312 142.099C376.911 141.291 376.883 140.491 377.229 139.699C377.576 138.907 378.296 138.195 379.391 137.563C380.499 136.923 381.733 136.507 383.09 136.315C384.462 136.115 385.841 136.135 387.227 136.375C388.626 136.623 389.908 137.083 391.072 137.755C392.153 138.379 392.88 139.055 393.254 139.783C393.656 140.511 393.649 141.243 393.233 141.979L390.074 141.499C390.268 141.003 390.247 140.543 390.012 140.119C389.79 139.703 389.402 139.335 388.848 139.015C388.21 138.647 387.497 138.395 386.707 138.259C385.917 138.123 385.114 138.123 384.296 138.259C383.492 138.387 382.73 138.659 382.01 139.075C381.289 139.491 380.811 139.935 380.576 140.407C380.354 140.871 380.361 141.331 380.596 141.787C380.832 142.243 381.268 142.655 381.906 143.023C382.46 143.343 383.097 143.567 383.818 143.695C384.552 143.831 385.349 143.843 386.208 143.731L387.04 145.555C385.779 145.787 384.504 145.795 383.215 145.579C381.954 145.363 380.783 144.943 379.703 144.319ZM398.68 150.043C397.904 149.883 397.135 149.679 396.373 149.431C395.639 149.183 394.946 148.871 394.295 148.495C392.895 147.687 392.133 146.871 392.008 146.047C391.883 145.223 392.507 144.415 393.879 143.623L397.433 141.571L400.031 143.071L396.643 145.027C395.909 145.451 395.583 145.879 395.666 146.311C395.763 146.751 396.186 147.187 396.934 147.619C397.433 147.907 397.994 148.159 398.618 148.375C399.241 148.591 399.906 148.775 400.613 148.927L398.68 150.043ZM394.107 152.467L405.206 146.059L407.805 147.559L396.706 153.967L394.107 152.467ZM400.615 156.224L411.714 149.816L414.312 151.316L406.996 155.54L420.443 154.856L422.813 156.224L411.714 162.632L409.116 161.132L416.432 156.908L403.005 157.604L400.615 156.224ZM423.585 169.486L424.894 164.098L428.324 164.566L426.64 171.25L423.585 169.486ZM415.625 164.89L426.724 158.482L429.322 159.982L418.223 166.39L415.625 164.89ZM421.901 163.378L424.063 162.13L427.825 164.302L425.664 165.55L421.901 163.378ZM427.181 165.514L425.04 163.942L434.684 163.078L437.469 164.686L427.181 165.514ZM428.889 172.548L439.988 166.14L442.586 167.64L435.269 171.864L448.717 171.18L451.087 172.548L439.988 178.956L437.389 177.456L444.706 173.232L431.279 173.928L428.889 172.548Z" fill="#3B3B3B"></path>
                        <path d="M253.665 125.084L262.948 119.724L262.921 120.252L260.191 118.676L261.078 118.164L264.362 120.06L254.662 125.66L253.665 125.084ZM260.237 128.974C259.544 128.574 258.995 128.129 258.588 127.638C258.191 127.142 257.997 126.678 258.006 126.246L259.281 126.07C259.263 126.433 259.41 126.828 259.724 127.254C260.048 127.686 260.519 128.081 261.138 128.438C261.96 128.913 262.764 129.169 263.549 129.206C264.352 129.244 265.05 129.092 265.641 128.75C266.057 128.51 266.311 128.246 266.403 127.958C266.514 127.67 266.417 127.342 266.112 126.974C265.807 126.606 265.244 126.185 264.422 125.71L262.357 124.518L267.72 121.998L273.027 125.062L272.14 125.574L267.235 122.742L268.232 122.758L263.729 124.862L263.715 124.278L265.53 125.326C266.509 125.892 267.175 126.414 267.526 126.894C267.877 127.374 267.964 127.814 267.789 128.214C267.632 128.614 267.267 128.98 266.694 129.31C266.149 129.625 265.521 129.838 264.81 129.95C264.108 130.057 263.369 130.036 262.593 129.886C261.817 129.737 261.032 129.433 260.237 128.974ZM266.062 132.321C265.859 132.204 265.758 132.06 265.758 131.889C265.767 131.724 265.878 131.58 266.09 131.457C266.312 131.329 266.561 131.265 266.838 131.265C267.125 131.271 267.37 131.332 267.573 131.449C267.776 131.567 267.878 131.705 267.878 131.865C267.887 132.031 267.781 132.177 267.559 132.305C267.346 132.428 267.092 132.489 266.797 132.489C266.51 132.495 266.266 132.439 266.062 132.321ZM268.552 133.679L269.259 133.271L277.24 133.319C277.97 133.324 278.561 133.303 279.014 133.255C279.476 133.202 279.859 133.124 280.164 133.023C280.469 132.922 280.727 132.81 280.94 132.687C281.503 132.362 281.753 131.994 281.688 131.583C281.633 131.178 281.231 130.759 280.482 130.327C279.91 129.996 279.314 129.754 278.695 129.599C278.085 129.45 277.439 129.391 276.755 129.423L276.658 128.663C277.48 128.626 278.307 128.708 279.138 128.911C279.97 129.114 280.75 129.426 281.48 129.847C282.136 130.226 282.598 130.615 282.866 131.015C283.143 131.41 283.212 131.796 283.074 132.175C282.944 132.559 282.612 132.906 282.076 133.215C281.762 133.396 281.406 133.548 281.009 133.671C280.621 133.799 280.141 133.895 279.568 133.959C279.014 134.023 278.307 134.052 277.448 134.047L270.118 134.007L270.229 133.623L276.242 137.095L275.356 137.607L268.552 133.679ZM281.042 138.106L282.247 137.362L294.164 137.266L295.342 137.946L286.57 138.066L285.365 138.09L281.042 138.106ZM277.744 138.986L287.443 133.386L288.469 133.978L278.769 139.578L277.744 138.986ZM284.714 143.01L285.351 137.81L286.792 137.778L285.933 143.714L284.714 143.01Z" fill="#3B3B3B"></path>
                        <path d="M430.94 233.173L438.284 228.933L439.375 229.563L432.031 233.803L430.94 233.173ZM430.87 229.493L431.892 228.903L439.427 233.253L438.405 233.843L430.87 229.493ZM434.897 238.218L435.78 237.708L445.757 237.768C446.669 237.775 447.408 237.748 447.974 237.688C448.551 237.622 449.031 237.525 449.412 237.398C449.793 237.272 450.116 237.132 450.381 236.978C451.086 236.572 451.398 236.112 451.317 235.598C451.248 235.092 450.745 234.568 449.81 234.028C449.094 233.615 448.349 233.312 447.576 233.118C446.813 232.932 446.005 232.858 445.151 232.898L445.029 231.948C446.057 231.902 447.091 232.005 448.13 232.258C449.169 232.512 450.145 232.902 451.057 233.428C451.877 233.902 452.454 234.388 452.789 234.888C453.135 235.382 453.222 235.865 453.049 236.338C452.887 236.818 452.472 237.252 451.802 237.638C451.409 237.865 450.965 238.055 450.468 238.208C449.983 238.368 449.383 238.488 448.667 238.568C447.974 238.648 447.091 238.685 446.017 238.678L436.854 238.628L436.993 238.148L444.51 242.488L443.401 243.128L434.897 238.218ZM445.088 244.102L445.971 243.592L455.948 243.652C456.86 243.658 457.599 243.632 458.165 243.572C458.742 243.505 459.221 243.408 459.602 243.282C459.983 243.155 460.307 243.015 460.572 242.862C461.277 242.455 461.588 241.995 461.507 241.482C461.438 240.975 460.936 240.452 460.001 239.912C459.285 239.498 458.54 239.195 457.766 239.002C457.004 238.815 456.196 238.742 455.341 238.782L455.22 237.832C456.248 237.785 457.281 237.888 458.321 238.142C459.36 238.395 460.335 238.785 461.248 239.312C462.068 239.785 462.645 240.272 462.98 240.772C463.326 241.265 463.413 241.748 463.24 242.222C463.078 242.702 462.662 243.135 461.992 243.522C461.6 243.748 461.155 243.938 460.659 244.092C460.174 244.252 459.573 244.372 458.857 244.452C458.165 244.532 457.281 244.568 456.207 244.562L447.045 244.512L447.183 244.032L454.701 248.372L453.592 249.012L445.088 244.102ZM457.301 251.153L477.704 248.933L478.726 249.523L458.323 251.743L457.301 251.153ZM463.865 248.443C463.323 248.13 462.976 247.776 462.826 247.383C462.687 246.983 462.751 246.573 463.017 246.153C463.294 245.74 463.761 245.343 464.42 244.963C465.078 244.583 465.765 244.313 466.481 244.153C467.208 244 467.912 243.966 468.594 244.053C469.287 244.133 469.904 244.33 470.447 244.643C470.99 244.956 471.325 245.31 471.452 245.703C471.602 246.096 471.544 246.503 471.278 246.923C471.013 247.343 470.551 247.743 469.893 248.123C469.235 248.503 468.542 248.77 467.814 248.923C467.087 249.076 466.377 249.113 465.684 249.033C465.014 248.953 464.408 248.756 463.865 248.443ZM464.645 247.993C465.21 248.32 465.88 248.453 466.654 248.393C467.451 248.333 468.242 248.076 469.027 247.623C469.812 247.17 470.251 246.716 470.343 246.263C470.459 245.81 470.233 245.42 469.668 245.093C469.09 244.76 468.409 244.626 467.624 244.693C466.85 244.753 466.071 245.01 465.286 245.463C464.5 245.916 464.05 246.37 463.935 246.823C463.831 247.27 464.067 247.66 464.645 247.993ZM465.58 256.033C465.049 255.726 464.708 255.376 464.558 254.983C464.42 254.583 464.483 254.173 464.749 253.753C465.014 253.333 465.476 252.933 466.134 252.553C466.792 252.173 467.485 251.906 468.213 251.753C468.94 251.6 469.645 251.566 470.326 251.653C471.019 251.733 471.631 251.926 472.162 252.233C472.716 252.553 473.057 252.91 473.184 253.303C473.334 253.696 473.27 254.1 472.993 254.513C472.728 254.933 472.266 255.333 471.608 255.713C470.949 256.093 470.257 256.36 469.529 256.513C468.813 256.673 468.109 256.713 467.416 256.633C466.746 256.553 466.134 256.353 465.58 256.033ZM466.359 255.583C466.925 255.91 467.595 256.043 468.369 255.983C469.165 255.923 469.956 255.666 470.741 255.213C471.527 254.76 471.965 254.306 472.058 253.853C472.173 253.4 471.948 253.01 471.382 252.683C470.817 252.356 470.135 252.223 469.339 252.283C468.565 252.343 467.785 252.6 467 253.053C466.215 253.506 465.765 253.96 465.649 254.413C465.557 254.866 465.794 255.256 466.359 255.583Z" fill="#21A038"></path>
                        <circle r="7.72956" transform="matrix(0.866025 0.5 -0.866025 0.5 335.841 235.391)" fill="white" stroke="#22C9B1" stroke-width="3.56749"></circle>
                        <path d="M327.088 240.445L236.461 292.768" stroke="#22C9B1" stroke-width="2.37833" stroke-linecap="round"></path>
                    </g>
                </g>
                <defs>
                    <filter id="filter0_d_12055_1090" x="0.935734" y="-6.00933" width="660.542" height="434.639" filterUnits="userSpaceOnUse" color-interpolation-filters="sRGB">
                        <feFlood flood-opacity="0" result="BackgroundImageFix"></feFlood>
                        <feColorMatrix in="SourceAlpha" type="matrix" values="0 0 0 0 0 0 0 0 0 0 0 0 0 0 0 0 0 0 127 0" result="hardAlpha"></feColorMatrix>
                        <feOffset dy="4.75666"></feOffset>
                        <feGaussianBlur stdDeviation="31.5128"></feGaussianBlur>
                        <feComposite in2="hardAlpha" operator="out"></feComposite>
                        <feColorMatrix type="matrix" values="0 0 0 0 0 0 0 0 0 0 0 0 0 0 0 0 0 0 0.1 0"></feColorMatrix>
                        <feBlend mode="normal" in2="BackgroundImageFix" result="effect1_dropShadow_12055_1090"></feBlend>
                        <feBlend mode="normal" in="SourceGraphic" in2="effect1_dropShadow_12055_1090" result="shape"></feBlend>
                    </filter>
                    <clipPath id="clip0_12055_1090">
                        <rect width="334.155" height="283.021" rx="23.7833" transform="matrix(0.866025 0.5 -0.866025 0.5 309.065 52.2597)" fill="white"></rect>
                    </clipPath>
                </defs>
            </svg>