<svg width="34" height="34" viewBox="0 0 34 34" fill="none" xmlns="http://www.w3.org/2000/svg">
<rect x="0.117676" width="33.8824" height="33.8824" rx="16.9412" fill="#5181B8"/>
<path fill-rule="evenodd" clip-rule="evenodd" d="M27.8673 11.6725C28.0232 11.1473 27.8673 10.7644 27.1185 10.7644H24.6485C24.0217 10.7644 23.7303 11.0965 23.5744 11.4624C23.5744 11.4624 22.3174 14.5253 20.5386 16.5142C19.9626 17.0902 19.7017 17.2732 19.3866 17.2732C19.2307 17.2732 19.0037 17.0902 19.0037 16.5651V11.6725C19.0037 11.0456 18.8207 10.7644 18.2989 10.7644H14.416C14.023 10.7644 13.7858 11.0558 13.7858 11.3336C13.7858 11.93 14.6769 12.0655 14.7684 13.7427V17.3816C14.7684 18.1779 14.6227 18.3236 14.311 18.3236C13.4741 18.3236 11.4378 15.247 10.2282 11.7267C9.99099 11.0422 9.75381 10.7678 9.1236 10.7678H6.65358C5.94882 10.7678 5.80652 11.0998 5.80652 11.4658C5.80652 12.1197 6.64341 15.3656 9.70638 19.6585C11.7495 22.5893 14.6227 24.1784 17.2418 24.1784C18.8106 24.1784 19.0071 23.8261 19.0071 23.2162V21.0003C19.0071 20.2955 19.1562 20.1532 19.6542 20.1532C20.0202 20.1532 20.6504 20.3362 22.1141 21.7491C23.7879 23.4229 24.0657 24.175 25.0076 24.175H27.4777C28.1824 24.175 28.5348 23.8227 28.3315 23.1247C28.1079 22.4301 27.3083 21.4238 26.2477 20.2277C25.6717 19.5467 24.8077 18.8149 24.5468 18.4489C24.1809 17.978 24.286 17.7679 24.5468 17.3511C24.5435 17.3511 27.5522 13.1125 27.8673 11.6725Z" fill="white"/>
</svg>
