<svg class="main_screen_pic dates aos-init aos-animate" data-aos="fade-right" data-aos-duration="600" data-aos-offset="600" data-aos-easing="ease-in-out" data-aos-delay="300" width="876" height="560" viewBox="0 0 876 560" fill="none" xmlns="http://www.w3.org/2000/svg">
                <g filter="url(#filter0_d_12055_977)">
                    <g clip-path="url(#clip0_12055_977)">
                        <rect width="760" height="134" rx="25" transform="matrix(0.866025 0.5 -0.866025 0.5 166.904 51.8634)" fill="white"></rect>
                        <path d="M369.471 205.395C368.75 204.979 368.261 204.515 368.002 204.003C367.762 203.491 367.757 202.982 367.988 202.475C368.229 201.963 368.709 201.499 369.429 201.083C370.159 200.662 370.963 200.385 371.84 200.251C372.718 200.118 373.596 200.123 374.473 200.267C375.36 200.417 376.164 200.699 376.884 201.115C377.503 201.473 377.942 201.865 378.2 202.291C378.459 202.718 378.491 203.153 378.297 203.595L377.064 203.459C377.184 203.102 377.147 202.766 376.953 202.451C376.759 202.137 376.445 201.854 376.011 201.603C375.494 201.305 374.907 201.105 374.251 201.003C373.605 200.897 372.949 200.897 372.284 201.003C371.619 201.11 371 201.329 370.427 201.659C369.854 201.99 369.476 202.347 369.291 202.731C369.106 203.115 369.101 203.497 369.277 203.875C369.462 204.249 369.813 204.585 370.33 204.883C370.764 205.134 371.254 205.315 371.799 205.427C372.344 205.539 372.921 205.563 373.531 205.499L373.766 206.211C373.009 206.318 372.256 206.299 371.508 206.155C370.769 206.006 370.09 205.753 369.471 205.395ZM378.263 210.471C377.634 210.108 377.209 209.698 376.988 209.239C376.775 208.775 376.789 208.298 377.029 207.807C377.288 207.316 377.814 206.842 378.609 206.383C379.403 205.924 380.221 205.623 381.062 205.479C381.911 205.33 382.734 205.319 383.528 205.447C384.322 205.575 385.038 205.823 385.676 206.191C386.369 206.591 386.83 207.039 387.061 207.535C387.311 208.031 387.311 208.532 387.061 209.039C386.821 209.54 386.336 210.002 385.606 210.423C384.867 210.85 384.064 211.132 383.195 211.271C382.327 211.41 381.459 211.41 380.59 211.271C379.731 211.138 378.955 210.871 378.263 210.471ZM371.889 209.815L381.851 204.063L382.794 204.607L380.604 205.871L379.052 206.655L377.722 207.583L372.872 210.383L371.889 209.815ZM379.066 209.927C379.584 210.226 380.161 210.426 380.798 210.527C381.445 210.623 382.101 210.618 382.766 210.511C383.44 210.399 384.059 210.18 384.623 209.855C385.186 209.53 385.56 209.175 385.745 208.791C385.93 208.407 385.939 208.028 385.773 207.655C385.606 207.282 385.265 206.946 384.747 206.647C384.23 206.348 383.643 206.148 382.988 206.047C382.341 205.951 381.685 205.956 381.02 206.063C380.364 206.175 379.754 206.394 379.191 206.719C378.627 207.044 378.244 207.399 378.041 207.783C377.856 208.167 377.847 208.546 378.013 208.919C378.198 209.292 378.549 209.628 379.066 209.927Z" fill="#3B3B3B"></path>
                        <path d="M315.515 221.164L317.017 220.297L333.977 220.399C335.528 220.41 336.784 220.365 337.746 220.263C338.728 220.15 339.542 219.985 340.19 219.77C340.838 219.555 341.388 219.317 341.839 219.056C343.036 218.365 343.566 217.583 343.429 216.71C343.311 215.849 342.457 214.959 340.867 214.041C339.65 213.338 338.384 212.823 337.069 212.494C335.773 212.177 334.399 212.052 332.947 212.12L332.741 210.505C334.488 210.426 336.245 210.601 338.011 211.032C339.778 211.463 341.437 212.126 342.987 213.021C344.381 213.826 345.363 214.653 345.932 215.503C346.521 216.342 346.668 217.163 346.374 217.968C346.099 218.784 345.392 219.521 344.254 220.178C343.586 220.563 342.83 220.886 341.986 221.147C341.162 221.419 340.141 221.623 338.924 221.759C337.746 221.895 336.245 221.957 334.419 221.946L318.843 221.861L319.078 221.045L331.857 228.423L329.973 229.511L315.515 221.164ZM341.203 236.199C339.613 235.281 338.612 234.227 338.2 233.037C337.807 231.836 338.033 230.583 338.877 229.28C339.741 227.965 341.272 226.673 343.47 225.404C345.669 224.135 347.897 223.256 350.154 222.769C352.432 222.27 354.601 222.14 356.662 222.378C358.743 222.605 360.578 223.177 362.168 224.095C363.758 225.013 364.749 226.073 365.142 227.274C365.554 228.464 365.328 229.716 364.465 231.031C363.64 232.346 362.129 233.638 359.93 234.907C357.732 236.176 355.484 237.055 353.187 237.542C350.93 238.029 348.761 238.16 346.68 237.933C344.619 237.695 342.793 237.117 341.203 236.199ZM343.147 235.077C344.364 235.78 345.748 236.205 347.298 236.352C348.869 236.488 350.537 236.341 352.304 235.91C354.09 235.468 355.906 234.714 357.751 233.649C359.596 232.584 360.892 231.541 361.638 230.521C362.404 229.49 362.659 228.526 362.404 227.631C362.168 226.724 361.442 225.92 360.225 225.217C359.047 224.537 357.663 224.123 356.073 223.976C354.502 223.817 352.824 223.959 351.038 224.401C349.271 224.832 347.465 225.58 345.62 226.645C343.775 227.71 342.469 228.759 341.704 229.79C340.958 230.81 340.712 231.779 340.968 232.697C341.242 233.604 341.969 234.397 343.147 235.077Z" fill="#3B3B3B"></path>
                        <path d="M539.541 303.505L546.816 299.305L553.356 303.081L546.082 307.281L545.098 306.713L551.777 302.857L551.763 303.153L546.691 300.225L547.204 300.217L540.525 304.073L539.541 303.505ZM550.541 309.856L557.22 306L557.206 306.296L554.199 304.56L555.058 304.064L561.557 307.816L560.698 308.312L557.691 306.576L558.203 306.568L551.525 310.424L550.541 309.856Z" fill="#3B3B3B"></path>
                        <path d="M488.773 321.194L490.275 320.327L507.235 320.429C508.786 320.441 510.042 320.395 511.004 320.293C511.985 320.18 512.8 320.016 513.448 319.8C514.095 319.585 514.645 319.347 515.097 319.086C516.294 318.395 516.824 317.613 516.687 316.74C516.569 315.879 515.715 314.989 514.125 314.071C512.908 313.369 511.642 312.853 510.326 312.524C509.031 312.207 507.657 312.082 506.204 312.15L505.998 310.535C507.745 310.456 509.502 310.632 511.269 311.062C513.035 311.493 514.694 312.156 516.245 313.051C517.639 313.856 518.62 314.683 519.189 315.533C519.778 316.372 519.926 317.194 519.631 317.998C519.356 318.814 518.65 319.551 517.511 320.208C516.844 320.594 516.088 320.917 515.244 321.177C514.419 321.449 513.399 321.653 512.182 321.789C511.004 321.925 509.502 321.988 507.676 321.976L492.1 321.891L492.336 321.075L505.115 328.453L503.23 329.541L488.773 321.194ZM506.097 331.196L507.599 330.329L524.559 330.431C526.11 330.443 527.366 330.397 528.328 330.295C529.309 330.182 530.124 330.018 530.772 329.802C531.42 329.587 531.969 329.349 532.421 329.088C533.618 328.397 534.148 327.615 534.011 326.742C533.893 325.881 533.039 324.991 531.449 324.073C530.232 323.371 528.966 322.855 527.651 322.526C526.355 322.209 524.981 322.084 523.528 322.152L523.322 320.537C525.069 320.458 526.826 320.634 528.593 321.064C530.36 321.495 532.018 322.158 533.569 323.053C534.963 323.858 535.944 324.685 536.514 325.535C537.102 326.374 537.25 327.196 536.955 328C536.68 328.816 535.974 329.553 534.835 330.21C534.168 330.596 533.412 330.919 532.568 331.179C531.743 331.451 530.723 331.655 529.506 331.791C528.328 331.927 526.826 331.99 525.001 331.978L509.424 331.893L509.66 331.077L522.439 338.455L520.554 339.543L506.097 331.196Z" fill="#3B3B3B"></path>
                        <path d="M716.468 405.654L723.742 401.454L726.957 403.31C727.779 403.785 728.269 404.249 728.426 404.702C728.592 405.161 728.37 405.566 727.761 405.918C727.169 406.259 726.486 406.393 725.71 406.318C724.943 406.238 724.19 405.985 723.451 405.558L723.936 405.502C724.805 406.003 725.28 406.465 725.363 406.886C725.447 407.307 725.183 407.694 724.574 408.046C723.945 408.409 723.225 408.558 722.412 408.494C721.618 408.43 720.74 408.121 719.779 407.566L716.468 405.654ZM718.2 405.758L720.514 407.094C721.133 407.451 721.696 407.665 722.204 407.734C722.731 407.803 723.216 407.71 723.659 407.454C724.103 407.198 724.283 406.929 724.2 406.646C724.116 406.363 723.765 406.043 723.146 405.686L720.735 404.294L718.2 405.758ZM721.47 403.87L723.659 405.134C724.223 405.459 724.758 405.646 725.266 405.694C725.784 405.747 726.246 405.657 726.652 405.422C727.059 405.187 727.211 404.923 727.109 404.63C727.017 404.342 726.689 404.035 726.126 403.71L723.936 402.446L721.47 403.87ZM728.154 412.481C727.434 412.065 726.944 411.601 726.685 411.089C726.445 410.577 726.441 410.068 726.671 409.561C726.912 409.049 727.392 408.585 728.113 408.169C728.842 407.748 729.646 407.47 730.524 407.337C731.401 407.204 732.279 407.209 733.156 407.353C734.043 407.502 734.847 407.785 735.567 408.201C736.186 408.558 736.625 408.95 736.884 409.377C737.142 409.804 737.175 410.238 736.981 410.681L735.747 410.545C735.868 410.188 735.831 409.852 735.637 409.537C735.443 409.222 735.129 408.94 734.694 408.689C734.177 408.39 733.59 408.19 732.935 408.089C732.288 407.982 731.632 407.982 730.967 408.089C730.302 408.196 729.683 408.414 729.11 408.745C728.537 409.076 728.159 409.433 727.974 409.817C727.789 410.201 727.785 410.582 727.96 410.961C728.145 411.334 728.496 411.67 729.013 411.969C729.447 412.22 729.937 412.401 730.482 412.513C731.027 412.625 731.604 412.649 732.214 412.585L732.45 413.297C731.692 413.404 730.939 413.385 730.191 413.241C729.452 413.092 728.773 412.838 728.154 412.481Z" fill="#3B3B3B"></path>
                        <path d="M665.287 423.105L666.789 422.238L683.749 422.34C685.3 422.351 686.556 422.306 687.518 422.204C688.5 422.091 689.314 421.926 689.962 421.711C690.61 421.496 691.16 421.258 691.611 420.997C692.808 420.306 693.338 419.524 693.201 418.651C693.083 417.79 692.229 416.9 690.639 415.982C689.422 415.279 688.156 414.764 686.841 414.435C685.545 414.118 684.171 413.993 682.719 414.061L682.513 412.446C684.26 412.367 686.017 412.542 687.783 412.973C689.55 413.404 691.209 414.067 692.759 414.962C694.153 415.767 695.135 416.594 695.704 417.444C696.293 418.283 696.44 419.104 696.146 419.909C695.871 420.725 695.164 421.462 694.026 422.119C693.358 422.504 692.602 422.827 691.758 423.088C690.934 423.36 689.913 423.564 688.696 423.7C687.518 423.836 686.017 423.898 684.191 423.887L668.615 423.802L668.85 422.986L681.629 430.364L679.745 431.452L665.287 423.105ZM687.369 429.598L688.9 428.714L713.486 427.133L715.842 428.493L691.344 430.125L690.549 429.258L707.126 438.829L705.242 439.917L687.369 429.598ZM693.582 439.441L698.999 436.313L700.943 435.259L705.713 432.505L707.774 433.695L695.702 440.665L693.582 439.441Z" fill="#3B3B3B"></path>
                        <rect width="74" height="122" rx="15" transform="matrix(0.866025 0.5 -0.866025 0.5 453.559 224.363)" fill="#21A038"></rect>
                        <path d="M461.569 254.936C460.96 254.798 460.382 254.635 459.837 254.448C459.311 254.262 458.835 254.046 458.41 253.8C457.551 253.304 457.066 252.8 456.955 252.288C456.853 251.771 457.214 251.275 458.036 250.8L460.419 249.424L461.389 249.984L459.061 251.328C458.507 251.648 458.271 251.992 458.355 252.36C458.438 252.728 458.784 253.088 459.394 253.44C459.763 253.654 460.197 253.851 460.696 254.032C461.204 254.208 461.759 254.363 462.359 254.496L461.569 254.936ZM458.41 256.664L465.685 252.464L466.668 253.032L459.394 257.232L458.41 256.664ZM463.85 259.805L470.529 255.949L470.515 256.245L467.508 254.509L468.368 254.013L474.866 257.765L474.007 258.261L471 256.525L471.513 256.517L464.834 260.373L463.85 259.805Z" fill="white"></path>
                        <path d="M406.517 273.704L408.019 272.837L424.979 272.939C426.53 272.95 427.786 272.905 428.748 272.803C429.73 272.69 430.544 272.525 431.192 272.31C431.84 272.095 432.39 271.857 432.841 271.596C434.038 270.905 434.568 270.123 434.431 269.25C434.313 268.389 433.459 267.499 431.869 266.581C430.652 265.878 429.386 265.363 428.071 265.034C426.775 264.717 425.401 264.592 423.949 264.66L423.743 263.045C425.49 262.966 427.247 263.141 429.013 263.572C430.78 264.003 432.439 264.666 433.989 265.561C435.383 266.366 436.365 267.193 436.934 268.043C437.523 268.882 437.67 269.703 437.376 270.508C437.101 271.324 436.394 272.061 435.256 272.718C434.588 273.103 433.832 273.426 432.988 273.687C432.164 273.959 431.143 274.163 429.926 274.299C428.748 274.435 427.247 274.497 425.421 274.486L409.845 274.401L410.08 273.585L422.859 280.963L420.975 282.051L406.517 273.704ZM427.817 286.001L447.545 274.611L447.486 275.733L441.685 272.384L443.57 271.296L450.548 275.325L429.937 287.225L427.817 286.001Z" fill="white"></path>
                        <circle r="5" transform="matrix(0.866025 0.5 -0.866025 0.5 396.563 294.27)" fill="white"></circle>
                        <path d="M629.894 355.751C629.174 355.335 628.684 354.871 628.425 354.359C628.185 353.847 628.181 353.337 628.412 352.831C628.652 352.319 629.132 351.855 629.853 351.439C630.582 351.017 631.386 350.74 632.264 350.607C633.141 350.473 634.019 350.479 634.896 350.623C635.783 350.772 636.587 351.055 637.307 351.471C637.926 351.828 638.365 352.22 638.624 352.647C638.882 353.073 638.915 353.508 638.721 353.951L637.488 353.815C637.608 353.457 637.571 353.121 637.377 352.807C637.183 352.492 636.869 352.209 636.434 351.959C635.917 351.66 635.331 351.46 634.675 351.359C634.028 351.252 633.372 351.252 632.707 351.359C632.042 351.465 631.423 351.684 630.85 352.015C630.278 352.345 629.899 352.703 629.714 353.087C629.529 353.471 629.525 353.852 629.7 354.231C629.885 354.604 630.236 354.94 630.753 355.239C631.188 355.489 631.677 355.671 632.222 355.783C632.767 355.895 633.345 355.919 633.954 355.855L634.19 356.567C633.432 356.673 632.679 356.655 631.931 356.511C631.192 356.361 630.513 356.108 629.894 355.751ZM638.187 360.555C637.596 360.213 637.166 359.853 636.898 359.475C636.64 359.101 636.547 358.707 636.621 358.291C636.695 357.875 636.94 357.451 637.356 357.019C637.781 356.581 638.381 356.139 639.157 355.691C639.85 355.291 640.519 354.979 641.166 354.755C641.822 354.525 642.455 354.368 643.064 354.283C643.674 354.197 644.261 354.168 644.824 354.195C645.406 354.221 645.956 354.293 646.473 354.411C647.009 354.528 647.512 354.675 647.983 354.851L652.016 356.299L651.267 356.923L647.499 355.547C647.258 355.461 646.958 355.363 646.598 355.251C646.247 355.144 645.845 355.056 645.392 354.987C644.949 354.923 644.459 354.907 643.924 354.939C643.388 354.971 642.81 355.08 642.192 355.267C641.591 355.453 640.944 355.747 640.252 356.147C640.104 356.232 639.988 356.304 639.905 356.363C639.831 356.416 639.748 356.475 639.656 356.539C639.582 356.603 639.457 356.691 639.282 356.803L639.212 356.347C639.877 356.08 640.575 355.917 641.305 355.859C642.044 355.795 642.764 355.832 643.466 355.971C644.187 356.109 644.838 356.347 645.42 356.683C646.094 357.072 646.547 357.504 646.778 357.979C647.018 358.448 647.027 358.917 646.806 359.387C646.593 359.861 646.145 360.296 645.462 360.691C644.787 361.08 644.025 361.339 643.175 361.467C642.335 361.6 641.48 361.592 640.612 361.443C639.753 361.288 638.944 360.992 638.187 360.555ZM639.115 360.147C639.633 360.445 640.205 360.643 640.834 360.739C641.471 360.829 642.104 360.821 642.732 360.715C643.369 360.613 643.942 360.416 644.45 360.123C644.949 359.835 645.277 359.512 645.434 359.155C645.6 358.803 645.596 358.448 645.42 358.091C645.254 357.728 644.907 357.395 644.381 357.091C643.864 356.792 643.295 356.592 642.676 356.491C642.067 356.384 641.452 356.376 640.834 356.467C640.224 356.563 639.665 356.757 639.157 357.051C638.649 357.344 638.302 357.672 638.118 358.035C637.942 358.403 637.933 358.771 638.09 359.139C638.256 359.512 638.598 359.848 639.115 360.147Z" fill="#3B3B3B"></path>
                        <path d="M577.165 372.228L578.667 371.361L595.627 371.463C597.178 371.474 598.434 371.429 599.396 371.327C600.377 371.213 601.192 371.049 601.84 370.834C602.488 370.618 603.037 370.38 603.489 370.12C604.686 369.428 605.216 368.646 605.079 367.774C604.961 366.912 604.107 366.023 602.517 365.105C601.3 364.402 600.034 363.886 598.719 363.558C597.423 363.24 596.049 363.116 594.596 363.184L594.39 361.569C596.137 361.489 597.894 361.665 599.661 362.096C601.428 362.526 603.086 363.189 604.637 364.085C606.031 364.889 607.012 365.717 607.582 366.567C608.17 367.405 608.318 368.227 608.023 369.032C607.748 369.848 607.042 370.584 605.903 371.242C605.236 371.627 604.48 371.95 603.636 372.211C602.811 372.483 601.791 372.687 600.574 372.823C599.396 372.959 597.894 373.021 596.069 373.01L580.492 372.925L580.728 372.109L593.507 379.487L591.622 380.575L577.165 372.228ZM600.849 386.106C599.357 385.244 598.18 384.292 597.316 383.25C596.491 382.207 596.079 381.221 596.079 380.292L598.788 379.918C598.768 380.7 599.092 381.544 599.76 382.451C600.447 383.369 601.458 384.213 602.793 384.984C604.5 385.97 606.179 386.508 607.828 386.599C609.496 386.701 610.959 386.389 612.215 385.664C613.471 384.938 614.021 384.1 613.864 383.148C613.726 382.207 612.696 381.181 610.772 380.071L609.3 379.221L610.861 378.32L625.2 377.385L624.67 378.031L613.187 371.401L615.071 370.313L628.321 377.963L626.82 378.83L612.48 379.765L612.127 378.779L612.922 379.238C615.395 380.666 616.691 382.048 616.808 383.386C616.946 384.734 616.151 385.907 614.423 386.905C613.265 387.573 611.95 388.015 610.478 388.231C609.005 388.446 607.445 388.384 605.796 388.044C604.167 387.715 602.518 387.069 600.849 386.106Z" fill="#3B3B3B"></path>
                        <path d="M581.519 397.985C582.044 397.682 582.306 397.531 582.324 397.401C582.339 397.288 582.26 397.178 582.111 397.104C581.939 397.02 581.568 397.02 580.826 397.02L574.532 397.02L574.532 400.654C574.532 401.082 574.532 401.297 574.678 401.396C574.806 401.482 574.997 401.527 575.192 401.519C575.417 401.508 575.68 401.357 576.204 401.054L581.519 397.985Z" stroke="#21A038" stroke-width="2" stroke-linecap="round" stroke-linejoin="round"></path>
                        <path d="M563.447 388.42C564.902 387.58 565.629 387.16 566.468 387.002C567.206 386.864 568.001 386.864 568.739 387.002C569.578 387.16 570.305 387.58 571.76 388.42L576.437 391.12C577.892 391.96 578.62 392.38 578.892 392.864C579.132 393.29 579.132 393.749 578.892 394.175C578.62 394.66 577.892 395.08 576.437 395.92L572.626 398.12C571.171 398.96 570.444 399.38 569.605 399.537C568.867 399.676 568.072 399.676 567.334 399.537C566.495 399.38 565.768 398.96 564.313 398.12L559.636 395.42C558.181 394.58 557.453 394.16 557.181 393.675C556.941 393.249 556.941 392.79 557.181 392.364C557.453 391.88 558.181 391.46 559.636 390.62L563.447 388.42Z" stroke="#21A038" stroke-width="2" stroke-linecap="round" stroke-linejoin="round"></path>
                        <path d="M280.62 154.017L287.895 149.817L291.109 151.673C291.931 152.148 292.421 152.612 292.578 153.065C292.744 153.524 292.523 153.929 291.913 154.281C291.322 154.623 290.638 154.756 289.862 154.681C289.095 154.601 288.343 154.348 287.604 153.921L288.089 153.865C288.957 154.367 289.433 154.828 289.516 155.249C289.599 155.671 289.336 156.057 288.726 156.409C288.098 156.772 287.377 156.921 286.564 156.857C285.77 156.793 284.892 156.484 283.932 155.929L280.62 154.017ZM282.352 154.121L284.666 155.457C285.285 155.815 285.848 156.028 286.356 156.097C286.883 156.167 287.368 156.073 287.811 155.817C288.255 155.561 288.435 155.292 288.352 155.009C288.269 154.727 287.918 154.407 287.299 154.049L284.888 152.657L282.352 154.121ZM285.622 152.233L287.811 153.497C288.375 153.823 288.911 154.009 289.419 154.057C289.936 154.111 290.398 154.02 290.804 153.785C291.211 153.551 291.363 153.287 291.262 152.993C291.169 152.705 290.841 152.399 290.278 152.073L288.089 150.809L285.622 152.233ZM290.713 159.844L297.392 155.988L297.378 156.284L294.371 154.548L295.23 154.052L301.729 157.804L300.87 158.3L297.863 156.564L298.376 156.556L291.697 160.412L290.713 159.844Z" fill="#3B3B3B"></path>
                        <path d="M236.25 175.4L255.978 164.01L255.92 165.132L250.119 161.783L252.003 160.695L258.982 164.724L238.37 176.624L236.25 175.4ZM271.093 171.513C272.919 172.567 274.048 173.695 274.48 174.896C274.931 176.086 274.715 177.31 273.832 178.568C272.948 179.826 271.417 181.084 269.238 182.342C266.922 183.679 264.566 184.575 262.172 185.028C259.796 185.493 257.5 185.549 255.281 185.198C253.063 184.847 251.022 184.133 249.157 183.056C248.234 182.523 247.439 181.962 246.772 181.373C246.124 180.795 245.663 180.2 245.388 179.588L247.95 179.095C248.126 179.605 248.48 180.104 249.01 180.591C249.579 181.078 250.237 181.537 250.982 181.968C253.201 183.249 255.674 183.861 258.403 183.804C261.151 183.759 263.928 182.926 266.736 181.305C267.187 181.044 267.697 180.716 268.267 180.319C268.856 179.934 269.376 179.509 269.827 179.044L270.004 179.792C268.787 180.268 267.491 180.529 266.117 180.574C264.782 180.619 263.457 180.478 262.142 180.149C260.847 179.832 259.629 179.344 258.491 178.687C257.136 177.905 256.184 177.061 255.635 176.154C255.105 175.259 255.007 174.375 255.34 173.502C255.674 172.629 256.469 171.83 257.725 171.105C259.021 170.357 260.444 169.887 261.995 169.694C263.546 169.501 265.106 169.564 266.677 169.881C268.286 170.198 269.759 170.742 271.093 171.513ZM269.386 172.601C268.404 172.034 267.344 171.638 266.205 171.411C265.106 171.184 264.007 171.139 262.908 171.275C261.808 171.411 260.797 171.745 259.875 172.278C258.52 173.06 257.902 173.95 258.02 174.947C258.157 175.956 259.021 176.919 260.611 177.837C261.671 178.449 262.79 178.868 263.968 179.095C265.165 179.333 266.323 179.378 267.442 179.231C268.581 179.095 269.572 178.783 270.416 178.296C271.182 177.854 271.692 177.321 271.947 176.698C272.202 176.075 272.134 175.412 271.741 174.709C271.368 173.995 270.583 173.292 269.386 172.601Z" fill="#3B3B3B"></path>
                        <path d="M222.191 190.592C221.538 191.664 221.183 192.818 221.183 194.02C221.183 195.221 221.538 196.375 222.191 197.448C222.247 197.54 222.275 197.586 222.323 197.637C222.495 197.818 222.844 197.961 223.197 197.995C223.297 198.004 223.396 198.004 223.594 198.004C224.199 198.004 224.502 198.004 224.753 198.035C225.7 198.151 226.441 198.578 226.641 199.125C226.695 199.27 226.695 199.445 226.695 199.795L226.695 199.989C226.695 200.521 226.695 200.787 226.572 201.001C226.33 201.429 225.749 201.764 225.009 201.904C224.637 201.975 224.177 201.975 223.256 201.975L222.983 201.975C222.066 201.975 221.607 201.975 221.12 201.896C220.58 201.808 219.903 201.579 219.507 201.349C219.15 201.142 218.975 200.961 218.625 200.598C216.744 198.651 215.672 196.408 215.672 194.02C215.672 191.632 216.744 189.388 218.625 187.441C218.975 187.079 219.15 186.898 219.507 186.691C219.903 186.461 220.58 186.231 221.12 186.144C221.607 186.065 222.066 186.065 222.983 186.065L223.256 186.065C224.177 186.065 224.637 186.065 225.009 186.135C225.749 186.275 226.33 186.611 226.572 187.038C226.695 187.253 226.695 187.519 226.695 188.05L226.695 188.245C226.695 188.594 226.695 188.769 226.641 188.914C226.441 189.461 225.7 189.889 224.753 190.004C224.502 190.035 224.199 190.035 223.594 190.035C223.396 190.035 223.297 190.035 223.197 190.045C222.844 190.078 222.495 190.221 222.323 190.402C222.275 190.453 222.247 190.499 222.191 190.592Z" stroke="#21A038" stroke-width="2" stroke-linecap="round" stroke-linejoin="round"></path>
                        <path d="M194.762 104.447L202.036 100.247L208.576 104.023L201.302 108.223L200.318 107.655L206.997 103.799L206.983 104.095L201.912 101.167L202.424 101.159L195.745 105.015L194.762 104.447ZM204.376 109.998L211.65 105.798L212.634 106.366L209.419 108.222L214.006 110.87L217.221 109.014L218.204 109.582L210.93 113.782L209.946 113.214L213.161 111.358L208.574 108.71L205.359 110.566L204.376 109.998Z" fill="#3B3B3B"></path>
                        <path d="M152.262 126.91L171.99 115.52L171.931 116.642L166.131 113.293L168.015 112.205L174.993 116.234L154.382 128.134L152.262 126.91ZM167.554 135.942C165.905 134.99 164.717 134.033 163.991 133.069C163.284 132.117 163.048 131.199 163.284 130.315C163.559 129.431 164.305 128.638 165.522 127.935C166.7 127.255 168.005 126.853 169.438 126.728C170.91 126.604 172.461 126.751 174.09 127.17C175.739 127.601 177.408 128.304 179.096 129.278C180.764 130.242 181.972 131.199 182.718 132.151C183.464 133.103 183.729 134.004 183.513 134.854C183.336 135.704 182.659 136.469 181.481 137.149C180.264 137.852 178.88 138.277 177.329 138.424C175.798 138.56 174.198 138.419 172.53 137.999C170.861 137.58 169.202 136.894 167.554 135.942ZM169.35 134.905C171.175 135.959 172.971 136.566 174.738 136.724C176.524 136.894 178.056 136.611 179.332 135.874C180.607 135.138 181.088 134.259 180.774 133.239C180.499 132.219 179.449 131.182 177.624 130.128C175.798 129.074 174.002 128.468 172.235 128.309C170.488 128.139 168.977 128.423 167.701 129.159C166.425 129.896 165.924 130.774 166.199 131.794C166.474 132.814 167.524 133.851 169.35 134.905ZM177.889 129.975C176.358 129.091 175.258 128.219 174.591 127.357C173.943 126.507 173.717 125.697 173.914 124.926C174.13 124.144 174.777 123.442 175.857 122.818C176.996 122.161 178.262 121.77 179.655 121.645C181.088 121.521 182.561 121.645 184.072 122.019C185.584 122.393 187.066 123 188.518 123.838C189.971 124.677 191.021 125.533 191.669 126.405C192.336 127.289 192.562 128.145 192.346 128.972C192.15 129.788 191.482 130.525 190.344 131.182C189.264 131.806 188.047 132.18 186.693 132.304C185.358 132.418 183.935 132.276 182.423 131.879C180.931 131.494 179.42 130.859 177.889 129.975ZM179.302 129.159C180.912 130.089 182.502 130.621 184.072 130.757C185.643 130.893 186.987 130.638 188.106 129.992C189.284 129.312 189.726 128.513 189.431 127.595C189.176 126.677 188.273 125.771 186.722 124.875C185.171 123.98 183.601 123.459 182.011 123.311C180.441 123.153 179.076 123.408 177.918 124.076C176.78 124.734 176.318 125.51 176.534 126.405C176.77 127.312 177.692 128.23 179.302 129.159Z" fill="#3B3B3B"></path>
                        <path d="M148.88 149.27L133.292 140.27M151.478 142.77L148.014 144.77M144.55 138.77L141.086 140.77M127.056 148.67L134.331 152.87C135.786 153.71 136.513 154.13 137.352 154.287C138.09 154.426 138.885 154.426 139.623 154.287C140.462 154.13 141.19 153.71 142.645 152.87L149.919 148.67C151.374 147.83 152.102 147.41 152.375 146.925C152.614 146.499 152.614 146.04 152.375 145.614C152.102 145.13 151.374 144.71 149.919 143.87L142.645 139.67C141.19 138.83 140.462 138.41 139.623 138.252C138.885 138.114 138.09 138.114 137.352 138.252C136.513 138.41 135.786 138.83 134.331 139.67L127.056 143.87C125.601 144.71 124.874 145.13 124.601 145.614C124.361 146.04 124.361 146.499 124.601 146.925C124.874 147.41 125.601 147.83 127.056 148.67Z" stroke="#21A038" stroke-width="2" stroke-linecap="round" stroke-linejoin="round"></path>
                    </g>
                </g>
                <defs>
                    <filter id="filter0_d_12055_977" x="-12.1688" y="-6.40562" width="900.278" height="573.051" filterUnits="userSpaceOnUse" color-interpolation-filters="sRGB">
                        <feFlood flood-opacity="0" result="BackgroundImageFix"></feFlood>
                        <feColorMatrix in="SourceAlpha" type="matrix" values="0 0 0 0 0 0 0 0 0 0 0 0 0 0 0 0 0 0 127 0" result="hardAlpha"></feColorMatrix>
                        <feOffset dy="4.75666"></feOffset>
                        <feGaussianBlur stdDeviation="31.5128"></feGaussianBlur>
                        <feComposite in2="hardAlpha" operator="out"></feComposite>
                        <feColorMatrix type="matrix" values="0 0 0 0 0 0 0 0 0 0 0 0 0 0 0 0 0 0 0.07 0"></feColorMatrix>
                        <feBlend mode="normal" in2="BackgroundImageFix" result="effect1_dropShadow_12055_977"></feBlend>
                        <feBlend mode="normal" in="SourceGraphic" in2="effect1_dropShadow_12055_977" result="shape"></feBlend>
                    </filter>
                    <clipPath id="clip0_12055_977">
                        <rect width="760" height="134" rx="25" transform="matrix(0.866025 0.5 -0.866025 0.5 166.904 51.8634)" fill="white"></rect>
                    </clipPath>
                </defs>
            </svg>